<?xml version="1.0" encoding="UTF-8"?>
<svg version="1.1" xmlns="http://www.w3.org/2000/svg" width="418" height="418">
<path d="M0 0 C1.51242259 -0.00761181 1.51242259 -0.00761181 3.05539918 -0.0153774 C4.71411377 -0.01612404 4.71411377 -0.01612404 6.40633774 -0.01688576 C8.17087598 -0.02345914 8.17087598 -0.02345914 9.97106147 -0.03016531 C13.23759483 -0.04122276 16.50410118 -0.04777559 19.77064896 -0.05234647 C23.29376312 -0.05830902 26.81685971 -0.0699176 30.33996201 -0.08063698 C38.85160379 -0.10515172 47.3632514 -0.11978972 55.87491763 -0.13269705 C58.28098152 -0.1364106 60.68704485 -0.14038373 63.09310818 -0.14444971 C78.04770266 -0.16969525 93.00229809 -0.1917395 107.95690918 -0.20417786 C111.42050047 -0.20710738 114.88409173 -0.21006906 118.34768295 -0.21308327 C119.20850226 -0.21382932 120.06932157 -0.21457537 120.95622632 -0.21534403 C134.88059017 -0.22797986 148.80482581 -0.2611789 162.72912982 -0.3028851 C177.03981159 -0.3453953 191.35042792 -0.36888362 205.66117263 -0.37409842 C213.68994481 -0.37750299 221.71851691 -0.38914434 229.74722672 -0.42220116 C236.58979188 -0.45032845 243.43211595 -0.46114602 250.27473441 -0.4500057 C253.76039579 -0.44485052 257.24555335 -0.44749754 260.73114014 -0.47247124 C278.25816754 -0.57794489 293.69407527 0.0179167 309.1484642 9.19951439 C309.79895737 9.5781765 310.44945053 9.95683861 311.11965561 10.34697533 C322.61332418 17.28833714 332.31451331 26.21189081 339.81799126 37.34972572 C340.92219729 38.98687149 342.05414009 40.60522074 343.18873215 42.22145653 C350.95654499 55.14879636 350.1727065 68.83437497 350.06926155 83.47510433 C350.05098544 87.30895166 350.07918537 91.14251915 350.10110092 94.97630882 C350.13649689 102.46610391 350.12907063 109.95525424 350.10579979 117.4450736 C350.08766213 123.53728516 350.0853127 129.62931722 350.09399033 135.72154808 C350.09521619 136.59177483 350.09644205 137.46200157 350.09770507 138.35859883 C350.10026312 140.12697463 350.10285683 141.89535039 350.1054858 143.66372609 C350.12824622 160.20879174 350.10215096 176.7535016 350.05908287 193.29850888 C350.02334524 207.46555852 350.02955491 221.63208358 350.06643295 235.79912376 C350.10933753 252.28880686 350.12604944 268.77817888 350.10153484 285.26791 C350.09898671 287.02943352 350.09647174 288.79095709 350.09399033 290.5524807 C350.09213902 291.85221217 350.09213902 291.85221217 350.09025031 293.17820084 C350.08337049 299.25636582 350.09494201 305.33433189 350.11382675 311.41246605 C350.13636704 318.8295142 350.12997933 326.24588593 350.0875808 333.66285753 C350.06669153 337.44042605 350.05808346 341.21687085 350.08477402 344.99442863 C350.1863377 360.64703831 350.23284904 373.93321553 341.0234642 387.13701439 C340.53892776 387.9039814 340.05439133 388.67094841 339.55517197 389.46115685 C331.57662485 401.56092768 319.48593432 412.6258305 306.0234642 418.13701439 C301.40481849 418.95114845 296.89664088 418.95330388 292.21537399 418.90564537 C290.84910733 418.91329003 289.48285323 418.92354103 288.11662334 418.93614691 C284.39042737 418.96296504 280.66514181 418.9527537 276.93892133 418.93602145 C272.90946353 418.92445412 268.88017685 418.94751953 264.85076523 418.96597862 C256.96802969 418.99644769 249.08562563 418.9944843 241.20285601 418.9805278 C234.79348404 418.96969252 228.38420716 418.97024862 221.97483253 418.9788475 C220.60429827 418.98065969 220.60429827 418.98065969 219.20607645 418.98250848 C217.34967508 418.98499924 215.49327373 418.98751023 213.6368724 418.99004122 C196.24553533 419.01230149 178.85438352 418.9970681 161.46306425 418.96945491 C146.55623349 418.94673972 131.6497461 418.95841569 116.74294662 418.9946804 C99.41359725 419.03683428 82.08446066 419.05590794 64.75506061 419.03965586 C62.90534432 419.03799629 61.05562799 419.03637294 59.20591164 419.03478622 C58.29592455 419.03400128 57.38593746 419.03321634 56.44837501 419.03240762 C50.0508061 419.02852398 43.65339437 419.04120743 37.25585747 419.06051636 C29.45328086 419.08369224 21.65118225 419.08194359 13.84863467 419.04860321 C9.87118796 419.03224887 5.89456904 419.02689052 1.9171505 419.05220222 C-1.73077768 419.07510379 -5.37714987 419.0651508 -9.02496732 419.03003033 C-10.95517366 419.01963546 -12.88547306 419.04330039 -14.81554216 419.06855613 C-26.69940504 418.88942638 -35.36912568 413.18118629 -44.1015358 405.51201439 C-44.97672867 404.74679466 -44.97672867 404.74679466 -45.8696022 403.96611595 C-51.26223673 399.10785998 -55.71201001 393.94768722 -59.77051353 387.92498112 C-60.8754344 386.28690046 -62.00733199 384.66710031 -63.14180374 383.04934502 C-70.89250144 370.14104031 -70.1259563 356.50153946 -70.02233315 341.88346744 C-70.00405613 338.06188983 -70.03225739 334.24059287 -70.05417252 330.4190731 C-70.08956755 322.95334081 -70.08214266 315.48825537 -70.05887139 308.02249873 C-70.04073335 301.94983316 -70.03838445 295.87734765 -70.04706192 289.8046627 C-70.04828778 288.93721132 -70.04951365 288.06975993 -70.05077666 287.17602214 C-70.05333471 285.41328334 -70.05592842 283.65054458 -70.05855739 281.88780588 C-70.08131754 265.3956749 -70.05522299 248.90390087 -70.01215446 232.41182846 C-69.97641686 218.29026003 -69.98262654 204.16921786 -70.01950455 190.04765892 C-70.06240961 173.61071326 -70.07912076 157.17407967 -70.05460644 140.73708582 C-70.0520583 138.98117929 -70.04954333 137.2252727 -70.04706192 135.46936607 C-70.04582772 134.60564254 -70.04459351 133.741919 -70.04332191 132.85202202 C-70.03644223 126.79339346 -70.04801329 120.73496445 -70.06689835 114.67636681 C-70.08943919 107.28310642 -70.0830498 99.89052463 -70.04065239 92.49734104 C-70.01976384 88.7319229 -70.01115376 84.96763208 -70.03784561 81.20222473 C-70.13953277 65.57989224 -70.17962521 52.31018083 -60.9765358 39.13701439 C-60.1866552 37.92380894 -60.1866552 37.92380894 -59.38081741 36.68609428 C-58.20601228 34.92640158 -56.96261254 33.31768922 -55.6015358 31.69951439 C-54.90302505 30.846437 -54.90302505 30.846437 -54.19040298 29.97612572 C-41.68150625 15.02269374 -20.37298292 0.0545296 0 0 Z " fill="#01B0C1" transform="translate(68.97653579711914,-0.13701438903808594)"/>
<path d="M0 0 C2.03579568 0.00307145 4.07159349 0.004937 6.10739136 0.00567627 C10.33779172 0.01023358 14.56799687 0.0244794 18.79833984 0.046875 C24.16786531 0.07518927 29.53723867 0.08609678 34.90683174 0.0905571 C40.10457323 0.09575822 45.30227848 0.11023899 50.5 0.125 C51.46258854 0.12688072 52.42517708 0.12876144 53.41693497 0.13069916 C62.93329676 0.15473763 72.43230597 0.25794209 81.93701172 0.75878906 C82.64129366 0.79462475 83.3455756 0.83046043 84.07119942 0.86738205 C95.32294438 1.53507285 109.89012387 2.73973456 118.5546875 10.515625 C122.4030667 17.44270756 123.49239451 23.44877785 123.1171875 31.328125 C123.71144531 30.94140625 124.30570313 30.5546875 124.91796875 30.15625 C139.28845588 21.12720366 154.39391175 18.26283581 171.2421875 20.953125 C181.83541084 23.47118629 190.8321693 29.3100232 198.1171875 37.328125 C198.4471875 38.318125 198.7771875 39.308125 199.1171875 40.328125 C199.73464844 40.60785156 200.35210937 40.88757813 200.98828125 41.17578125 C206.61163729 44.21961617 209.10286831 53.67753917 210.9921875 59.515625 C212.17990353 64.35082398 212.39206826 69.06117055 212.4296875 74.015625 C212.43532715 74.71647217 212.4409668 75.41731934 212.44677734 76.1394043 C212.27265458 88.68362153 206.86586918 100.91108181 202.1171875 112.328125 C201.4571875 112.328125 200.7971875 112.328125 200.1171875 112.328125 C200.01277344 112.87597656 199.90835937 113.42382812 199.80078125 113.98828125 C198.96438564 116.85114395 197.65069934 119.1724721 196.1796875 121.765625 C194.63948133 124.48652976 193.21781652 127.06147767 192.11328125 129.98828125 C191.1171875 132.328125 191.1171875 132.328125 189.73999023 133.67504883 C187.79709339 135.65419047 186.55790527 137.72415078 185.15625 140.1171875 C184.60195313 141.05949219 184.04765625 142.00179687 183.4765625 142.97265625 C182.90421875 143.95621094 182.331875 144.93976563 181.7421875 145.953125 C180.89527344 147.39365234 180.89527344 147.39365234 180.03125 148.86328125 C173.44841914 159.78399061 173.44841914 159.78399061 168.1171875 171.328125 C167.4571875 172.318125 166.7971875 173.308125 166.1171875 174.328125 C162.79270268 182.22758893 161.35169334 191.42416067 163.84375 199.7578125 C165.84760102 204.0750525 168.57788605 207.13412125 172.1171875 210.328125 C173.78385417 211.99479167 175.45052083 213.66145833 177.1171875 215.328125 C178.509375 216.4728125 178.509375 216.4728125 179.9296875 217.640625 C182.2892539 220.53952086 182.99446292 222.4273021 182.71484375 226.19140625 C181.46577765 230.65702164 178.9663236 233.79059521 175.1171875 236.328125 C170.73547393 237.15270571 166.17748708 237.35827479 162.1171875 235.328125 C162.1171875 234.668125 162.1171875 234.008125 162.1171875 233.328125 C161.5809375 233.26625 161.0446875 233.204375 160.4921875 233.140625 C157.07348784 231.97106985 154.84794865 229.65217704 152.1171875 227.328125 C151.1271875 226.998125 150.1371875 226.668125 149.1171875 226.328125 C148.9109375 227.111875 148.7046875 227.895625 148.4921875 228.703125 C143.94685297 240.68627966 134.60263665 251.77014199 125.1171875 260.328125 C124.4571875 260.328125 123.7971875 260.328125 123.1171875 260.328125 C123.1171875 260.988125 123.1171875 261.648125 123.1171875 262.328125 C115.07038182 269.10070766 105.46190734 275.05650004 95.03515625 276.828125 C92.83458883 277.2572156 92.83458883 277.2572156 90.5546875 279.453125 C87.01678836 282.17458588 84.52490395 281.4703094 80.1171875 281.328125 C79.1271875 281.988125 78.1371875 282.648125 77.1171875 283.328125 C68.42447494 285.5726849 59.53857231 285.66402842 50.6171875 285.640625 C49.38871094 285.65673828 48.16023438 285.67285156 46.89453125 285.68945312 C38.87934827 285.69370296 31.78481439 284.667176 24.1171875 282.328125 C24.1171875 281.668125 24.1171875 281.008125 24.1171875 280.328125 C20.8171875 279.998125 17.5171875 279.668125 14.1171875 279.328125 C14.1171875 278.668125 14.1171875 278.008125 14.1171875 277.328125 C13.0240625 277.225 11.9309375 277.121875 10.8046875 277.015625 C7.13181942 276.33085298 6.36481064 276.04893196 4.1171875 273.328125 C3.4571875 273.328125 2.7971875 273.328125 2.1171875 273.328125 C2.1171875 272.668125 2.1171875 272.008125 2.1171875 271.328125 C1.3334375 271.26625 0.5496875 271.204375 -0.2578125 271.140625 C-10.07945184 268.93922308 -16.82153539 263.22325441 -23.8828125 256.328125 C-24.55699219 255.69261719 -25.23117188 255.05710937 -25.92578125 254.40234375 C-29.49906159 250.96620423 -32.18026245 247.51321679 -34.8828125 243.328125 C-35.53121094 242.33554687 -36.17960937 241.34296875 -36.84765625 240.3203125 C-43.25882717 230.18939291 -48.58502813 220.56435548 -48.8828125 208.328125 C-49.5428125 208.328125 -50.2028125 208.328125 -50.8828125 208.328125 C-53.6897071 195.15382937 -53.36190051 179.01567044 -48.8828125 166.328125 C-48.59277344 165.35359375 -48.30273438 164.3790625 -48.00390625 163.375 C-45.72788293 155.9469741 -42.52618631 149.17766776 -38.8828125 142.328125 C-38.2228125 142.328125 -37.5628125 142.328125 -36.8828125 142.328125 C-36.3878125 139.358125 -36.3878125 139.358125 -35.8828125 136.328125 C-35.2228125 136.328125 -34.5628125 136.328125 -33.8828125 136.328125 C-32.8928125 133.028125 -31.9028125 129.728125 -30.8828125 126.328125 C-30.2228125 126.328125 -29.5628125 126.328125 -28.8828125 126.328125 C-28.76679687 125.44898438 -28.65078125 124.56984375 -28.53125 123.6640625 C-27.89638566 120.39795319 -26.92367876 117.94789666 -25.5078125 114.953125 C-22.33853342 107.58867302 -21.06161303 100.20877751 -19.8828125 92.328125 C-19.68365234 91.03648437 -19.68365234 91.03648437 -19.48046875 89.71875 C-18.79131956 84.2433181 -18.72385095 78.71569856 -18.6328125 73.203125 C-18.61130127 72.45047363 -18.58979004 71.69782227 -18.56762695 70.92236328 C-18.52234612 63.12893454 -20.9357146 56.58032732 -25.765625 50.46484375 C-30.03837346 46.1526788 -35.11564841 42.83833883 -40.15039062 39.48583984 C-41.68465603 38.4605458 -43.19939035 37.40615681 -44.7109375 36.34765625 C-51.09633378 32.01743991 -57.70568527 29.18337297 -64.890625 26.4921875 C-67.8828125 25.328125 -67.8828125 25.328125 -68.8828125 24.328125 C-69.5095805 21.11593898 -69.36070267 19.08721275 -67.6015625 16.29296875 C-52.92308396 -1.55472675 -21.07274441 -0.14215513 0 0 Z " fill="#E6F3FB" transform="translate(151.8828125,75.671875)"/>
<path d="M0 0 C1.51242259 -0.00761181 1.51242259 -0.00761181 3.05539918 -0.0153774 C4.71411377 -0.01612404 4.71411377 -0.01612404 6.40633774 -0.01688576 C8.17087598 -0.02345914 8.17087598 -0.02345914 9.97106147 -0.03016531 C13.23759483 -0.04122276 16.50410118 -0.04777559 19.77064896 -0.05234647 C23.29376312 -0.05830902 26.81685971 -0.0699176 30.33996201 -0.08063698 C38.85160379 -0.10515172 47.3632514 -0.11978972 55.87491763 -0.13269705 C58.28098152 -0.1364106 60.68704485 -0.14038373 63.09310818 -0.14444971 C78.04770266 -0.16969525 93.00229809 -0.1917395 107.95690918 -0.20417786 C111.42050047 -0.20710738 114.88409173 -0.21006906 118.34768295 -0.21308327 C119.20850226 -0.21382932 120.06932157 -0.21457537 120.95622632 -0.21534403 C134.88059017 -0.22797986 148.80482581 -0.2611789 162.72912982 -0.3028851 C177.03981159 -0.3453953 191.35042792 -0.36888362 205.66117263 -0.37409842 C213.68994481 -0.37750299 221.71851691 -0.38914434 229.74722672 -0.42220116 C236.58979188 -0.45032845 243.43211595 -0.46114602 250.27473441 -0.4500057 C253.76039579 -0.44485052 257.24555335 -0.44749754 260.73114014 -0.47247124 C278.25816754 -0.57794489 293.69407527 0.0179167 309.1484642 9.19951439 C309.79895737 9.5781765 310.44945053 9.95683861 311.11965561 10.34697533 C322.61332418 17.28833714 332.31451331 26.21189081 339.81799126 37.34972572 C340.92219729 38.98687149 342.05414009 40.60522074 343.18873215 42.22145653 C350.95654499 55.14879636 350.1727065 68.83437497 350.06926155 83.47510433 C350.05098544 87.30895166 350.07918537 91.14251915 350.10110092 94.97630882 C350.13649689 102.46610391 350.12907063 109.95525424 350.10579979 117.4450736 C350.08766213 123.53728516 350.0853127 129.62931722 350.09399033 135.72154808 C350.09521619 136.59177483 350.09644205 137.46200157 350.09770507 138.35859883 C350.10026312 140.12697463 350.10285683 141.89535039 350.1054858 143.66372609 C350.12824622 160.20879174 350.10215096 176.7535016 350.05908287 193.29850888 C350.02334524 207.46555852 350.02955491 221.63208358 350.06643295 235.79912376 C350.10933753 252.28880686 350.12604944 268.77817888 350.10153484 285.26791 C350.09898671 287.02943352 350.09647174 288.79095709 350.09399033 290.5524807 C350.09213902 291.85221217 350.09213902 291.85221217 350.09025031 293.17820084 C350.08337049 299.25636582 350.09494201 305.33433189 350.11382675 311.41246605 C350.13636704 318.8295142 350.12997933 326.24588593 350.0875808 333.66285753 C350.06669153 337.44042605 350.05808346 341.21687085 350.08477402 344.99442863 C350.1863377 360.64703831 350.23284904 373.93321553 341.0234642 387.13701439 C340.53892776 387.9039814 340.05439133 388.67094841 339.55517197 389.46115685 C331.57662485 401.56092768 319.48593432 412.6258305 306.0234642 418.13701439 C301.40481849 418.95114845 296.89664088 418.95330388 292.21537399 418.90564537 C290.84910733 418.91329003 289.48285323 418.92354103 288.11662334 418.93614691 C284.39042737 418.96296504 280.66514181 418.9527537 276.93892133 418.93602145 C272.90946353 418.92445412 268.88017685 418.94751953 264.85076523 418.96597862 C256.96802969 418.99644769 249.08562563 418.9944843 241.20285601 418.9805278 C234.79348404 418.96969252 228.38420716 418.97024862 221.97483253 418.9788475 C220.60429827 418.98065969 220.60429827 418.98065969 219.20607645 418.98250848 C217.34967508 418.98499924 215.49327373 418.98751023 213.6368724 418.99004122 C196.24553533 419.01230149 178.85438352 418.9970681 161.46306425 418.96945491 C146.55623349 418.94673972 131.6497461 418.95841569 116.74294662 418.9946804 C99.41359725 419.03683428 82.08446066 419.05590794 64.75506061 419.03965586 C62.90534432 419.03799629 61.05562799 419.03637294 59.20591164 419.03478622 C58.29592455 419.03400128 57.38593746 419.03321634 56.44837501 419.03240762 C50.0508061 419.02852398 43.65339437 419.04120743 37.25585747 419.06051636 C29.45328086 419.08369224 21.65118225 419.08194359 13.84863467 419.04860321 C9.87118796 419.03224887 5.89456904 419.02689052 1.9171505 419.05220222 C-1.73077768 419.07510379 -5.37714987 419.0651508 -9.02496732 419.03003033 C-10.95517366 419.01963546 -12.88547306 419.04330039 -14.81554216 419.06855613 C-26.69940504 418.88942638 -35.36912568 413.18118629 -44.1015358 405.51201439 C-44.97672867 404.74679466 -44.97672867 404.74679466 -45.8696022 403.96611595 C-51.26223673 399.10785998 -55.71201001 393.94768722 -59.77051353 387.92498112 C-60.8754344 386.28690046 -62.00733199 384.66710031 -63.14180374 383.04934502 C-70.89250144 370.14104031 -70.1259563 356.50153946 -70.02233315 341.88346744 C-70.00405613 338.06188983 -70.03225739 334.24059287 -70.05417252 330.4190731 C-70.08956755 322.95334081 -70.08214266 315.48825537 -70.05887139 308.02249873 C-70.04073335 301.94983316 -70.03838445 295.87734765 -70.04706192 289.8046627 C-70.04828778 288.93721132 -70.04951365 288.06975993 -70.05077666 287.17602214 C-70.05333471 285.41328334 -70.05592842 283.65054458 -70.05855739 281.88780588 C-70.08131754 265.3956749 -70.05522299 248.90390087 -70.01215446 232.41182846 C-69.97641686 218.29026003 -69.98262654 204.16921786 -70.01950455 190.04765892 C-70.06240961 173.61071326 -70.07912076 157.17407967 -70.05460644 140.73708582 C-70.0520583 138.98117929 -70.04954333 137.2252727 -70.04706192 135.46936607 C-70.04582772 134.60564254 -70.04459351 133.741919 -70.04332191 132.85202202 C-70.03644223 126.79339346 -70.04801329 120.73496445 -70.06689835 114.67636681 C-70.08943919 107.28310642 -70.0830498 99.89052463 -70.04065239 92.49734104 C-70.01976384 88.7319229 -70.01115376 84.96763208 -70.03784561 81.20222473 C-70.13953277 65.57989224 -70.17962521 52.31018083 -60.9765358 39.13701439 C-60.1866552 37.92380894 -60.1866552 37.92380894 -59.38081741 36.68609428 C-58.20601228 34.92640158 -56.96261254 33.31768922 -55.6015358 31.69951439 C-54.90302505 30.846437 -54.90302505 30.846437 -54.19040298 29.97612572 C-41.68150625 15.02269374 -20.37298292 0.0545296 0 0 Z M7.0234642 4.13701439 C6.31928958 4.27653872 5.61511496 4.41606306 4.88960171 4.55981541 C-10.39975084 7.80785648 -22.93020259 14.3013613 -34.9765358 24.13701439 C-35.56821548 24.5765847 -36.15989517 25.01615501 -36.76950455 25.46904564 C-44.71730516 31.49914637 -50.21162199 40.53449035 -54.9765358 49.13701439 C-55.52954361 50.10187767 -55.52954361 50.10187767 -56.0937233 51.08623314 C-66.22447111 69.81633666 -66.42630536 92.05684252 -66.34885025 112.76421165 C-66.35128448 115.0727562 -66.35500989 117.38129969 -66.35991287 119.68984032 C-66.36923849 125.902593 -66.35996736 132.11518583 -66.34658074 138.32792592 C-66.33517529 144.86307914 -66.3393807 151.39822552 -66.34132767 157.93338585 C-66.34274803 168.9019221 -66.3312626 179.87039949 -66.31271744 190.83891869 C-66.29371502 202.08112526 -66.28663284 213.3232597 -66.29220963 224.56548119 C-66.29894225 238.17764464 -66.29558453 251.78976029 -66.28310585 265.40192032 C-66.27848867 270.57567944 -66.27757342 275.74941902 -66.2796917 280.92317963 C-66.28158974 287.02599315 -66.27335535 293.12871552 -66.2576313 299.23150826 C-66.25342659 301.45735166 -66.25251183 303.68320438 -66.2553215 305.90904999 C-66.27288958 322.32999556 -66.2442132 338.97765118 -61.1640358 354.76201439 C-60.92878189 355.56767845 -60.69352798 356.37334251 -60.45114517 357.20342064 C-58.93609596 362.11043043 -56.94452534 366.1755329 -54.0558815 370.42363548 C-52.9765358 372.13701439 -52.9765358 372.13701439 -51.9765358 375.13701439 C-51.0012161 376.16110007 -49.99454936 377.15535845 -48.9765358 378.13701439 C-48.11666314 379.19490189 -47.26291304 380.2577837 -46.4140358 381.32451439 C-45.6096608 382.25263939 -44.8052858 383.18076439 -43.9765358 384.13701439 C-43.3165358 384.13701439 -42.6565358 384.13701439 -41.9765358 384.13701439 C-41.89016861 384.71967064 -41.80380142 385.30232689 -41.71481705 385.90263939 C-38.95650042 394.25056062 -25.42615265 401.37653375 -18.03708267 405.11943626 C-7.94584733 409.90964062 1.97163296 412.61343214 13.0234642 414.13701439 C14.21730539 414.3097302 15.41114658 414.482446 16.64116478 414.66039562 C21.37443702 415.24519723 26.05971894 415.27908547 30.82384872 415.27072716 C31.7817023 415.27299271 32.73955587 415.27525827 33.7264353 415.27759248 C36.92099773 415.28389861 40.11551736 415.28310528 43.3100853 415.28227806 C45.60715413 415.28527179 47.90422246 415.28867482 50.20129013 415.29245567 C56.43323389 415.30128122 62.66516392 415.30363327 68.89711332 415.30427146 C72.79692445 415.30498314 76.6967321 415.30711978 80.59654236 415.30976868 C93.51775424 415.31854239 106.4389564 415.32318897 119.36017112 415.3224382 C120.05584983 415.32239825 120.75152854 415.32235829 121.46828842 415.32231712 C122.51309765 415.3222558 122.51309765 415.3222558 123.57901414 415.32219324 C134.84398192 415.3217876 146.10891614 415.33133741 157.37387423 415.34545549 C168.97040458 415.35987303 180.56691708 415.36654017 192.16345656 415.36586171 C198.66185548 415.36560776 205.16021647 415.36840168 211.65860748 415.37903976 C217.78013941 415.38878705 223.90159766 415.38875485 230.02313232 415.38152313 C232.25703414 415.38048526 234.49094069 415.38279214 236.72483444 415.38888359 C269.15600059 415.47151464 296.87582041 411.60015804 321.0234642 388.13701439 C339.89622056 369.32603465 347.06080124 344.82642173 347.1618697 318.74393976 C347.1603211 317.86571829 347.1587725 316.98749682 347.15717697 316.08266258 C347.15944253 315.12168903 347.16170808 314.16071548 347.16404229 313.17062151 C347.17032973 309.97760324 347.16955633 306.78462798 347.16872787 303.59160423 C347.17172268 301.29099536 347.17512595 298.990387 347.17890549 296.68977928 C347.18771779 290.45808824 347.19008246 284.22641093 347.19072127 277.99471426 C347.19143345 274.09524297 347.19357096 270.19577513 347.19621849 266.2963047 C347.20498686 253.3767778 347.20963934 240.4572606 347.20888802 227.53773086 C347.20884806 226.84265751 347.2088081 226.14758416 347.20876694 225.43144798 C347.20872606 224.73551488 347.20868518 224.03958177 347.20864306 223.32255979 C347.20823703 212.05636805 347.21779802 200.79020981 347.2319053 189.52402775 C347.24631322 177.92518372 347.25299045 166.32635752 347.25231153 154.72750437 C347.25205741 148.22808114 347.25486068 141.72869581 347.26548958 135.22928047 C347.27522241 129.11101135 347.27521439 122.99281598 347.26797295 116.87454414 C347.26693347 114.63980056 347.26925178 112.40505225 347.2753334 110.1703167 C347.35085769 80.47486666 343.50846274 51.47699127 321.7109642 29.38701439 C315.17350899 22.96490949 308.18069224 16.30583155 299.0234642 14.13701439 C299.0234642 13.47701439 299.0234642 12.81701439 299.0234642 12.13701439 C278.53088626 3.20551471 257.29686907 1.6833822 235.24685287 1.76469994 C232.91063907 1.76226632 230.57442632 1.75854151 228.2382164 1.75363731 C221.9472311 1.7443053 215.65640348 1.75358719 209.36543059 1.76696944 C203.4277786 1.77720402 197.49014076 1.77466401 191.55248228 1.77276693 C179.79091151 1.76959042 168.02940168 1.78116975 156.26784897 1.80083275 C144.88762179 1.81985288 133.50746591 1.82691294 122.12722397 1.82134056 C109.68927969 1.81526816 97.25136659 1.81548486 84.81342489 1.82682639 C78.24547834 1.83278795 71.67755505 1.83650793 65.10960579 1.83385849 C58.93787614 1.83196729 52.76623717 1.84014323 46.5945282 1.85591888 C44.33755938 1.86014062 42.08058133 1.8610266 39.82361031 1.85822868 C28.71235168 1.84654918 17.94310508 1.8466088 7.0234642 4.13701439 Z " fill="#000A0D" transform="translate(68.97653579711914,-0.13701438903808594)"/>
<path d="M0 0 C1.04897461 0.00193359 1.04897461 0.00193359 2.11914062 0.00390625 C7.41824384 0.10267798 11.35328066 0.95789033 16.0625 3.3125 C16.0625 3.9725 16.0625 4.6325 16.0625 5.3125 C16.64 5.539375 17.2175 5.76625 17.8125 6 C22.0155085 8.45175496 24.77056454 12.54911702 26.51171875 17.0625 C31.88177172 38.99973766 14.67076246 63.23838284 4.0625 81.3125 C2.42496444 83.99933019 0.74856059 86.65567725 -0.9375 89.3125 C-1.61730686 90.6391819 -2.2872134 91.97110164 -2.9375 93.3125 C-3.5975 93.3125 -4.2575 93.3125 -4.9375 93.3125 C-5.22625 94.240625 -5.515 95.16875 -5.8125 96.125 C-6.9375 99.3125 -6.9375 99.3125 -8.9375 102.3125 C-12.41181084 101.15439639 -13.23501931 99.91108004 -14.953125 96.765625 C-17.06096849 91.51274518 -17.92167684 85.86104921 -18.9375 80.3125 C-19.5975 80.3125 -20.2575 80.3125 -20.9375 80.3125 C-27.58620833 61.04759512 -36.31428381 34.06596272 -27.5 14.375 C-23.63057882 8.0506866 -18.65260977 3.62293658 -11.6484375 1.15234375 C-7.71719198 0.26264082 -4.00928464 -0.03075194 0 0 Z " fill="#03A7B6" transform="translate(309.9375,122.6875)"/>
<path d="M0 0 C2.06180825 3.09271238 2.64028801 5.09779402 3.4375 8.6875 C3.6953125 9.84507812 3.953125 11.00265625 4.21875 12.1953125 C4.89024757 15.46550565 5.49769858 18.7355336 6.07592773 22.02270508 C7.8763939 32.1799602 9.96292738 41.85771455 16.046875 50.37890625 C17 52 17 52 17 55 C18.485 55.495 18.485 55.495 20 56 C21.35278115 57.98689731 22.68568305 59.98745218 24 62 C24.99 62.66 25.98 63.32 27 64 C27.68255859 65.16402344 27.68255859 65.16402344 28.37890625 66.3515625 C36.2431735 79.19969068 54.87570491 87.10396337 69 91 C73.80999874 92.04157658 78.65454807 92.78082418 83.52734375 93.45703125 C87 94 87 94 88 95 C99.2143684 96.57454892 110.73387092 96.17238915 122.02856445 96.20532227 C124.12897934 96.21491808 126.22939237 96.22492911 128.32980347 96.23532104 C133.99619629 96.2621918 139.66259729 96.28329709 145.32901788 96.30332303 C151.26405313 96.32529348 157.1990637 96.35262772 163.13407898 96.37937927 C174.35695252 96.42915741 185.57983988 96.47415102 196.80274028 96.51740164 C209.58636989 96.56690172 222.36997471 96.62177221 235.15358031 96.67708123 C261.43569705 96.79067267 287.71783759 96.89756084 314 97 C314 97.33 314 97.66 314 98 C279.80792664 98.16035845 245.6159394 98.28363665 211.42357098 98.35745731 C207.38329149 98.36621184 203.34301275 98.37527214 199.30273438 98.38452148 C198.49841611 98.38635766 197.69409785 98.38819383 196.8654063 98.39008565 C183.85627994 98.42051259 170.84737096 98.47568662 157.83837339 98.54006957 C144.48158244 98.60562055 131.12490503 98.64443049 117.76795983 98.65861946 C109.53144815 98.66820578 101.295551 98.6984391 93.05922857 98.75541527 C87.404809 98.79252889 81.75070531 98.80357566 76.0961729 98.79450964 C72.83757984 98.79004294 69.58027738 98.80057259 66.32182693 98.83443832 C41.45488929 99.08014936 41.45488929 99.08014936 32 91 C30.70721464 90.04745979 29.41325781 89.09650322 28.1171875 88.1484375 C27.02454751 87.23806663 25.94359164 86.31348237 24.875 85.375 C24.29153809 84.86485352 23.70807617 84.35470703 23.10693359 83.82910156 C17.15214098 78.46439408 12.45153901 72.65920826 8 66 C7.27925293 64.92911133 6.55850586 63.85822266 5.81591797 62.75488281 C-1.69540089 50.41391694 -0.92371621 38.04259487 -0.5 24 C-0.4597822 21.6641242 -0.42329624 19.32818104 -0.390625 16.9921875 C-0.30338362 11.32662991 -0.17027985 5.66363896 0 0 Z " fill="#000304" transform="translate(0,320)"/>
<path d="M0 0 C0.99 0.33 1.98 0.66 3 1 C-3.37382805 6.43027042 -10.33278547 9.73487442 -18 13 C-18.67675781 13.309375 -19.35351562 13.61875 -20.05078125 13.9375 C-32.82039787 19.37378911 -48.31081546 20.15402126 -62.02070618 20.14044189 C-63.45687476 20.14489858 -63.45687476 20.14489858 -64.92205685 20.1494453 C-68.10340181 20.15805836 -71.2847088 20.15963425 -74.46606445 20.16113281 C-76.75856098 20.16576636 -79.05105675 20.17079173 -81.34355164 20.17617798 C-87.55491492 20.1892553 -93.76626741 20.1957382 -99.9776423 20.20018864 C-103.86710201 20.20312789 -107.75655883 20.20723435 -111.64601707 20.21169281 C-122.44567537 20.22379451 -133.24533047 20.23417806 -144.04499531 20.2375679 C-144.73471755 20.23778747 -145.42443979 20.23800703 -146.13506271 20.23823325 C-147.17192582 20.23856067 -147.17192582 20.23856067 -148.22973567 20.2388947 C-149.63012652 20.23933814 -151.03051736 20.23978471 -152.4309082 20.24023438 C-153.12552975 20.2404558 -153.82015131 20.24067723 -154.535822 20.24090537 C-165.766319 20.2448451 -176.99675079 20.26227695 -188.22722266 20.2855939 C-199.7978413 20.30942011 -211.36842415 20.32151794 -222.93906754 20.32293582 C-229.41911125 20.32397848 -235.89906291 20.32977025 -242.37908363 20.34775543 C-248.48508142 20.36437339 -254.59091934 20.36632577 -260.69693184 20.35761642 C-262.92151572 20.35685325 -265.1461087 20.36109211 -267.37067032 20.37107468 C-292.81754368 20.47844571 -316.87246725 18.40332437 -338 3 C-338.33 2.34 -338.66 1.68 -339 1 C-336.525 1.495 -336.525 1.495 -334 2 C-333.67 2.99 -333.34 3.98 -333 5 C-331.35 5 -329.7 5 -328 5 C-328 5.66 -328 6.32 -328 7 C-324.46588679 9.12046792 -321.05606165 9.53199289 -317 10 C-317 10.66 -317 11.32 -317 12 C-314.00199062 12.67696986 -311.0024484 13.34321441 -308 14 C-307.195625 14.17917969 -306.39125 14.35835938 -305.5625 14.54296875 C-279.23281063 20.15490575 -250.87639144 18.15232944 -224.09447598 18.1343255 C-219.04914377 18.13175143 -214.00381315 18.13415355 -208.95848083 18.13571167 C-200.4837918 18.13752039 -192.00911153 18.13516297 -183.53442383 18.13037109 C-173.83136047 18.1249469 -164.12831819 18.126683 -154.42525536 18.1321975 C-146.00648909 18.13678506 -137.58772906 18.13735154 -129.16896194 18.13475883 C-124.17996022 18.13322462 -119.19096828 18.13292109 -114.20196724 18.13629532 C-96.17511573 18.14668287 -78.14845149 18.13684788 -60.12642658 17.67265296 C-58.67930986 17.6357315 -57.2321155 17.60172312 -55.78485787 17.57081437 C-53.82298955 17.5271546 -51.8614667 17.46870401 -49.90000916 17.40939331 C-48.80207 17.37881773 -47.70413084 17.34824215 -46.5729208 17.31674004 C-43.83763806 17.24791307 -43.83763806 17.24791307 -42 15 C-39.27130593 15.03287583 -36.7033382 15.56397771 -34 16 C-34 15.34 -34 14.68 -34 14 C-33.09121094 13.97873047 -33.09121094 13.97873047 -32.1640625 13.95703125 C-25.06878209 13.55314606 -20.16443927 11.3774911 -14 8 C-10.93872137 6.56008691 -7.94966094 5.19992862 -4.625 4.5 C-4.08875 4.335 -3.5525 4.17 -3 4 C-2.67 3.01 -2.34 2.02 -2 1 C-1.34 0.67 -0.68 0.34 0 0 Z " fill="#0B849B" transform="translate(378,395)"/>
<path d="M0 0 C0.33 0 0.66 0 1 0 C1.33 75.24 1.66 150.48 2 228 C-1.51837845 220.96324311 -2.29611996 214.69487662 -2.20927429 206.97184753 C-2.20677059 205.6600745 -2.20677059 205.6600745 -2.2042163 204.32180101 C-2.19618187 201.40996464 -2.17366287 198.49842735 -2.15112305 195.58666992 C-2.14232819 193.49186541 -2.13441634 191.39705704 -2.12731934 189.30224609 C-2.10546355 183.62700503 -2.07091033 177.95190567 -2.03379035 172.27674651 C-1.99682704 166.33779468 -1.97065185 160.39879453 -1.94306946 154.45979309 C-1.89517077 144.49243595 -1.83941131 134.52514739 -1.77856445 124.55786133 C-1.70822084 113.02549707 -1.64843904 101.49311682 -1.59470528 89.96066397 C-1.53742483 77.68747635 -1.47263934 65.41433683 -1.40554833 53.14119935 C-1.38669284 49.60060384 -1.36922679 46.06000369 -1.3520565 42.51939964 C-1.32473634 36.96505995 -1.29238846 31.41077155 -1.25609589 25.85648346 C-1.243518 23.81463652 -1.23262098 21.77277846 -1.22349739 19.73091316 C-1.21078433 16.95163585 -1.19203584 14.17246452 -1.17167664 11.39323425 C-1.16933429 10.57865775 -1.16699194 9.76408124 -1.16457862 8.9248206 C-1.13540039 5.69285602 -1.02934925 3.08804774 0 0 Z " fill="#00242F" transform="translate(2,104)"/>
<path d="M0 0 C1.8871875 -0.00386719 1.8871875 -0.00386719 3.8125 -0.0078125 C7 0.125 7 0.125 9 1.125 C9 1.785 9 2.445 9 3.125 C10.98 3.455 12.96 3.785 15 4.125 C15.66 7.425 16.32 10.725 17 14.125 C19.475 14.62 19.475 14.62 22 15.125 C22.1546875 16.0840625 22.1546875 16.0840625 22.3125 17.0625 C22.539375 17.743125 22.76625 18.42375 23 19.125 C23.99 19.455 24.98 19.785 26 20.125 C26.94220126 25.65208611 27.12116149 30.96258352 27.0625 36.5625 C27.05798828 37.38943359 27.05347656 38.21636719 27.04882812 39.06835938 C27.03715811 41.08727146 27.01922718 43.10614574 27 45.125 C26.34 45.125 25.68 45.125 25 45.125 C25.08701172 43.56652344 25.08701172 43.56652344 25.17578125 41.9765625 C25.5121547 33.35298235 25.41891814 26.33069655 20 19.125 C17.3743391 16.68598872 17.3743391 16.68598872 15 15.125 C15 14.465 15 13.805 15 13.125 C14.236875 12.980625 13.47375 12.83625 12.6875 12.6875 C10 12.125 10 12.125 7 11.125 C-5.38970038 10.39089315 -5.38970038 10.39089315 -17 14.125 C-17.59941406 14.41890625 -18.19882812 14.7128125 -18.81640625 15.015625 C-24.12201351 18.08668925 -27.64328247 22.99287406 -29.52392578 28.79638672 C-31.39139755 37.93071784 -30.40146404 47.86456287 -30 57.125 C-30.66 57.125 -31.32 57.125 -32 57.125 C-32.02476851 52.92578534 -32.04289246 48.72660971 -32.05493164 44.52734375 C-32.05995206 43.09960184 -32.06676972 41.67186504 -32.07543945 40.24414062 C-32.08760553 38.18878921 -32.09325128 36.13350593 -32.09765625 34.078125 C-32.10289307 32.84223633 -32.10812988 31.60634766 -32.11352539 30.33300781 C-32.02071737 27.7104329 -31.78356673 25.60855406 -31 23.125 C-30.34 23.125 -29.68 23.125 -29 23.125 C-28.87625 22.361875 -28.7525 21.59875 -28.625 20.8125 C-28 18.125 -28 18.125 -26 15.125 C-25.01 15.125 -24.02 15.125 -23 15.125 C-23 14.135 -23 13.145 -23 12.125 C-15.375 10.125 -15.375 10.125 -12 10.125 C-11.67 8.805 -11.34 7.485 -11 6.125 C-9.68 6.125 -8.36 6.125 -7 6.125 C-7 5.135 -7 4.145 -7 3.125 C-7.66 2.465 -8.32 1.805 -9 1.125 C-6.02760209 -0.36119895 -3.30380422 -0.00677009 0 0 Z " fill="#B5DFEB" transform="translate(311,112.875)"/>
<path d="M0 0 C0.33 0 0.66 0 1 0 C0.99907821 1.15053958 0.99815641 2.30107916 0.99720669 3.48648357 C0.97548225 30.88532153 0.95902633 58.28415862 0.94893467 85.68300344 C0.94768418 89.06576858 0.94638983 92.44853371 0.94506836 95.83129883 C0.94480605 96.50465986 0.94454374 97.1780209 0.94427348 97.87178681 C0.93993898 108.73106702 0.93206381 119.59034186 0.9228472 130.4496189 C0.91344862 141.61763213 0.90800604 152.78564355 0.90591151 163.95366079 C0.90461463 170.21584397 0.90159415 176.47801504 0.89426994 182.74019432 C0.88741398 188.65067101 0.88540225 194.56113074 0.88689232 200.47161102 C0.88662025 202.62523046 0.88467252 204.77885054 0.88079453 206.93246651 C0.86269929 217.51262574 0.96266285 228.06829096 1.44459534 238.63887024 C1.48339087 239.50937679 1.52218641 240.37988333 1.56215757 241.27676886 C1.76651029 245.28081208 2.08157323 249.08394906 3 253 C3.31992838 255.12389432 3.63198006 257.24898523 3.9375 259.375 C4.76974946 264.81521891 5.75200703 269.97884054 7.86328125 275.08984375 C8.65877887 277.02777408 9.33755072 279.01265217 10 281 C9.34 281.99 8.68 282.98 8 284 C-0.73777968 263.55270847 -1.30245362 243.25614977 -1.24291992 221.32763672 C-1.24399535 219.00301561 -1.24593788 216.67839477 -1.24867249 214.35377502 C-1.25347971 208.09621189 -1.24591897 201.83872113 -1.23571944 195.58116674 C-1.22687848 189.01196735 -1.2286975 182.44276981 -1.2290802 175.87356567 C-1.22850014 164.85710486 -1.2195579 153.84067041 -1.20581055 142.82421875 C-1.19169517 131.50683084 -1.18464134 120.18946715 -1.18530273 108.87207031 C-1.18534269 108.17340461 -1.18538265 107.47473891 -1.18542381 106.75490151 C-1.18546417 106.05739416 -1.18550452 105.3598868 -1.1855461 104.64124286 C-1.18627151 91.06083581 -1.17928449 77.48044214 -1.1700995 63.90003824 C-1.16797068 59.99572486 -1.16725869 56.09141336 -1.16686058 52.18709946 C-1.1658553 46.05562931 -1.15974349 39.92418449 -1.14969444 33.7927227 C-1.14677748 31.54493935 -1.14554245 29.29715308 -1.14612198 27.0493679 C-1.14661401 23.97900128 -1.14094408 20.90870517 -1.13371277 17.83834839 C-1.13526137 16.95177453 -1.13680997 16.06520067 -1.1384055 15.15176094 C-1.11845405 10.01365726 -0.73870526 5.08619834 0 0 Z " fill="#0E99AD" transform="translate(4,81)"/>
<path d="M0 0 C0.99 0 1.98 0 3 0 C1.84312114 6.36283376 -1.36857377 10.86691925 -5.02734375 16.1328125 C-6.79783471 18.70615976 -8.41592917 21.30966231 -10 24 C-10.50660156 24.81339844 -11.01320313 25.62679687 -11.53515625 26.46484375 C-14.29640165 30.93509526 -16.37125064 34.98846351 -18 40 C-18.99 40.66 -19.98 41.32 -21 42 C-22.08888805 44.20619972 -22.08888805 44.20619972 -22.9375 46.75 C-24.12508826 49.93055246 -25.17033375 52.24548099 -27.125 55.0625 C-29.22968526 58.35984024 -29.85246991 61.04245068 -30.5625 64.83984375 C-31 67 -31 67 -32.125 70.0625 C-33.67566185 75.26829336 -33.717453 79.38573075 -31.5 84.375 C-31.005 85.24125 -30.51 86.1075 -30 87 C-30 87.66 -30 88.32 -30 89 C-29.13375 89.0928125 -29.13375 89.0928125 -28.25 89.1875 C-25.0963115 90.32633196 -24.03751849 92.36321136 -22 95 C-20.06265067 96.76079287 -18.05075847 98.36871486 -16 100 C-16.99 100.99 -16.99 100.99 -18 102 C-20.04119788 100.38405168 -22.04072937 98.7143618 -24 97 C-24 96.34 -24 95.68 -24 95 C-24.75796875 94.76152344 -25.5159375 94.52304687 -26.296875 94.27734375 C-29.44554102 92.78946255 -30.42558258 91.48636897 -32.25 88.5625 C-32.75015625 87.78003906 -33.2503125 86.99757813 -33.765625 86.19140625 C-37.41913595 79.70526814 -36.85881039 71.59804923 -35.17578125 64.546875 C-32.59112254 56.59112254 -32.59112254 56.59112254 -30 54 C-29.40831023 52.57803587 -28.86589557 51.13533074 -28.3515625 49.68359375 C-25.76967821 43.03027653 -22.10157003 37.12710008 -18.375 31.0625 C-17.694375 29.94037109 -17.01375 28.81824219 -16.3125 27.66210938 C-11.53916879 19.80875319 -11.53916879 19.80875319 -9 16 C-8.34 16 -7.68 16 -7 16 C-6.89816406 15.29488281 -6.79632813 14.58976563 -6.69140625 13.86328125 C-5.90085188 10.58940355 -4.59476266 8.11415533 -2.9375 5.1875 C-2.11572266 3.72376953 -2.11572266 3.72376953 -1.27734375 2.23046875 C-0.85582031 1.49441406 -0.43429687 0.75835937 0 0 Z " fill="#2198A5" transform="translate(350,192)"/>
<path d="M0 0 C0 0.33 0 0.66 0 1 C-0.54478752 0.99631283 -1.08957504 0.99262566 -1.65087128 0.98882675 C-15.02824189 0.89972603 -28.40555916 0.83418859 -41.78316498 0.79275131 C-48.25301812 0.77202764 -54.72265441 0.74399378 -61.19238281 0.69824219 C-67.45591815 0.65423454 -73.7192472 0.63074906 -79.98292542 0.62049103 C-82.35229228 0.61319686 -84.72165006 0.59895923 -87.09092712 0.57707977 C-103.14004711 0.43499733 -118.26223113 1.8245235 -134 5 C-134.92420494 5.18477779 -135.84840988 5.36955559 -136.80062103 5.55993271 C-137.88931362 5.77776602 -137.88931362 5.77776602 -139 6 C-138.67 5.01 -138.34 4.02 -138 3 C-130.90961228 1.49025965 -124.24997422 0.71692075 -117 1 C-117 0.34 -117 -0.32 -117 -1 C-99.19322404 -1.86482215 -81.38705303 -2.41628358 -63.5625 -2.75 C-62.88546776 -2.76305553 -62.20843552 -2.77611107 -61.51088715 -2.78956223 C-40.85545146 -3.18205234 -20.4825411 -3.05369552 0 0 Z " fill="#3CCBD6" transform="translate(240,76)"/>
<path d="M0 0 C0.99 0 1.98 0 3 0 C3.495 2.475 3.495 2.475 4 5 C2.35 5.33 0.7 5.66 -1 6 C-1.10054688 6.54011719 -1.20109375 7.08023437 -1.3046875 7.63671875 C-3.55798453 15.29539687 -8.62717151 22.21852656 -14.453125 27.5546875 C-16.1784268 29.08409574 -16.1784268 29.08409574 -17.9375 31.5625 C-20.40667709 34.48061837 -23.17791571 36.47760678 -26.29296875 38.66796875 C-28.13242437 39.90649246 -28.13242437 39.90649246 -29 42 C-30.32 42 -31.64 42 -33 42 C-33 43.32 -33 44.64 -33 46 C-34.051875 46.0825 -35.10375 46.165 -36.1875 46.25 C-40.36869196 47.07252957 -41.78131771 48.35902992 -45 51 C-48.3125 51.75 -48.3125 51.75 -51 52 C-51 52.66 -51 53.32 -51 54 C-52.875 54.625 -52.875 54.625 -55 55 C-55.66 54.34 -56.32 53.68 -57 53 C-56.33468262 52.66266846 -55.66936523 52.32533691 -54.98388672 51.9777832 C-51.94349666 50.43058837 -48.90926371 48.87167286 -45.875 47.3125 C-44.82828125 46.78205078 -43.7815625 46.25160156 -42.703125 45.70507812 C-37.23816878 42.88612919 -32.60040174 40.06494514 -28 36 C-27.34 36 -26.68 36 -26 36 C-26 35.34 -26 34.68 -26 34 C-24.56640625 32.66015625 -24.56640625 32.66015625 -22.5625 31.0625 C-12.63201519 22.59082977 -5.54949198 11.71559418 0 0 Z " fill="#126A7C" transform="translate(301,302)"/>
<path d="M0 0 C0.495 0.99 0.495 0.99 1 2 C-0.1796875 4.2421875 -0.1796875 4.2421875 -1.875 6.875 C-4.13661877 10.31017227 -4.13661877 10.31017227 -5.5078125 14.1328125 C-6 16 -6 16 -7.34570312 17.31738281 C-9.30378389 19.30898444 -10.54941446 21.37917859 -11.9609375 23.7890625 C-12.51523437 24.73136719 -13.06953125 25.67367187 -13.640625 26.64453125 C-14.21296875 27.62808594 -14.7853125 28.61164063 -15.375 29.625 C-15.93960937 30.58535156 -16.50421875 31.54570312 -17.0859375 32.53515625 C-23.66876836 43.45586561 -23.66876836 43.45586561 -29 55 C-29.66 55.99 -30.32 56.98 -31 58 C-34.76047878 66.93544959 -35.15718093 76.58842837 -33 86 C-33.99 85.67 -34.98 85.34 -36 85 C-36.1972935 81.58382503 -36.38112295 78.16705407 -36.5625 74.75 C-36.61857422 73.78191406 -36.67464844 72.81382812 -36.73242188 71.81640625 C-36.78076172 70.88183594 -36.82910156 69.94726562 -36.87890625 68.984375 C-36.9260376 68.12553711 -36.97316895 67.26669922 -37.02172852 66.38183594 C-37.00066921 64.07335735 -36.66206871 62.20243733 -36 60 C-35.34 60 -34.68 60 -34 60 C-33.34 58.02 -32.68 56.04 -32 54 C-31.34 54 -30.68 54 -30 54 C-29.9175 52.7625 -29.835 51.525 -29.75 50.25 C-29.26664327 46.21254968 -28.08466161 44.69907891 -25 42 C-24.63837971 40.67405895 -24.30271961 39.34061543 -24 38 C-23.55140625 37.57203125 -23.1028125 37.1440625 -22.640625 36.703125 C-20.61477417 34.6000989 -19.57485564 32.43956445 -18.3125 29.8125 C-17.87550781 28.91144531 -17.43851562 28.01039063 -16.98828125 27.08203125 C-16.66214844 26.39496094 -16.33601563 25.70789063 -16 25 C-15.34 25 -14.68 25 -14 25 C-13.896875 23.88625 -13.79375 22.7725 -13.6875 21.625 C-13.460625 20.42875 -13.23375 19.2325 -13 18 C-12.01 17.34 -11.02 16.68 -10 16 C-9.27544365 14.35767228 -8.62225605 12.68375165 -8 11 C-4.27228826 2.44130758 -4.27228826 2.44130758 0 0 Z " fill="#9FD9EB" transform="translate(349,192)"/>
<path d="M0 0 C1.06154297 -0.0309375 1.06154297 -0.0309375 2.14453125 -0.0625 C6.64241277 -0.09600377 9.58977935 0.39409626 13.125 3.25 C13.125 3.91 13.125 4.57 13.125 5.25 C12.46113281 5.09015625 11.79726563 4.9303125 11.11328125 4.765625 C2.25229315 3.23667019 -7.82236483 3.00406509 -15.875 7.25 C-16.47441406 7.54390625 -17.07382812 7.8378125 -17.69140625 8.140625 C-22.99701351 11.21168925 -26.51828247 16.11787406 -28.39892578 21.92138672 C-30.26639755 31.05571784 -29.27646404 40.98956287 -28.875 50.25 C-29.535 50.25 -30.195 50.25 -30.875 50.25 C-30.89976851 46.05078534 -30.91789246 41.85160971 -30.92993164 37.65234375 C-30.93495206 36.22460184 -30.94176972 34.79686504 -30.95043945 33.36914062 C-30.96260553 31.31378921 -30.96825128 29.25850593 -30.97265625 27.203125 C-30.97789307 25.96723633 -30.98312988 24.73134766 -30.98852539 23.45800781 C-30.89571737 20.8354329 -30.65856673 18.73355406 -29.875 16.25 C-29.215 16.25 -28.555 16.25 -27.875 16.25 C-27.75125 15.486875 -27.6275 14.72375 -27.5 13.9375 C-26.875 11.25 -26.875 11.25 -24.875 8.25 C-23.885 8.25 -22.895 8.25 -21.875 8.25 C-21.875 7.26 -21.875 6.27 -21.875 5.25 C-14.25 3.25 -14.25 3.25 -10.875 3.25 C-10.875 2.59 -10.875 1.93 -10.875 1.25 C-7.21649645 0.03049882 -3.81096431 0.02746641 0 0 Z " fill="#A6DEEE" transform="translate(309.875,119.75)"/>
<path d="M0 0 C0.66 0 1.32 0 2 0 C1.34 2.64 0.68 5.28 0 8 C-0.66 8 -1.32 8 -2 8 C-2.226875 8.763125 -2.45375 9.52625 -2.6875 10.3125 C-3.79690587 13.4294022 -5.04190378 16.31953462 -6.4375 19.3125 C-12.58275027 32.68745647 -14.30973039 44.96856062 -14.125 59.625 C-14.11494398 61.02473314 -14.10582279 62.42447331 -14.09765625 63.82421875 C-14.07426238 67.21632925 -14.04148173 70.6080706 -14 74 C-13.34 74 -12.68 74 -12 74 C-10.68 79.94 -9.36 85.88 -8 92 C-8.66 92 -9.32 92 -10 92 C-11.31626692 88.38026598 -12 85.90432869 -12 82 C-12.66 82 -13.32 82 -14 82 C-19.34630727 64.9109107 -18.46963905 43.32054957 -11.90234375 26.54296875 C-10.89814825 23.71296325 -10.42029763 20.9680812 -10 18 C-9.34 18 -8.68 18 -8 18 C-7.896875 17.443125 -7.79375 16.88625 -7.6875 16.3125 C-7 14 -7 14 -5.5625 11.6875 C-3.74137187 8.55515962 -2.89178977 5.49855986 -2 2 C-1.34 2 -0.68 2 0 2 C0 1.34 0 0.68 0 0 Z " fill="#0F95A3" transform="translate(115,210)"/>
<path d="M0 0 C1.875 0.5625 1.875 0.5625 4 2 C5.86648685 7.12957575 6.3192793 11.85750791 6.25 17.3125 C6.24395752 18.08650146 6.23791504 18.86050293 6.23168945 19.65795898 C6.05668488 30.1720217 5.83164876 41.76763354 1.92919922 51.63867188 C1.05937249 53.84911963 0.2541238 56.06952453 -0.52734375 58.3125 C-2.00686554 62.54577077 -3.50066069 66.77370698 -5 71 C-5.66 71 -6.32 71 -7 71 C-7.66 72.32 -8.32 73.64 -9 75 C-7.75939622 68.10072386 -5.70084471 61.08671818 -2.3125 54.9375 C-0.31226125 50.46077517 -0.25052249 45.85495299 0 41 C0.99 41 1.98 41 3 41 C2.90460938 40.35933594 2.80921875 39.71867187 2.7109375 39.05859375 C1.98587367 33.40140965 2.0194911 29.35902409 4 24 C3.34 24 2.68 24 2 24 C2 23.34 2 22.68 2 22 C2.66 21.67 3.32 21.34 4 21 C4.54071112 12.49883065 4.54071112 12.49883065 1 5 C0.3125 2.1875 0.3125 2.1875 0 0 Z " fill="#1FA3B2" transform="translate(128,131)"/>
<path d="M0 0 C2.06160452 0.00119485 4.1232096 0.00164432 6.18481445 0.00138855 C10.48815359 0.00294524 14.79140859 0.01117155 19.09472656 0.0246582 C24.58165241 0.04164653 30.06848611 0.04547193 35.55543518 0.04471302 C39.80734113 0.04498632 44.05922736 0.05049315 48.31112671 0.05771446 C50.3331182 0.06087266 52.35511189 0.06286179 54.37710571 0.06360817 C79.13848431 0.08276198 79.13848431 0.08276198 84.6875 1.23046875 C85.1825 2.22046875 85.1825 2.22046875 85.6875 3.23046875 C81.26108779 4.13052829 77.37105297 4.23570637 72.875 3.85546875 C71.73417969 3.76523438 70.59335938 3.675 69.41796875 3.58203125 C66.6875 3.23046875 66.6875 3.23046875 65.6875 2.23046875 C63.19909893 2.13009907 60.73843643 2.09429172 58.24951172 2.10107422 C57.47057053 2.0993219 56.69162933 2.09756958 55.88908386 2.09576416 C53.29842945 2.09134197 50.70784268 2.09428661 48.1171875 2.09765625 C46.31934598 2.09698291 44.52150454 2.09601262 42.72366333 2.09475708 C38.9456496 2.09327928 35.16765944 2.09543577 31.38964844 2.10009766 C26.55770405 2.1057705 21.72581551 2.10253205 16.89387321 2.09652519 C13.17572616 2.09290082 9.45759219 2.09406721 5.73944473 2.09665298 C3.95893472 2.09731834 2.1784235 2.09650754 0.39791489 2.09417343 C-2.10080324 2.09161887 -4.59943295 2.09552794 -7.09814453 2.10107422 C-7.82881638 2.09904999 -8.55948822 2.09702576 -9.31230164 2.09494019 C-13.73347982 2.11301545 -17.94847732 2.54696327 -22.3125 3.23046875 C-24.29078849 3.29299367 -26.27087451 3.3174024 -28.25 3.29296875 C-29.20777344 3.28394531 -30.16554688 3.27492188 -31.15234375 3.265625 C-31.86519531 3.25402344 -32.57804687 3.24242188 -33.3125 3.23046875 C-33.3125 2.90046875 -33.3125 2.57046875 -33.3125 2.23046875 C-22.26442542 -0.29868544 -11.26770145 -0.04337509 0 0 Z " fill="#C6F9FC" transform="translate(151.3125,75.76953125)"/>
<path d="M0 0 C3.41770325 5.12655488 3.18220825 10.29577667 3.1875 16.3125 C3.19974609 17.03373047 3.21199219 17.75496094 3.22460938 18.49804688 C3.25872137 31.17633801 -2.19955403 43.45850225 -7 55 C-7.66 55 -8.32 55 -9 55 C-9.33 56.32 -9.66 57.64 -10 59 C-11.41687119 54.74938644 -10.19320039 52.28148375 -9 48 C-8.34 48 -7.68 48 -7 48 C-7 47.01 -7 46.02 -7 45 C-6.34 45 -5.68 45 -5 45 C-5 43.02 -5 41.04 -5 39 C-4.01 38.505 -4.01 38.505 -3 38 C0.13892032 27.61899554 0.61953439 15.62980113 -1 5 C-0.5625 2.0625 -0.5625 2.0625 0 0 Z " fill="#A6E1EC" transform="translate(361,133)"/>
<path d="M0 0 C0.33 0 0.66 0 1 0 C1.05534912 1.18553467 1.11069824 2.37106934 1.16772461 3.5925293 C1.37451371 8.0002682 1.58629171 12.40775581 1.79956055 16.81518555 C1.89108717 18.72104533 1.9812694 20.62697017 2.07006836 22.53295898 C2.19810368 25.27606215 2.33100723 28.01889326 2.46484375 30.76171875 C2.50343002 31.61086349 2.5420163 32.46000824 2.58177185 33.33488464 C2.78083872 37.32186515 3.08631467 41.09995892 4 45 C4.31992838 47.12389432 4.63198006 49.24898523 4.9375 51.375 C5.76974946 56.81521891 6.75200703 61.97884054 8.86328125 67.08984375 C9.65877887 69.02777408 10.33755072 71.01265217 11 73 C10.34 73.99 9.68 74.98 9 76 C0.83159047 56.88509242 -0.34107856 37.90654053 -0.125 17.375 C-0.11492817 15.67448457 -0.1058099 13.97396321 -0.09765625 12.2734375 C-0.07602587 8.18214017 -0.04173977 4.09113952 0 0 Z " fill="#0A8EA2" transform="translate(3,289)"/>
<path d="M0 0 C1.77305664 0.25587405 3.54344608 0.53027739 5.3125 0.8125 C6.79169922 1.03873047 6.79169922 1.03873047 8.30078125 1.26953125 C11.18650108 2.05047135 12.08719257 2.79824884 14 5 C15.65438613 5.69658363 17.32254318 6.36096883 19 7 C20.68029994 7.97691857 22.34928604 8.97388051 24 10 C24.66 10.33 25.32 10.66 26 11 C26 11.66 26 12.32 26 13 C26.7425 13.2475 27.485 13.495 28.25 13.75 C31.23023087 15.10465039 32.89919252 16.5101541 35 19 C35 19.66 35 20.32 35 21 C35.99 21.33 36.98 21.66 38 22 C39.1875 25.0625 39.1875 25.0625 40 28 C37.4259052 26.01426972 35.04945197 24.0522778 32.8125 21.6875 C28.88175328 17.93145313 24.51474112 15.01196811 20 12 C19.08347656 11.38511719 18.16695312 10.77023438 17.22265625 10.13671875 C11.67737853 6.5046785 6.16310197 3.45002325 0 1 C0 0.67 0 0.34 0 0 Z " fill="#8ED2E5" transform="translate(90,102)"/>
<path d="M0 0 C0.33 0 0.66 0 1 0 C1.03738281 1.31613281 1.07476562 2.63226563 1.11328125 3.98828125 C1.41418376 12.55788676 1.6971328 20.5715155 4.3671875 28.7890625 C5.27534116 31.96199441 5.21837278 34.72440823 5 38 C6.32 38.66 7.64 39.32 9 40 C8.67 41.98 8.34 43.96 8 46 C8.99 46.33 9.98 46.66 11 47 C11.66 50.3 12.32 53.6 13 57 C6.3362305 49.1995534 3.24824743 40.20071268 3 30 C2.34 30 1.68 30 1 30 C0.25015295 25.99908596 -0.1195296 22.23250483 -0.09765625 18.1640625 C-0.09443359 17.10058594 -0.09121094 16.03710938 -0.08789062 14.94140625 C-0.07951172 13.84699219 -0.07113281 12.75257813 -0.0625 11.625 C-0.05798828 10.50738281 -0.05347656 9.38976562 -0.04882812 8.23828125 C-0.03709244 5.49213196 -0.02067363 2.74609414 0 0 Z " fill="#86CEDF" transform="translate(100,254)"/>
<path d="M0 0 C1.17571451 3.67410785 1.07366746 7.16929183 1 11 C1.33 11 1.66 11 2 11 C2.99 23.54 3.98 36.08 5 49 C-2.89695499 37.15456752 -2.19442674 16.67742177 -1 3 C-0.67 2.01 -0.34 1.02 0 0 Z " fill="#2AA3AE" transform="translate(281,141)"/>
<path d="M0 0 C0.99 0 1.98 0 3 0 C3.33 1.65 3.66 3.3 4 5 C2.35 5.33 0.7 5.66 -1 6 C-1.10054688 6.54011719 -1.20109375 7.08023437 -1.3046875 7.63671875 C-4.4575089 18.35276903 -12.34078256 26.43998678 -21 33 C-21.66 32.67 -22.32 32.34 -23 32 C-22.21496094 31.18917969 -21.42992187 30.37835938 -20.62109375 29.54296875 C-12.01194635 20.52118546 -5.34259983 11.32631165 0 0 Z " fill="#237F90" transform="translate(301,302)"/>
<path d="M0 0 C3.94498239 1.26803006 5.11832614 3.65247343 7 7.1953125 C8.91642729 10.65386488 11.42909524 13.4449537 14.25 16.1875 C16 18 16 18 16 20 C16.99 20.33 17.98 20.66 19 21 C19.45375 21.474375 19.9075 21.94875 20.375 22.4375 C22.38576214 24.37092514 24.39052205 25.0831564 27 26 C27 26.99 27 27.98 27 29 C28.32 29.33 29.64 29.66 31 30 C30.67 30.66 30.34 31.32 30 32 C23.73076894 29.89166429 19.71223255 25.47662092 15 21 C14.319375 20.360625 13.63875 19.72125 12.9375 19.0625 C9.39340278 15.64061303 6.60147089 12.21617696 4 8 C3.2575 6.9275 2.515 5.855 1.75 4.75 C0 2 0 2 0 0 Z " fill="#79BED5" transform="translate(113,311)"/>
<path d="M0 0 C0.66 0 1.32 0 2 0 C1.34 2.64 0.68 5.28 0 8 C-0.66 8 -1.32 8 -2 8 C-2.226875 8.763125 -2.45375 9.52625 -2.6875 10.3125 C-3.79690587 13.4294022 -5.04190378 16.31953462 -6.4375 19.3125 C-9.89503245 26.83951756 -12.24854327 33.73397592 -13 42 C-15 39 -15 39 -14.3125 35.0625 C-13.88575336 33.3722486 -13.44690054 31.68503484 -13 30 C-12.4571332 27.81279753 -11.91548308 25.62529274 -11.375 23.4375 C-10.91784036 21.62470361 -10.45992316 19.81209723 -10 18 C-9.34 18 -8.68 18 -8 18 C-7.8453125 17.1646875 -7.8453125 17.1646875 -7.6875 16.3125 C-7 14 -7 14 -5.5625 11.6875 C-3.74137187 8.55515962 -2.89178977 5.49855986 -2 2 C-1.34 2 -0.68 2 0 2 C0 1.34 0 0.68 0 0 Z " fill="#1AA5B6" transform="translate(115,210)"/>
<path d="M0 0 C1.28712891 0.00064453 2.57425781 0.00128906 3.90039062 0.00195312 C13.40641596 0.04695798 13.40641596 0.04695798 15.6875 1.1875 C15.6875 1.8475 15.6875 2.5075 15.6875 3.1875 C14.49125 3.0225 13.295 2.8575 12.0625 2.6875 C-1.23109666 1.24299895 -12.99785692 2.0574174 -25.28125 7.3828125 C-27.3125 8.1875 -27.3125 8.1875 -29.3125 8.1875 C-28.9825 7.1975 -28.6525 6.2075 -28.3125 5.1875 C-25.93466989 3.99858495 -23.80724052 3.04143448 -21.3125 2.1875 C-20.37277344 1.83171875 -19.43304688 1.4759375 -18.46484375 1.109375 C-12.49066524 -0.56559114 -6.14533589 -0.05936013 0 0 Z " fill="#2FC1CE" transform="translate(311.3125,94.8125)"/>
<path d="M0 0 C0.33 0 0.66 0 1 0 C1.33 3.96 1.66 7.92 2 12 C1.34 12 0.68 12 0 12 C0.226875 13.19625 0.45375 14.3925 0.6875 15.625 C1.24657126 19.8709196 0.29029204 22.33553273 -2 26 C-1.34 26.33 -0.68 26.66 0 27 C-4.14285714 34.57142857 -4.14285714 34.57142857 -7 37 C-7.33 36.34 -7.66 35.68 -8 35 C-7.328125 33.3984375 -7.328125 33.3984375 -6.25 31.375 C-1.80163914 21.84719595 -0.72449628 10.39277415 0 0 Z " fill="#BFE9F3" transform="translate(133,158)"/>
<path d="M0 0 C1.98 0 3.96 0 6 0 C5.38125 0.28875 4.7625 0.5775 4.125 0.875 C1.86674235 1.93720042 1.86674235 1.93720042 0 4 C-5.50104212 4.94633155 -10.86750872 5.13734786 -16.4375 5.09765625 C-17.20304199 5.0962413 -17.96858398 5.09482635 -18.75732422 5.09336853 C-21.17159142 5.08782853 -23.58576144 5.07528779 -26 5.0625 C-27.64973823 5.05747723 -29.29947794 5.05291569 -30.94921875 5.04882812 C-34.96618255 5.03787886 -38.98307487 5.02065666 -43 5 C-43 4.67 -43 4.34 -43 4 C-41.5162085 3.970271 -41.5162085 3.970271 -40.00244141 3.93994141 C-36.33827923 3.86396544 -32.67451836 3.77523648 -29.01074219 3.68261719 C-27.42390862 3.64429415 -25.83698719 3.60944712 -24.25 3.578125 C-21.97103434 3.53254569 -19.69267532 3.47454162 -17.4140625 3.4140625 C-16.70255035 3.40251129 -15.99103821 3.39096008 -15.25796509 3.37905884 C-11.17896343 3.36591761 -11.17896343 3.36591761 -8 1 C-5.27130593 1.03287583 -2.7033382 1.56397771 0 2 C0 1.34 0 0.68 0 0 Z " fill="#0991A5" transform="translate(344,409)"/>
<path d="M0 0 C0.33 0 0.66 0 1 0 C1.0543251 3.02107902 1.09382927 6.04116528 1.125 9.0625 C1.14175781 9.91005859 1.15851563 10.75761719 1.17578125 11.63085938 C1.21596135 16.83418201 0.69745815 21.07469821 -1 26 C-1.33 26 -1.66 26 -2 26 C-2.06058594 24.75863281 -2.12117187 23.51726562 -2.18359375 22.23828125 C-2.26803623 20.59634423 -2.35268236 18.95441768 -2.4375 17.3125 C-2.47681641 16.49587891 -2.51613281 15.67925781 -2.55664062 14.83789062 C-2.76898003 10.80344189 -3.04447922 6.94252691 -4 3 C-2.68 3 -1.36 3 0 3 C0 2.01 0 1.02 0 0 Z " fill="#ABDCE7" transform="translate(136,132)"/>
<path d="M0 0 C0.66 0.33 1.32 0.66 2 1 C1.34 1.66 0.68 2.32 0 3 C-1.03485877 5.31808364 -2.0355414 7.65175298 -3 10 C-3.33 10.66 -3.66 11.32 -4 12 C-3.071875 12.2165625 -3.071875 12.2165625 -2.125 12.4375 C0 13 0 13 2 14 C2 14.66 2 15.32 2 16 C-5.875 15.125 -5.875 15.125 -7 14 C-7.5 11.4375 -7.5 11.4375 -7 8 C-4.90958673 5.08909952 -2.52487337 2.53775537 0 0 Z " fill="#C2EBF6" transform="translate(90,86)"/>
<path d="M0 0 C1.875 0.5625 1.875 0.5625 4 2 C6.00241614 7.40722128 6.27875237 12.27511472 6.1875 18 C6.18685547 18.76828125 6.18621094 19.5365625 6.18554688 20.328125 C6.1500287 24.96916599 5.9309596 29.44600653 5 34 C4.01 34.495 4.01 34.495 3 35 C1.39919849 30.99799622 2.70720308 27.95443764 4 24 C3.34 24 2.68 24 2 24 C2 23.34 2 22.68 2 22 C2.66 21.67 3.32 21.34 4 21 C4.54071112 12.49883065 4.54071112 12.49883065 1 5 C0.3125 2.1875 0.3125 2.1875 0 0 Z " fill="#16909B" transform="translate(128,131)"/>
<path d="M0 0 C0.66 0.33 1.32 0.66 2 1 C-1.14667376 11.00404771 -5.96914342 22.97942895 -15 29 C-15 28.01 -15 27.02 -15 26 C-14.01 25.34 -13.02 24.68 -12 24 C-10.55577774 21.59514202 -10.55577774 21.59514202 -9.3125 18.875 C-8.65701172 17.50988281 -8.65701172 17.50988281 -7.98828125 16.1171875 C-7.66214844 15.41851562 -7.33601563 14.71984375 -7 14 C-6.34 14 -5.68 14 -5 14 C-4.67 12.02 -4.34 10.04 -4 8 C-3.34 8 -2.68 8 -2 8 C-1.34 5.36 -0.68 2.72 0 0 Z " fill="#088A9C" transform="translate(408,354)"/>
<path d="M0 0 C0.99 0 1.98 0 3 0 C3.103125 0.639375 3.20625 1.27875 3.3125 1.9375 C3.539375 2.618125 3.76625 3.29875 4 4 C4.99 4.33 5.98 4.66 7 5 C7.94220126 10.52708611 8.12116149 15.83758352 8.0625 21.4375 C8.05798828 22.26443359 8.05347656 23.09136719 8.04882812 23.94335938 C8.03715811 25.96227146 8.01922718 27.98114574 8 30 C7.34 30 6.68 30 6 30 C6.05800781 28.96101563 6.11601562 27.92203125 6.17578125 26.8515625 C6.47991072 18.95746061 6.45564502 12.96475484 2.19140625 6.015625 C0.99728364 3.99540445 0.44877473 2.29029861 0 0 Z " fill="#AFE1F4" transform="translate(330,128)"/>
<path d="M0 0 C13.86 0.495 13.86 0.495 28 1 C28 1.66 28 2.32 28 3 C18.76 3 9.52 3 0 3 C0 2.01 0 1.02 0 0 Z " fill="#085B6D" transform="translate(189,361)"/>
<path d="M0 0 C4.04951184 1.34983728 4.67894389 3.46395061 7 7 C8.84504548 8.97721206 10.68367274 10.87615203 12.625 12.75 C13.35976562 13.47123047 13.35976562 13.47123047 14.109375 14.20703125 C15.40238252 15.47530912 16.70087314 16.73799105 18 18 C18.66 18.66 19.32 19.32 20 20 C16.05023297 19.77429903 15.08405267 19.09405894 12.375 16.0625 C11.199375 14.5465625 11.199375 14.5465625 10 13 C9.01 12.34 8.02 11.68 7 11 C7 10.34 7 9.68 7 9 C4.525 8.01 4.525 8.01 2 7 C2 6.01 2 5.02 2 4 C1.34 4 0.68 4 0 4 C0 2.68 0 1.36 0 0 Z " fill="#136E80" transform="translate(117,320)"/>
<path d="M0 0 C2.05023407 3.0753511 2.59232534 5.06152832 3.375 8.625 C4.51984681 13.51877524 6.07313759 17.72728029 8.42578125 22.16015625 C8.61527344 22.76730469 8.80476562 23.37445313 9 24 C8.34 24.99 7.68 25.98 7 27 C-0.72370849 8.92573801 -0.72370849 8.92573801 0 0 Z " fill="#097E91" transform="translate(5,338)"/>
<path d="M0 0 C1.98 0 3.96 0 6 0 C6.33 0.99 6.66 1.98 7 3 C5.35 2.67 3.7 2.34 2 2 C1.79375 2.78375 1.5875 3.5675 1.375 4.375 C-3.27659574 16.63829787 -3.27659574 16.63829787 -8 19 C-7.55313445 14.08447896 -6.47464264 12.36606006 -3 9 C-2.33652369 6.51599015 -2.33652369 6.51599015 -2 4 C-0.9375 1.6875 -0.9375 1.6875 0 0 Z " fill="#9BD3E8" transform="translate(299,300)"/>
<path d="M0 0 C0.99 0 1.98 0 3 0 C3.33 1.32 3.66 2.64 4 4 C4.5775 4.061875 5.155 4.12375 5.75 4.1875 C8.9036885 5.32633196 9.96248151 7.36321136 12 10 C13.93734933 11.76079287 15.94924153 13.36871486 18 15 C17.34 15.66 16.68 16.32 16 17 C13.95880212 15.38405168 11.95927063 13.7143618 10 12 C10 11.34 10 10.68 10 10 C9.278125 9.814375 8.55625 9.62875 7.8125 9.4375 C3.9884621 7.48299174 2.15128375 4.65260518 0 1 C0 0.67 0 0.34 0 0 Z " fill="#23A0AB" transform="translate(316,277)"/>
<path d="M0 0 C0.33 0 0.66 0 1 0 C1.37753288 5.53714895 1.37753288 5.53714895 -0.3828125 7.6953125 C-2.63241586 10.90126897 -3.24427957 14.36051257 -4.0625 18.125 C-5.74063564 25.74063564 -5.74063564 25.74063564 -8 28 C-8.42891257 21.25437499 -7.02695382 16.30803366 -4.5625 10.0625 C-4.23701172 9.20076172 -3.91152344 8.33902344 -3.57617188 7.45117188 C-1.17900989 1.17900989 -1.17900989 1.17900989 0 0 Z " fill="#91D9E8" transform="translate(110,224)"/>
<path d="M0 0 C0 0.66 0 1.32 0 2 C-0.99 1.75636719 -0.99 1.75636719 -2 1.5078125 C-5.67955215 0.88497164 -9.28127862 0.85441667 -13 0.875 C-13.69867188 0.87113281 -14.39734375 0.86726563 -15.1171875 0.86328125 C-18.87074298 0.87036343 -22.35151145 1.10212977 -26 2 C-19.32400106 -3.7996745 -7.39536274 -4.93024183 0 0 Z " fill="#88D2E4" transform="translate(323,123)"/>
<path d="M0 0 C3.26460973 1.80412643 4.88929795 2.83394693 7 6 C7.88431877 12.63239075 7.88431877 12.63239075 5.65625 16.078125 C4.16897587 17.80392423 2.64925678 19.42927926 1 21 C-0.37245106 18.25509788 0.06419689 16.87939419 1 14 C3.0625 12.6875 3.0625 12.6875 5 12 C5 10.35 5 8.7 5 7 C4.360625 6.773125 3.72125 6.54625 3.0625 6.3125 C1 5 1 5 0.25 2.375 C0.1675 1.59125 0.085 0.8075 0 0 Z " fill="#ABE2F0" transform="translate(327,290)"/>
<path d="M0 0 C2.375 0.3125 2.375 0.3125 5 1 C5.66 1.99 6.32 2.98 7 4 C10.05429073 5.21284876 10.05429073 5.21284876 13 6 C13 6.66 13 7.32 13 8 C15.64 8 18.28 8 21 8 C21 8.33 21 8.66 21 9 C19.20841511 9.02696365 17.41671527 9.04637917 15.625 9.0625 C14.62726563 9.07410156 13.62953125 9.08570313 12.6015625 9.09765625 C10 9 10 9 8 8 C8 7.34 8 6.68 8 6 C7.4225 5.9175 6.845 5.835 6.25 5.75 C3.36675699 4.788919 1.98036332 3.26327237 0 1 C0 0.67 0 0.34 0 0 Z " fill="#87CDE0" transform="translate(306,303)"/>
<path d="M0 0 C0.88033999 2.54320441 0.99152055 4.04995039 0.53515625 6.73828125 C-0.01206927 10.07356089 -0.13297436 13.18535843 -0.125 16.5625 C-0.12757813 17.65691406 -0.13015625 18.75132812 -0.1328125 19.87890625 C-0.01250685 22.70608913 0.35500028 25.2510726 1 28 C0.01 27.67 -0.98 27.34 -2 27 C-2.1972935 23.58382503 -2.38112295 20.16705407 -2.5625 16.75 C-2.61857422 15.78191406 -2.67464844 14.81382812 -2.73242188 13.81640625 C-2.78076172 12.88183594 -2.82910156 11.94726562 -2.87890625 10.984375 C-2.9260376 10.12553711 -2.97316895 9.26669922 -3.02172852 8.38183594 C-3.00066921 6.07335735 -2.66206871 4.20243733 -2 2 C-1.34 2 -0.68 2 0 2 C0 1.34 0 0.68 0 0 Z " fill="#AADCEB" transform="translate(315,250)"/>
<path d="M0 0 C1.50433594 0.01353516 1.50433594 0.01353516 3.0390625 0.02734375 C3.80992187 0.03894531 4.58078125 0.05054687 5.375 0.0625 C5.705 0.7225 6.035 1.3825 6.375 2.0625 C5.13079353 2.5970256 3.87929064 3.11458611 2.625 3.625 C1.92890625 3.91503906 1.2328125 4.20507812 0.515625 4.50390625 C-1.9950015 5.15905149 -3.23916434 5.0599397 -5.625 4.0625 C-6.285 3.0725 -6.945 2.0825 -7.625 1.0625 C-4.98041621 -0.25979189 -2.94738699 -0.03427194 0 0 Z " fill="#C8E4F0" transform="translate(309.625,112.9375)"/>
<path d="M0 0 C14.78132118 -0.3690205 14.78132118 -0.3690205 21 2 C21 2.33 21 2.66 21 3 C19.58456585 3.19658808 18.16755969 3.38187546 16.75 3.5625 C15.96109375 3.66691406 15.1721875 3.77132812 14.359375 3.87890625 C11.99467126 4.00027349 10.2488963 3.69633257 8 3 C8 2.34 8 1.68 8 1 C5.36 1 2.72 1 0 1 C0 0.67 0 0.34 0 0 Z " fill="#CCF9FB" transform="translate(304,96)"/>
<path d="M0 0 C7.52804056 -0.44968384 14.95363291 0.12568283 22 3 C23.84765625 5.109375 23.84765625 5.109375 25 7 C23.845 6.566875 22.69 6.13375 21.5 5.6875 C14.52074956 3.33494367 7.23943598 2.25246684 0 1 C0 0.67 0 0.34 0 0 Z " fill="#39C9CF" transform="translate(242,77)"/>
<path d="M0 0 C0.99 0 1.98 0 3 0 C4.32 5.94 5.64 11.88 7 18 C6.34 18 5.68 18 5 18 C3.68373308 14.38026598 3 11.90432869 3 8 C2.34 8 1.68 8 1 8 C-0.35439668 5.29120665 -0.06501451 2.99066732 0 0 Z " fill="#2195A6" transform="translate(100,284)"/>
<path d="M0 0 C-2 2 -2 2 -5.4375 3.4375 C-9.26598024 5.09729832 -9.26598024 5.09729832 -12 8 C-12.33 8.99 -12.66 9.98 -13 11 C-15.0625 12.1875 -15.0625 12.1875 -17 13 C-16.5244482 8.7200338 -14.08639827 6.80581661 -11 4 C-10.195625 3.236875 -9.39125 2.47375 -8.5625 1.6875 C-5.47303665 -0.34702464 -3.62819568 -0.33750657 0 0 Z " fill="#1E96A3" transform="translate(301,125)"/>
<path d="M0 0 C1.86610926 2.79916389 2.68785383 4.81938269 3.625 8 C4.01558594 9.299375 4.01558594 9.299375 4.4140625 10.625 C5 13 5 13 5 16 C5.66 16 6.32 16 7 16 C7.33 17.98 7.66 19.96 8 22 C7.67 21.34 7.34 20.68 7 20 C6.34 20 5.68 20 5 20 C4.15450362 17.79567015 3.32357186 15.58751467 2.5 13.375 C1.80390625 11.53035156 1.80390625 11.53035156 1.09375 9.6484375 C0.05683081 6.18957134 -0.22019382 3.57814964 0 0 Z " fill="#B0E7F2" transform="translate(284,187)"/>
<path d="M0 0 C-2.25 2.5 -2.25 2.5 -5 5 C-13 5 -13 5 -15 4 C-15 3.34 -15 2.68 -15 2 C-13.43883181 1.66048381 -11.87598662 1.32867456 -10.3125 1 C-9.44238281 0.814375 -8.57226562 0.62875 -7.67578125 0.4375 C-5.06287036 0.01027953 -2.64186962 -0.07616201 0 0 Z " fill="#0B5C6F" transform="translate(233,359)"/>
<path d="M0 0 C0.33 0 0.66 0 1 0 C1.33594131 7.46536244 1.10644611 13.16581856 -2 20 C-2.33 20.99 -2.66 21.98 -3 23 C-3.66 23 -4.32 23 -5 23 C-4.72285156 21.92621094 -4.44570313 20.85242188 -4.16015625 19.74609375 C-3.79407904 18.30994471 -3.42820442 16.87374401 -3.0625 15.4375 C-2.78889648 14.38079102 -2.78889648 14.38079102 -2.50976562 13.30273438 C-1.3884486 8.87862902 -0.56543671 4.52944562 0 0 Z " fill="#00141D" transform="translate(414,336)"/>
<path d="M0 0 C0.33 0.66 0.66 1.32 1 2 C-0.109375 4.3828125 -0.109375 4.3828125 -1.75 7.125 C-2.28109375 8.03507813 -2.8121875 8.94515625 -3.359375 9.8828125 C-3.90078125 10.58148438 -4.4421875 11.28015625 -5 12 C-5.99 12 -6.98 12 -8 12 C-4.14578588 2.22095672 -4.14578588 2.22095672 0 0 Z " fill="#A8DEF2" transform="translate(349,192)"/>
<path d="M0 0 C1.09349948 3.28049845 0.91002418 4.61237818 0.25 7.9375 C0.01023438 9.21947266 0.01023438 9.21947266 -0.234375 10.52734375 C-1 13 -1 13 -4 17 C-4 13.7 -4 10.4 -4 7 C-3.01 7 -2.02 7 -1 7 C-1.020625 6.030625 -1.04125 5.06125 -1.0625 4.0625 C-1 1 -1 1 0 0 Z " fill="#1A9EA8" transform="translate(132,165)"/>
<path d="M0 0 C0 0.66 0 1.32 0 2 C-1.258125 2.268125 -2.51625 2.53625 -3.8125 2.8125 C-7.13449076 3.63425561 -8.72642102 4.40162402 -11 7 C-13.5 8.25 -13.5 8.25 -16 9 C-16.99 8.67 -17.98 8.34 -19 8 C-17.44038638 7.03697644 -15.87716775 6.07978996 -14.3125 5.125 C-13.44238281 4.59132813 -12.57226562 4.05765625 -11.67578125 3.5078125 C-7.5290698 1.17112547 -4.81269897 0 0 0 Z " fill="#BCF3F8" transform="translate(294,99)"/>
<path d="M0 0 C4.04191465 4.49101628 6.43674441 9.58984989 9 15 C4.73414695 13.57804898 3.08076543 10.72922469 0.75 7 C-0.16040138 4.57226299 -0.14287008 2.57166137 0 0 Z " fill="#1F8695" transform="translate(108,304)"/>
<path d="M0 0 C4.44006916 3.61783413 6.98488028 8.71836201 9 14 C8.67 14.66 8.34 15.32 8 16 C3.04573476 11.72908169 0.96733705 6.3844245 0 0 Z " fill="#A8E5EF" transform="translate(352,116)"/>
<path d="M0 0 C6.27 0 12.54 0 19 0 C19.33 0.66 19.66 1.32 20 2 C15.58923928 2.89018388 11.67053101 3.03077209 7.1875 2.6875 C6.04667969 2.60886719 4.90585938 2.53023438 3.73046875 2.44921875 C2.37888672 2.22685547 2.37888672 2.22685547 1 2 C0.67 1.34 0.34 0.68 0 0 Z " fill="#DAFDFE" transform="translate(217,77)"/>
<path d="M0 0 C3.875 1.875 3.875 1.875 5 3 C5.04063832 4.66617115 5.042721 6.33388095 5 8 C5.66 8 6.32 8 7 8 C8.6875 10.3125 8.6875 10.3125 10 13 C9.67 13.99 9.34 14.98 9 16 C8.54625 15.195625 8.0925 14.39125 7.625 13.5625 C6.25274335 10.91143428 6.25274335 10.91143428 4 10 C2.9296875 8.22265625 2.9296875 8.22265625 1.875 6.0625 C1.52179687 5.35222656 1.16859375 4.64195312 0.8046875 3.91015625 C0 2 0 2 0 0 Z " fill="#098196" transform="translate(13,365)"/>
<path d="M0 0 C3.95398215 1.27092283 5.1695079 3.68431535 7.05078125 7.24609375 C8.17648671 9.32610095 9.52429494 11.15536868 11 13 C7.99656363 12.67440623 7.09711205 12.11191572 5.078125 9.78515625 C4.17320313 8.43744141 4.17320313 8.43744141 3.25 7.0625 C2.63640625 6.16660156 2.0228125 5.27070313 1.390625 4.34765625 C0 2 0 2 0 0 Z " fill="#95D3EA" transform="translate(113,311)"/>
<path d="M0 0 C0.103125 0.639375 0.20625 1.27875 0.3125 1.9375 C0.539375 2.618125 0.76625 3.29875 1 4 C1.99 4.33 2.98 4.66 4 5 C4.66 8.3 5.32 11.6 6 15 C3.0482115 11.53928245 0.71098359 8.23243308 -1 4 C-0.6875 1.625 -0.6875 1.625 0 0 Z " fill="#93D1E6" transform="translate(107,296)"/>
<path d="M0 0 C0.66 0.33 1.32 0.66 2 1 C-0.20911031 4.75548753 -2.50642004 8.42586873 -5 12 C-5.33 12 -5.66 12 -6 12 C-6.56622792 7.18706269 -4.90177285 4.75523546 -2 1 C-1.34 0.67 -0.68 0.34 0 0 Z " fill="#1797A7" transform="translate(339,214)"/>
<path d="M0 0 C1.32 0.33 2.64 0.66 4 1 C4 1.66 4 2.32 4 3 C6.31 3.33 8.62 3.66 11 4 C11.33 5.32 11.66 6.64 12 8 C7.76570244 6.68938409 3.92592596 5.05643741 0 3 C0 2.01 0 1.02 0 0 Z " fill="#27C5CC" transform="translate(328,96)"/>
<path d="M0 0 C1.98 0.66 3.96 1.32 6 2 C6.66 1.34 7.32 0.68 8 0 C8 0.99 8 1.98 8 3 C8.66 3 9.32 3 10 3 C10 3.66 10 4.32 10 5 C11.32 4.67 12.64 4.34 14 4 C14.33 5.32 14.66 6.64 15 8 C11.6654742 7.30822192 8.85648807 6.0777496 5.8125 4.5625 C4.93207031 4.13066406 4.05164063 3.69882812 3.14453125 3.25390625 C1 2 1 2 0 0 Z " fill="#76BAD0" transform="translate(144,344)"/>
<path d="M0 0 C1 3 1 3 0.00390625 5.48046875 C-0.47175781 6.37378906 -0.94742187 7.26710937 -1.4375 8.1875 C-1.91058594 9.08855469 -2.38367188 9.98960937 -2.87109375 10.91796875 C-3.24363281 11.60503906 -3.61617188 12.29210937 -4 13 C-5.0397303 9.88080911 -5.00510045 8.99794502 -4.25 5.9375 C-4.09015625 5.24527344 -3.9303125 4.55304688 -3.765625 3.83984375 C-3 2 -3 2 0 0 Z " fill="#1390A0" transform="translate(327,234)"/>
<path d="M0 0 C1.25127906 3.54667178 0.72285053 5.72253438 -0.4375 9.25 C-0.72496094 10.14203125 -1.01242187 11.0340625 -1.30859375 11.953125 C-1.53675781 12.62859375 -1.76492188 13.3040625 -2 14 C-2.99 14 -3.98 14 -5 14 C-4.25 8.25 -4.25 8.25 -2 6 C-1.28591666 4.01643517 -0.61382258 2.01684563 0 0 Z " fill="#2A98A5" transform="translate(322,240)"/>
<path d="M0 0 C0.33 0 0.66 0 1 0 C1.3690205 10.55808656 1.3690205 10.55808656 -1 15 C-1.33 15 -1.66 15 -2 15 C-2.19392201 9.47322267 -1.7479503 5.24385089 0 0 Z " fill="#0B8E97" transform="translate(283,138)"/>
<path d="M0 0 C1.32 0 2.64 0 4 0 C7.38966115 4.08753256 8.78717073 7.94654472 10 13 C8.11418931 11.29379033 6.86394934 9.76930541 5.5625 7.5625 C3.97254452 4.95497301 2.18651404 3.11111701 0 1 C0 0.67 0 0.34 0 0 Z " fill="#2BBDC8" transform="translate(349,112)"/>
<path d="M0 0 C0.33 0.66 0.66 1.32 1 2 C0.67 2.99 0.34 3.98 0 5 C-0.66 5 -1.32 5 -2 5 C-1.50168276 8.68754757 -0.89932357 10.60490662 2 13 C0.02 12.34 -1.96 11.68 -4 11 C-4.36630156 7.06225823 -4.30233203 5.43460229 -2 2.125 C-1.34 1.42375 -0.68 0.7225 0 0 Z " fill="#9BE8F8" transform="translate(87,89)"/>
<path d="M0 0 C0.66 0 1.32 0 2 0 C5.42857143 8.42857143 5.42857143 8.42857143 5 13 C4.34 13 3.68 13 3 13 C2.49487756 11.39743892 1.99608373 9.79288208 1.5 8.1875 C1.2215625 7.29417969 0.943125 6.40085938 0.65625 5.48046875 C0 3 0 3 0 0 Z " fill="#32AEBA" transform="translate(286,190)"/>
<path d="M0 0 C1.984375 1.421875 1.984375 1.421875 4 4 C4.50627389 7.09456173 4.37696402 10.12473175 4.25 13.25 C4.23195313 14.09046875 4.21390625 14.9309375 4.1953125 15.796875 C4.14830798 17.86507395 4.07656724 19.93268441 4 22 C3.34 22 2.68 22 2 22 C2.03480469 20.37191406 2.03480469 20.37191406 2.0703125 18.7109375 C2.0890827 17.26563193 2.10728156 15.82031885 2.125 14.375 C2.14175781 13.66214844 2.15851563 12.94929687 2.17578125 12.21484375 C2.21684602 7.7387836 1.69086567 4.22050722 0 0 Z " fill="#8CD6E1" transform="translate(334,136)"/>
<path d="M0 0 C3.99012371 0.55989303 6.5255052 1.75669768 9.8125 4.0625 C10.60269531 4.61035156 11.39289063 5.15820312 12.20703125 5.72265625 C12.79871094 6.14417969 13.39039062 6.56570312 14 7 C12.29296875 7.67578125 12.29296875 7.67578125 10 8 C7.67578125 6.85546875 7.67578125 6.85546875 5.3125 5.1875 C4.52488281 4.64480469 3.73726563 4.10210937 2.92578125 3.54296875 C1 2 1 2 0 0 Z " fill="#15959F" transform="translate(99,108)"/>
<path d="M0 0 C0.66 0.33 1.32 0.66 2 1 C1.57847656 1.54269531 1.15695313 2.08539063 0.72265625 2.64453125 C0.17480469 3.35996094 -0.37304688 4.07539062 -0.9375 4.8125 C-1.48277344 5.52019531 -2.02804688 6.22789063 -2.58984375 6.95703125 C-4.16856248 9.04125052 -4.16856248 9.04125052 -5 12 C-5.99 12.33 -6.98 12.66 -8 13 C-8 12.34 -8 11.68 -8 11 C-7.34 11 -6.68 11 -6 11 C-5.67 8.69 -5.34 6.38 -5 4 C-4.360625 3.896875 -3.72125 3.79375 -3.0625 3.6875 C-2.381875 3.460625 -1.70125 3.23375 -1 3 C-0.67 2.01 -0.34 1.02 0 0 Z " fill="#05BEC5" transform="translate(25,35)"/>
<path d="M0 0 C0 0.66 0 1.32 0 2 C-2.1875 3.7265625 -2.1875 3.7265625 -5 5.625 C-5.928125 6.25664062 -6.85625 6.88828125 -7.8125 7.5390625 C-8.534375 8.02117187 -9.25625 8.50328125 -10 9 C-10.66 8.67 -11.32 8.34 -12 8 C-11.360625 7.731875 -10.72125 7.46375 -10.0625 7.1875 C-7.66868314 6.11332248 -7.66868314 6.11332248 -7 3 C-4.41927097 0.67734388 -3.54823932 0 0 0 Z " fill="#86C6DE" transform="translate(275,336)"/>
<path d="M0 0 C0.66 0 1.32 0 2 0 C2.66 4.29 3.32 8.58 4 13 C4.99 13.33 5.98 13.66 7 14 C5.35 14.66 3.7 15.32 2 16 C1.34 10.72 0.68 5.44 0 0 Z " fill="#39BDC5" transform="translate(273,91)"/>
<path d="M0 0 C4.27212118 0.47468013 6.07385825 3.07385825 9 6 C9.99 6 10.98 6 12 6 C12 7.32 12 8.64 12 10 C8.78727751 8.56006357 6.3793336 6.76981628 3.75 4.4375 C3.04359375 3.81746094 2.3371875 3.19742187 1.609375 2.55859375 C1.07828125 2.04425781 0.5471875 1.52992188 0 1 C0 0.67 0 0.34 0 0 Z " fill="#097D92" transform="translate(27,386)"/>
<path d="M0 0 C0.99 0.33 1.98 0.66 3 1 C1.54540569 2.64913882 0.08620743 4.29421782 -1.375 5.9375 C-2.18710937 6.85402344 -2.99921875 7.77054687 -3.8359375 8.71484375 C-6 11 -6 11 -8 12 C-8 10.68 -8 9.36 -8 8 C-7.01 7.67 -6.02 7.34 -5 7 C-2.35703248 4.66796984 -1.12775574 3.38326722 0 0 Z " fill="#8ACDE6" transform="translate(284,324)"/>
<path d="M0 0 C4.02550319 1.3418344 4.88285636 3.4227573 7 7 C7 7.66 7 8.32 7 9 C4.525 8.01 4.525 8.01 2 7 C2 6.01 2 5.02 2 4 C1.34 4 0.68 4 0 4 C0 2.68 0 1.36 0 0 Z " fill="#187789" transform="translate(117,320)"/>
<path d="M0 0 C0.66 0 1.32 0 2 0 C1.6875 1.9375 1.6875 1.9375 1 4 C0.01 4.33 -0.98 4.66 -2 5 C-2.33 5.99 -2.66 6.98 -3 8 C-6.0625 9.1875 -6.0625 9.1875 -9 10 C-9 9.34 -9 8.68 -9 8 C-8.2575 7.566875 -7.515 7.13375 -6.75 6.6875 C-3.72937032 4.83393179 -2.16627574 2.76386905 0 0 Z " fill="#249EAE" transform="translate(333,304)"/>
<path d="M0 0 C0.99 0 1.98 0 3 0 C3.33 1.65 3.66 3.3 4 5 C2.35 5.33 0.7 5.66 -1 6 C-1.33 6.99 -1.66 7.98 -2 9 C-1.125 2.25 -1.125 2.25 0 0 Z " fill="#1A7584" transform="translate(301,302)"/>
<path d="M0 0 C1.875 0.5625 1.875 0.5625 4 2 C5.52181826 5.91324696 6.60633173 8.98417068 5 13 C4.71125 12.236875 4.4225 11.47375 4.125 10.6875 C3.03730987 7.84970692 3.03730987 7.84970692 1 5 C0.61500109 3.34450469 0.27206865 1.6777567 0 0 Z " fill="#218E97" transform="translate(128,131)"/>
<path d="M0 0 C1.98 0 3.96 0 6 0 C6 0.66 6 1.32 6 2 C10.455 2.99 10.455 2.99 15 4 C11.20961574 5.26346142 8.89502364 4.80586696 5 4 C2.0625 2.5 2.0625 2.5 0 1 C0 0.67 0 0.34 0 0 Z " fill="#0B8AA4" transform="translate(55,405)"/>
<path d="M0 0 C1.46726798 3.81489674 0.43336419 6.29011622 -1 10 C-1.66 10 -2.32 10 -3 10 C-3 11.32 -3 12.64 -3 14 C-3.66 14 -4.32 14 -5 14 C-4.34 11.36 -3.68 8.72 -3 6 C-2.34 6 -1.68 6 -1 6 C-0.67 4.02 -0.34 2.04 0 0 Z " fill="#A6E2EB" transform="translate(124,196)"/>
<path d="M0 0 C0.99 0.66 1.98 1.32 3 2 C1.35 5.3 -0.3 8.6 -2 12 C-2.33 12 -2.66 12 -3 12 C-2.14285714 3.42857143 -2.14285714 3.42857143 0 0 Z " fill="#1EAEB9" transform="translate(325,176)"/>
<path d="M0 0 C0.60546875 1.80859375 0.60546875 1.80859375 1 4 C-1.12958117 7.86479546 -3.28086509 10.60912756 -7 13 C-7 12.01 -7 11.02 -7 10 C-6.01 9.34 -5.02 8.68 -4 8 C-2.78581167 6.0533929 -2.78581167 6.0533929 -1.8125 3.875 C-1.46832031 3.15054687 -1.12414062 2.42609375 -0.76953125 1.6796875 C-0.51558594 1.12539063 -0.26164062 0.57109375 0 0 Z " fill="#0792A6" transform="translate(400,370)"/>
<path d="M0 0 C0.99 0 1.98 0 3 0 C3 0.66 3 1.32 3 2 C3.99 2 4.98 2 6 2 C5.67 3.65 5.34 5.3 5 7 C3.02 5.35 1.04 3.7 -1 2 C-0.67 1.34 -0.34 0.68 0 0 Z " fill="#0EBFC7" transform="translate(266,80)"/>
<path d="M0 0 C1.32 0.33 2.64 0.66 4 1 C1.69 3.31 -0.62 5.62 -3 8 C-3.66 6.68 -4.32 5.36 -5 4 C-4.34 3.67 -3.68 3.34 -3 3 C-2.34 3.33 -1.68 3.66 -1 4 C-0.67 2.68 -0.34 1.36 0 0 Z " fill="#0593A4" transform="translate(389,384)"/>
<path d="M0 0 C2.475 0.495 2.475 0.495 5 1 C5 1.99 5 2.98 5 4 C6.32 4.33 7.64 4.66 9 5 C8.67 5.66 8.34 6.32 8 7 C4.59679258 5.98823563 3.24274669 5.35156418 1.1875 2.375 C0.795625 1.59125 0.40375 0.8075 0 0 Z " fill="#84C2DA" transform="translate(135,336)"/>
<path d="M0 0 C1.67110042 2.96178773 2.32682752 5.37071192 2.625 8.75 C2.69976562 9.54921875 2.77453125 10.3484375 2.8515625 11.171875 C2.90054687 11.77515625 2.94953125 12.3784375 3 13 C2.01 12.67 1.02 12.34 0 12 C-1.16063604 7.74433453 -0.76173392 4.3164922 0 0 Z " fill="#AFE2F1" transform="translate(281,172)"/>
<path d="M0 0 C0.99 0.33 1.98 0.66 3 1 C2.195625 1.86625 1.39125 2.7325 0.5625 3.625 C-1.96924136 6.62876093 -2.71657376 9.03203262 -3 13 C-3.33 13 -3.66 13 -4 13 C-4.17673419 8.4932782 -4.13551182 5.03374456 -2 1 C-1.34 0.67 -0.68 0.34 0 0 Z " fill="#20BCCD" transform="translate(86,87)"/>
<path d="M0 0 C0.33 0.66 0.66 1.32 1 2 C0.0625 4.625 0.0625 4.625 -1 7 C-2.65 7 -4.3 7 -6 7 C-4.02 4.69 -2.04 2.38 0 0 Z " fill="#00232B" transform="translate(392,385)"/>
<path d="M0 0 C0.99 0.33 1.98 0.66 3 1 C2.39174965 5.34464536 1.73832608 9.67551867 1 14 C0.67 14 0.34 14 0 14 C0 9.38 0 4.76 0 0 Z " fill="#C7EEF7" transform="translate(338,142)"/>
<path d="M0 0 C0.99 0.495 0.99 0.495 2 1 C2 1.66 2 2.32 2 3 C2.99 3.33 3.98 3.66 5 4 C6.1875 7.0625 6.1875 7.0625 7 10 C4.09197539 7.78071806 2.04687238 6.07030857 0 3 C0 2.01 0 1.02 0 0 Z " fill="#9DDAEB" transform="translate(123,120)"/>
<path d="M0 0 C0.99 0 1.98 0 3 0 C3 0.66 3 1.32 3 2 C4.423125 2.433125 4.423125 2.433125 5.875 2.875 C9 4 9 4 11 6 C6.64477147 5.49357808 3.55760365 4.61588503 0 2 C0 1.34 0 0.68 0 0 Z " fill="#09A6B0" transform="translate(365,12)"/>
<path d="M0 0 C0 3 0 3 -1.53125 4.60546875 C-2.1809375 5.12753906 -2.830625 5.64960938 -3.5 6.1875 C-4.1496875 6.71730469 -4.799375 7.24710937 -5.46875 7.79296875 C-5.9740625 8.19128906 -6.479375 8.58960938 -7 9 C-7.66 8.67 -8.32 8.34 -9 8 C-7.87811441 6.85111717 -6.75238316 5.70598863 -5.625 4.5625 C-4.99851562 3.92441406 -4.37203125 3.28632813 -3.7265625 2.62890625 C-2 1 -2 1 0 0 Z " fill="#1D778A" transform="translate(287,326)"/>
<path d="M0 0 C0.66 0.33 1.32 0.66 2 1 C0.02 3.97 -1.96 6.94 -4 10 C-5 8 -5 8 -4.8125 6.125 C-3.76845291 3.39441531 -2.14784331 1.9399875 0 0 Z " fill="#8DCCE2" transform="translate(296,309)"/>
<path d="M0 0 C0.66 0.33 1.32 0.66 2 1 C-1.75 7.875 -1.75 7.875 -4 9 C-3.125 4.25 -3.125 4.25 -2 2 C-1.34 2 -0.68 2 0 2 C0 1.34 0 0.68 0 0 Z " fill="#0A9AA5" transform="translate(357,182)"/>
<path d="M0 0 C0.66 0.33 1.32 0.66 2 1 C0.68 1.33 -0.64 1.66 -2 2 C-2 2.99 -2 3.98 -2 5 C-3.875 5.625 -3.875 5.625 -6 6 C-6.66 5.34 -7.32 4.68 -8 4 C-6.71349294 3.30289269 -5.42059335 2.61757124 -4.125 1.9375 C-3.40570313 1.55464844 -2.68640625 1.17179687 -1.9453125 0.77734375 C-1.30335938 0.52082031 -0.66140625 0.26429688 0 0 Z " fill="#1B6A7D" transform="translate(252,351)"/>
<path d="M0 0 C0.33 0 0.66 0 1 0 C1.36923077 6.52307692 1.36923077 6.52307692 -0.5 8.9375 C-0.995 9.288125 -1.49 9.63875 -2 10 C-3 8 -3 8 -2.44140625 6.0546875 C-2.15136719 5.33539063 -1.86132812 4.61609375 -1.5625 3.875 C-1.27503906 3.15054688 -0.98757812 2.42609375 -0.69140625 1.6796875 C-0.46324219 1.12539062 -0.23507813 0.57109375 0 0 Z " fill="#95D9E5" transform="translate(128,185)"/>
<path d="M0 0 C0.66 1.32 1.32 2.64 2 4 C0 7 0 7 -3 8 C-1.125 1.125 -1.125 1.125 0 0 Z " fill="#AFE8EE" transform="translate(326,180)"/>
<path d="M0 0 C3.34373475 0.55728913 6.03312999 1.35173889 9 3 C5.98968256 3.93423645 5.13349732 4.04449911 2 3 C2 2.34 2 1.68 2 1 C1.34 0.67 0.68 0.34 0 0 Z " fill="#16667A" transform="translate(156,352)"/>
<path d="M0 0 C0.33 0 0.66 0 1 0 C1.33 3.96 1.66 7.92 2 12 C1.34 12 0.68 12 0 12 C-0.33 12.66 -0.66 13.32 -1 14 C-0.67 9.38 -0.34 4.76 0 0 Z " fill="#87D2D9" transform="translate(133,158)"/>
<path d="M0 0 C1.65 0.99 3.3 1.98 5 3 C4.67 3.99 4.34 4.98 4 6 C2.68 5.34 1.36 4.68 0 4 C0 2.68 0 1.36 0 0 Z " fill="#188B98" transform="translate(120,121)"/>
<path d="M0 0 C2.79872437 2.52788007 4.45773019 4.20411134 5 8 C4.34 8 3.68 8 3 8 C0.25624329 5.04518508 0 4.22528092 0 0 Z " fill="#ABEDF5" transform="translate(352,116)"/>
<path d="M0 0 C2.97 0.495 2.97 0.495 6 1 C2.46588679 3.12046792 -0.94393835 3.53199289 -5 4 C-4.67 3.34 -4.34 2.68 -4 2 C-2.68 2 -1.36 2 0 2 C0 1.34 0 0.68 0 0 Z " fill="#097D8F" transform="translate(350,408)"/>
<path d="M0 0 C1.0326802 2.78823655 1.04509293 3.8677274 0.0625 6.75 C-0.288125 7.4925 -0.63875 8.235 -1 9 C-3 6 -3 6 -2.625 3.8125 C-2.41875 3.214375 -2.2125 2.61625 -2 2 C-1.34 2 -0.68 2 0 2 C0 1.34 0 0.68 0 0 Z " fill="#BAE2F4" transform="translate(315,250)"/>
<path d="M0 0 C0.66 0 1.32 0 2 0 C1.34 1.98 0.68 3.96 0 6 C-0.99 6 -1.98 6 -3 6 C-2.67 4.68 -2.34 3.36 -2 2 C-1.34 2 -0.68 2 0 2 C0 1.34 0 0.68 0 0 Z " fill="#0FA1AF" transform="translate(115,210)"/>
<path d="M0 0 C0.99 0.33 1.98 0.66 3 1 C1.75 3 1.75 3 0 5 C-1.32 5 -2.64 5 -4 5 C-3.67 4.01 -3.34 3.02 -3 2 C-2.01 2 -1.02 2 0 2 C0 1.34 0 0.68 0 0 Z " fill="#08C9CF" transform="translate(48,15)"/>
</svg>
