<?xml version="1.0" encoding="UTF-8"?>
<svg version="1.1" xmlns="http://www.w3.org/2000/svg" width="144" height="144">
<path d="M0 0 C0.96075439 -0.0087616 1.92150879 -0.01752319 2.91137695 -0.02655029 C6.05597429 -0.04837905 9.19914085 -0.03405008 12.34375 -0.01708984 C14.54752876 -0.02046271 16.7513057 -0.02531925 18.95507812 -0.03158569 C23.56137906 -0.03893468 28.16719338 -0.02831487 32.7734375 -0.00488281 C38.6578241 0.02360315 44.54107021 0.00718865 50.42541504 -0.02274513 C54.97241707 -0.04087125 59.51915173 -0.03503564 64.06616211 -0.02210617 C66.23494606 -0.01878686 68.40375482 -0.02280691 70.57250977 -0.03450394 C73.61148761 -0.04730014 76.64865586 -0.02771273 79.6875 0 C81.01261597 -0.01518173 81.01261597 -0.01518173 82.36450195 -0.03067017 C90.63693832 0.1080626 97.55830105 3.24607034 103.65625 8.83447266 C110.10887797 15.87544675 112.59848438 23.39739361 112.49072266 32.80322266 C112.49948425 33.76397705 112.50824585 34.72473145 112.51727295 35.71459961 C112.53910171 38.85919695 112.52477273 42.0023635 112.5078125 45.14697266 C112.51118537 47.35075141 112.5160419 49.55452835 112.52230835 51.75830078 C112.52965734 56.36460172 112.51903752 60.97041604 112.49560547 65.57666016 C112.4671195 71.46104676 112.48353401 77.34429287 112.51346779 83.2286377 C112.53159391 87.77563973 112.5257583 92.32237438 112.51282883 96.86938477 C112.50950952 99.03816871 112.51352956 101.20697748 112.52522659 103.37573242 C112.53802279 106.41471027 112.51843539 109.45187852 112.49072266 112.49072266 C112.50084381 113.3741333 112.51096497 114.25754395 112.52139282 115.16772461 C112.38224792 123.46473654 109.24915206 130.38719674 103.59375 136.45947266 C96.57703809 142.87449201 90.0597924 145.39895276 80.61743164 145.30981445 C79.63731613 145.32018234 78.65720062 145.33055023 77.64738464 145.3412323 C74.43245633 145.36816469 71.21890548 145.35866931 68.00390625 145.34619141 C65.75385664 145.35210593 63.50381018 145.359355 61.25376892 145.36787415 C56.54734857 145.37973068 51.84140184 145.37308598 47.13500977 145.35375977 C41.12155541 145.33088178 35.10951494 145.35765473 29.09619999 145.39882183 C24.45225018 145.42447026 19.80863548 145.42180055 15.16464043 145.41092873 C12.94839634 145.40944781 10.73212584 145.4170648 8.51594734 145.43417931 C-14.03865282 145.58009625 -14.03865282 145.58009625 -23.23448181 136.62260437 C-30.14854098 129.5012755 -32.76165238 122.53764816 -32.68969727 112.71777344 C-32.70262062 111.27707993 -32.70262062 111.27707993 -32.71580505 109.80728149 C-32.73839135 106.65200362 -32.7317387 103.49761936 -32.72265625 100.34228516 C-32.72789558 98.13564797 -32.73417319 95.92901303 -32.74143982 93.72238159 C-32.75183094 89.10420166 -32.74730164 84.4863301 -32.73266602 79.86816406 C-32.71549269 73.9680587 -32.73896322 68.06892853 -32.77415562 62.16893196 C-32.79618348 57.61336896 -32.79467482 53.05803727 -32.7863903 48.50243759 C-32.78557351 46.328062 -32.7923846 44.15366895 -32.80716133 41.97934341 C-32.82470374 38.93061791 -32.809983 35.88361903 -32.78735352 32.83496094 C-32.79904572 31.9484082 -32.81073792 31.06185547 -32.82278442 30.1484375 C-32.69847909 21.861382 -29.56650107 14.94326669 -23.96875 8.83447266 C-16.92777591 2.38184469 -9.40582905 -0.10776172 0 0 Z " fill="#1B74E8" transform="translate(32.15625,-0.64697265625)"/>
<path d="M0 0 C6.36359811 5.46817379 10.96017574 11.36257429 14.984375 18.70703125 C15.39558594 19.39023437 15.80679688 20.0734375 16.23046875 20.77734375 C17.15838567 23.15242644 16.82784147 24.34532514 15.984375 26.70703125 C15.31282567 25.41789638 14.64728641 24.12562921 13.984375 22.83203125 C13.613125 22.11273438 13.241875 21.3934375 12.859375 20.65234375 C11.984375 18.70703125 11.984375 18.70703125 11.984375 16.70703125 C0.104375 17.03703125 -11.775625 17.36703125 -24.015625 17.70703125 C-19.560625 20.67703125 -19.560625 20.67703125 -15.015625 23.70703125 C-12.640625 26.375 -12.640625 26.375 -11.015625 28.89453125 C-10.45875 29.73371094 -9.901875 30.57289062 -9.328125 31.4375 C-5.73297747 37.65410928 -6.12815439 45.72897659 -7.015625 52.70703125 C-8.41085569 57.11882791 -10.58902302 60.78306178 -13.015625 64.70703125 C-13.80057759 66.04731756 -14.58158545 67.3899192 -15.359375 68.734375 C-17.04739553 71.64153978 -18.75178996 74.5379393 -20.47265625 77.42578125 C-22.87393602 81.45927363 -25.23978777 85.51175193 -27.578125 89.58203125 C-28.21878906 90.69320312 -28.85945313 91.804375 -29.51953125 92.94921875 C-31.10158406 95.67421812 -31.10158406 95.67421812 -32.015625 98.70703125 C-16.00239585 97.40362888 -3.91009567 90.58323158 6.75390625 78.7421875 C17.55255869 65.37372916 19.00934764 50.18802736 17.75390625 33.67578125 C17.53618496 31.68158044 17.26807341 29.69292013 16.984375 27.70703125 C18.984375 28.70703125 18.984375 28.70703125 20.109375 31.89453125 C23.09208637 45.30480155 21.33185449 60.68576127 14.359375 72.51953125 C4.99697077 86.41818234 -7.01820154 96.98627112 -23.640625 100.95703125 C-40.08342863 103.78672304 -55.34122229 101.35404138 -69.015625 91.70703125 C-80.81107096 82.59851353 -90.50290645 69.79195312 -92.73828125 54.76171875 C-94.35236761 36.98403519 -91.48378283 23.13980448 -80.83984375 8.76953125 C-59.86883969 -15.6655996 -25.82742635 -19.63821148 0 0 Z " fill="#1D75E8" transform="translate(108.015625,27.29296875)"/>
<path d="M0 0 C4.46558223 3.9355428 8.67583032 8.01035351 12.1953125 12.8203125 C12.1953125 13.4803125 12.1953125 14.1403125 12.1953125 14.8203125 C11.53656128 14.82395813 10.87781006 14.82760376 10.19909668 14.83135986 C3.32020244 14.87328808 -3.55803101 14.94270652 -10.43652344 15.02783203 C-13.00090921 15.05599431 -15.56538103 15.07723231 -18.12988281 15.09130859 C-21.82401427 15.11280276 -25.51711637 15.15948995 -29.2109375 15.2109375 C-30.3508313 15.21216614 -31.4907251 15.21339478 -32.66516113 15.21466064 C-41.80979933 15.38154356 -48.3687619 17.75567808 -55.19921875 24.0078125 C-61.39943483 31.00756983 -62.6328117 38.72652007 -62.8046875 47.8203125 C-66.53774854 43.52556403 -69.12194526 38.86214469 -71.8046875 33.8828125 C-72.65634086 32.30983455 -73.51046379 30.73819089 -74.3671875 29.16796875 C-74.77453125 28.42047363 -75.181875 27.67297852 -75.6015625 26.90283203 C-76.90530382 24.5709573 -76.90530382 24.5709573 -79.1171875 21.56640625 C-80.99682392 18.50764605 -81.5923672 17.31564118 -80.8046875 13.8203125 C-79.19872888 11.62688005 -77.68309562 9.81057175 -75.8046875 7.8828125 C-75.30066406 7.35357178 -74.79664063 6.82433105 -74.27734375 6.27905273 C-54.47528929 -14.14968889 -23.08662181 -17.94197071 0 0 Z " fill="#1E75E8" transform="translate(105.8046875,28.1796875)"/>
<path d="M0 0 C2.96994955 2.60857823 4.6514495 5.64101777 6.58203125 9.06640625 C6.91869308 9.65993393 7.25535492 10.25346161 7.60221863 10.86497498 C8.67693804 12.76157793 9.74498849 14.66183233 10.8125 16.5625 C12.21287168 19.04408589 13.61577789 21.52423192 15.01953125 24.00390625 C15.3597229 24.60528915 15.69991455 25.20667206 16.05041504 25.82627869 C25.16221249 42.88736956 25.16221249 42.88736956 41 53 C49.7478722 53.59357086 57.43131294 53.99533346 65 49 C65.66 48.67 66.32 48.34 67 48 C65.62301886 51.64848546 63.98346448 54.98469663 62.06640625 58.37890625 C61.49986328 59.38244141 60.93332031 60.38597656 60.34960938 61.41992188 C59.75986328 62.45697266 59.17011719 63.49402344 58.5625 64.5625 C57.97662109 65.60341797 57.39074219 66.64433594 56.78710938 67.71679688 C51.26166221 77.46943064 51.26166221 77.46943064 49 80 C44.11688608 80.55280535 40.55838931 79.64102015 36 78 C34.56437208 77.71941238 33.12665594 77.44939146 31.6875 77.1875 C18.71957104 74.32501401 8.01599776 63.89985367 1 53 C-5.97971451 40.35854899 -8.38325201 25.52228246 -5.171875 11.34375 C-3.81430914 7.16974155 -2.4394041 3.65910615 0 0 Z " fill="#1E75E8" transform="translate(23,47)"/>
<path d="M0 0 C6.36359811 5.46817379 10.96017574 11.36257429 14.984375 18.70703125 C15.39558594 19.39023437 15.80679688 20.0734375 16.23046875 20.77734375 C17.15838567 23.15242644 16.82784147 24.34532514 15.984375 26.70703125 C15.31282567 25.41789638 14.64728641 24.12562921 13.984375 22.83203125 C13.613125 22.11273438 13.241875 21.3934375 12.859375 20.65234375 C11.984375 18.70703125 11.984375 18.70703125 11.984375 16.70703125 C0.104375 17.03703125 -11.775625 17.36703125 -24.015625 17.70703125 C-19.560625 20.67703125 -19.560625 20.67703125 -15.015625 23.70703125 C-12.640625 26.375 -12.640625 26.375 -11.015625 28.89453125 C-10.45875 29.73371094 -9.901875 30.57289062 -9.328125 31.4375 C-5.73297747 37.65410928 -6.12815439 45.72897659 -7.015625 52.70703125 C-8.41085569 57.11882791 -10.58902302 60.78306178 -13.015625 64.70703125 C-13.80057759 66.04731756 -14.58158545 67.3899192 -15.359375 68.734375 C-17.04739553 71.64153978 -18.75178996 74.5379393 -20.47265625 77.42578125 C-22.87393602 81.45927363 -25.23978777 85.51175193 -27.578125 89.58203125 C-28.21878906 90.69320312 -28.85945313 91.804375 -29.51953125 92.94921875 C-31.10158406 95.67421812 -31.10158406 95.67421812 -32.015625 98.70703125 C-16.00239585 97.40362888 -3.91009567 90.58323158 6.75390625 78.7421875 C17.55255869 65.37372916 19.00934764 50.18802736 17.75390625 33.67578125 C17.53618496 31.68158044 17.26807341 29.69292013 16.984375 27.70703125 C18.984375 28.70703125 18.984375 28.70703125 20.109375 31.89453125 C23.09208637 45.30480155 21.33185449 60.68576127 14.359375 72.51953125 C4.99697077 86.41818234 -7.01820154 96.98627112 -23.640625 100.95703125 C-40.08342863 103.78672304 -55.34122229 101.35404138 -69.015625 91.70703125 C-80.81107096 82.59851353 -90.50290645 69.79195312 -92.73828125 54.76171875 C-94.35236761 36.98403519 -91.48378283 23.13980448 -80.83984375 8.76953125 C-59.86883969 -15.6655996 -25.82742635 -19.63821148 0 0 Z M-77.015625 7.70703125 C-77.66144531 8.35285156 -78.30726562 8.99867187 -78.97265625 9.6640625 C-82.03947001 12.86158174 -82.03947001 12.86158174 -83.4140625 16.9765625 C-82.86319381 20.7516332 -81.04082985 23.49571731 -79.015625 26.64453125 C-78.19259024 27.96656484 -77.37101119 29.28950564 -76.55078125 30.61328125 C-75.92067139 31.62261719 -75.92067139 31.62261719 -75.27783203 32.65234375 C-73.25881297 35.93900998 -71.35376483 39.28844259 -69.453125 42.64453125 C-69.10701172 43.25353271 -68.76089844 43.86253418 -68.40429688 44.48999023 C-67.60655391 45.89480907 -66.81083967 47.3007797 -66.015625 48.70703125 C-65.685625 48.70703125 -65.355625 48.70703125 -65.015625 48.70703125 C-65.00144531 47.95679688 -64.98726562 47.2065625 -64.97265625 46.43359375 C-64.54759973 37.31211054 -62.63348773 29.67561269 -55.703125 23.33203125 C-48.01548735 17.01926079 -41.06131886 16.10804615 -31.421875 16.09765625 C-30.23460815 16.08112 -29.04734131 16.06458374 -27.82409668 16.04754639 C-24.0545528 15.99919662 -20.28541202 15.97772321 -16.515625 15.95703125 C-13.9505007 15.92886086 -11.38539506 15.89893195 -8.8203125 15.8671875 C-2.55215619 15.79344083 3.71588736 15.74172202 9.984375 15.70703125 C5.75753722 4.34917772 -5.18334083 -1.93675898 -15.578125 -7.04296875 C-38.30255971 -15.30639955 -60.29242323 -9.01617052 -77.015625 7.70703125 Z M-58.5078125 28.546875 C-63.74187429 36.0454143 -63.97164526 42.76870595 -63.015625 51.70703125 C-60.83259605 59.58491831 -55.62412729 65.09013239 -49.015625 69.70703125 C-42.26246232 73.15713949 -33.25388891 72.91076539 -26.05859375 70.8671875 C-18.75146656 67.53352118 -14.30089432 62.31923115 -10.078125 55.64453125 C-7.67336249 49.06546399 -7.81097495 40.59983557 -9.859375 33.98046875 C-13.25501524 27.30390585 -19.63477922 20.75916798 -26.77734375 18.1484375 C-40.35575571 15.47067039 -49.68840316 18.17235242 -58.5078125 28.546875 Z M-85.015625 19.70703125 C-85.64871691 20.89023701 -86.27159218 22.07890973 -86.890625 23.26953125 C-87.23867187 23.93082031 -87.58671875 24.59210937 -87.9453125 25.2734375 C-90.50123147 31.08488829 -91.3785572 36.58690353 -91.328125 42.89453125 C-91.32248535 43.63920654 -91.3168457 44.38388184 -91.31103516 45.15112305 C-90.98995815 59.90953868 -85.59107123 72.77424518 -75.375 83.453125 C-67.237204 91.22714535 -59.38587631 96.43604712 -48.21484375 98.3125 C-46.015625 98.70703125 -46.015625 98.70703125 -43.015625 99.70703125 C-39.55522696 100.25918985 -39.55522696 100.25918985 -36.015625 99.70703125 C-33.69809229 97.36352076 -33.69809229 97.36352076 -32.078125 94.08203125 C-31.75312012 93.50388672 -31.42811523 92.92574219 -31.09326172 92.33007812 C-30.40425083 91.10062123 -29.72611129 89.86501839 -29.05810547 88.62402344 C-28.0083699 86.69369003 -26.91390106 84.79674581 -25.80078125 82.90234375 C-21.45620398 75.52903514 -21.45620398 75.52903514 -18.015625 67.70703125 C-18.551875 68.06796875 -19.088125 68.42890625 -19.640625 68.80078125 C-27.54130023 73.47881263 -35.13320422 73.71470083 -44.015625 72.70703125 C-47.12777598 71.82588007 -49.43029637 70.62701795 -52.015625 68.70703125 C-53.5625 67.65515625 -53.5625 67.65515625 -55.140625 66.58203125 C-57.56035664 64.43636096 -59.09033957 62.13105805 -60.72265625 59.34765625 C-61.24569336 58.45868652 -61.76873047 57.5697168 -62.30761719 56.65380859 C-66.06760885 50.16680182 -69.80869556 43.66927105 -73.53710938 37.1640625 C-78.60469609 28.3309234 -78.60469609 28.3309234 -84.015625 19.70703125 C-84.345625 19.70703125 -84.675625 19.70703125 -85.015625 19.70703125 Z " fill="#C4DBF9" transform="translate(108.015625,27.29296875)"/>
<path d="M0 0 C8.10679525 3.68038557 13.63045664 9.99867963 17.046875 18.15625 C18.26835119 27.31732145 17.6995159 35.63304919 12.046875 43.15625 C6.78619041 48.95620979 1.4253172 52.76444309 -6.4453125 53.46875 C-16.43043757 53.7851104 -22.33860019 52.62157704 -29.703125 45.96875 C-36.41771092 38.67028705 -37.69918896 31.57766811 -37.39453125 21.75 C-36.39661995 13.62541239 -32.19031117 8.83016186 -26.11328125 3.6640625 C-18.15677605 -1.88966446 -9.33754916 -2.66787119 0 0 Z M-28.703125 15.21875 C-31.75319515 19.94635873 -31.41380322 25.72862294 -30.953125 31.15625 C-28.75223436 38.22226733 -24.58621686 42.91309367 -18.0390625 46.4296875 C-12.64960746 48.30691341 -6.39234608 47.98768989 -1.078125 45.96875 C3.71509079 43.18868484 8.90428658 38.85759277 10.6015625 33.359375 C12.09872632 25.95235401 11.67931977 19.55334995 7.609375 13.1015625 C4.29048829 8.96954855 0.31944208 6.14362211 -4.953125 5.15625 C-15.58058263 4.2305753 -21.78792381 7.06869145 -28.703125 15.21875 Z " fill="#297CE9" transform="translate(81.953125,45.84375)"/>
<path d="M0 0 C6.04838628 -0.63004024 10.12985287 -0.09368941 15.1484375 3.4453125 C20.87557805 8.25417735 25.45614535 13.92109015 26.46875 21.515625 C26.54802807 30.98935462 25.68273961 38.02980508 19.02734375 45.09375 C13.93844664 49.73558512 10.29038327 52.29262817 3.25 52.125 C1.77273437 52.09792969 1.77273437 52.09792969 0.265625 52.0703125 C-0.48203125 52.04710937 -1.2296875 52.02390625 -2 52 C-2 51.34 -2 50.68 -2 50 C-1.34773438 49.82984375 -0.69546875 49.6596875 -0.0234375 49.484375 C8.34752858 47.16322216 13.83444942 44.03088829 19 37 C21.81578696 31.19058689 21.74180423 25.32445464 21 19 C18.96964994 13.53635412 14.99488645 9.00548842 10 6 C6.72127322 4.50073213 3.39804014 3.20207349 0 2 C0 1.34 0 0.68 0 0 Z " fill="#257AE9" transform="translate(73,46)"/>
<path d="M0 0 C5.7558329 3.39103334 11.04114235 8.86005982 13.515625 15.125 C14.37828793 22.70840897 14.38023398 29.94599806 9.515625 36.125 C4.79474789 41.09226945 0.43351081 44.64843258 -6.53515625 45.49609375 C-13.91747115 45.64639238 -18.91881678 45.18344586 -24.484375 40.125 C-30.09176322 34.61796772 -32.758595 29.83242927 -32.921875 21.8125 C-32.7893413 14.47344639 -30.85270102 10.48580743 -25.734375 5.37890625 C-18.37555649 -1.2345147 -9.73106445 -3.42729314 0 0 Z M-28.234375 11.1875 C-31.28444515 15.91510873 -30.94505322 21.69737294 -30.484375 27.125 C-28.28348436 34.19101733 -24.11746686 38.88184367 -17.5703125 42.3984375 C-12.18085746 44.27566341 -5.92359608 43.95643989 -0.609375 41.9375 C4.18384079 39.15743484 9.37303658 34.82634277 11.0703125 29.328125 C12.56747632 21.92110401 12.14806977 15.52209995 8.078125 9.0703125 C4.75923829 4.93829855 0.78819208 2.11237211 -4.484375 1.125 C-15.11183263 0.1993253 -21.31917381 3.03744145 -28.234375 11.1875 Z " fill="#BFD8F8" transform="translate(81.484375,49.875)"/>
<path d="M0 0 C0.70226141 1.24176695 1.38629109 2.49385599 2.0625 3.75 C2.44535156 4.44609375 2.82820313 5.1421875 3.22265625 5.859375 C4.1312406 8.36140628 3.88336837 9.5332355 3 12 C2.32845067 10.71086513 1.66291141 9.41859796 1 8.125 C0.62875 7.40570313 0.2575 6.68640625 -0.125 5.9453125 C-1 4 -1 4 -1 2 C-12.88 2.33 -24.76 2.66 -37 3 C-34.03 4.98 -31.06 6.96 -28 9 C-25.625 11.66796875 -25.625 11.66796875 -24 14.1875 C-23.443125 15.02667969 -22.88625 15.86585937 -22.3125 16.73046875 C-18.72565253 22.93272584 -19.09175391 31.03510731 -20 38 C-21.42813649 42.40561664 -23.54362208 46.08932301 -26 50 C-26.72848139 51.20848077 -27.45496519 52.41816744 -28.1796875 53.62890625 C-30.07958098 56.77844206 -32.02715768 59.89552731 -34 63 C-35 60 -35 60 -33.5625 56.8125 C-33.046875 55.884375 -32.53125 54.95625 -32 54 C-33.11375 54.639375 -34.2275 55.27875 -35.375 55.9375 C-40.10166374 58.65095511 -43.47370292 59.18269455 -48.9375 59.1875 C-49.66646484 59.19974609 -50.39542969 59.21199219 -51.14648438 59.22460938 C-54.9713391 59.23512685 -56.74356564 59.17095624 -60 57 C-56.40781623 55.80260541 -53.71821197 56.08077179 -49.9375 56.25 C-41.9565383 56.39692421 -36.16060542 54.72684018 -30.1640625 49.35546875 C-23.43701619 42.08697724 -22.36855255 35.41440294 -22.58984375 25.66796875 C-23.35556837 18.82020284 -26.30774401 14.34174574 -31.25 9.6875 C-37.93655044 4.47720095 -44.63372256 2.53119222 -53 2 C-53 1.67 -53 1.34 -53 1 C-45.77344288 0.85731097 -38.54687982 0.7149254 -31.3203125 0.57275391 C-28.86035017 0.52432177 -26.40038923 0.47581937 -23.94042969 0.42724609 C-20.41081088 0.35756385 -16.88118723 0.28813178 -13.3515625 0.21875 C-12.24632233 0.19687622 -11.14108215 0.17500244 -10.00234985 0.15246582 C-8.98144257 0.13244507 -7.96053528 0.11242432 -6.90869141 0.09179688 C-6.00712311 0.07403198 -5.10555481 0.05626709 -4.17666626 0.03796387 C-2.78459838 0.01368441 -1.3922796 0 0 0 Z " fill="#C6DCF9" transform="translate(121,42)"/>
<path d="M0 0 C0.33 0.66 0.66 1.32 1 2 C-0.403081 4.68191509 -1.86065198 7.23477169 -3.4375 9.8125 C-4.12549683 10.94643188 -4.12549683 10.94643188 -4.82739258 12.10327148 C-5.76766135 13.65276524 -6.70997423 15.20102037 -7.65429688 16.74804688 C-8.88863098 18.81363066 -10.05714068 20.9001252 -11.203125 23.015625 C-11.54029541 23.61785889 -11.87746582 24.22009277 -12.22485352 24.84057617 C-13.13622717 26.47078627 -14.02771751 28.11206593 -14.91796875 29.75390625 C-17 32 -17 32 -20.73828125 32.33984375 C-21.81464844 32.22769531 -22.89101562 32.11554688 -24 32 C-24 31.67 -24 31.34 -24 31 C-22.02 31 -20.04 31 -18 31 C-18 23.08 -18 15.16 -18 7 C-19.65 7 -21.3 7 -23 7 C-23 6.67 -23 6.34 -23 6 C-21.62328125 5.96132812 -21.62328125 5.96132812 -20.21875 5.921875 C-9.22241107 5.54646642 -9.22241107 5.54646642 0 0 Z " fill="#1F76E8" transform="translate(89,95)"/>
<path d="M0 0 C7.12175198 3.56087599 13.43253732 9.4429229 18 16 C18 16.66 18 17.32 18 18 C0.84 18 -16.32 18 -34 18 C-34 17.67 -34 17.34 -34 17 C-23.11 16.67 -12.22 16.34 -1 16 C-0.67 10.72 -0.34 5.44 0 0 Z " fill="#3282EA" transform="translate(100,25)"/>
<path d="M0 0 C12.21 0 24.42 0 37 0 C37 0.33 37 0.66 37 1 C31.39 1 25.78 1 20 1 C18.3501993 4.29960141 18.61741639 7.99127884 18.4375 11.625 C18.39431641 12.42679688 18.35113281 13.22859375 18.30664062 14.0546875 C18.20048543 16.0362511 18.09973145 18.01810271 18 20 C16.83943537 18.25915305 15.6940496 16.50759784 14.58984375 14.73046875 C10.94129569 9.11532741 7.50556179 5.46654977 1.72265625 2.05859375 C1.15417969 1.70925781 0.58570312 1.35992187 0 1 C0 0.67 0 0.34 0 0 Z " fill="#408AEB" transform="translate(83,44)"/>
<path d="M0 0 C0.8059864 2.31200945 1.17023401 3.54184744 0.30322266 5.87524414 C-0.0727002 6.50551514 -0.44862305 7.13578613 -0.8359375 7.78515625 C-1.24070313 8.48060547 -1.64546875 9.17605469 -2.0625 9.89257812 C-2.495625 10.60865234 -2.92875 11.32472656 -3.375 12.0625 C-4.21825328 13.48964229 -5.0594832 14.91798255 -5.8984375 16.34765625 C-6.27661621 16.97679932 -6.65479492 17.60594238 -7.04443359 18.25415039 C-8.14815195 20.14763916 -8.14815195 20.14763916 -9 23 C-5.37 22.67 -1.74 22.34 2 22 C0 25 0 25 -2.68359375 25.671875 C-13.57215318 26.7491883 -23.47527155 25.98171059 -34 23 C-30.80545772 20.87030515 -30.50853075 20.7609696 -27 21.3125 C-26.319375 21.41175781 -25.63875 21.51101562 -24.9375 21.61328125 C-23 22 -23 22 -20 23 C-17.66700175 23.03954234 -15.33291811 23.04401732 -13 23 C-11.01996027 19.54216583 -9.04111656 16.08364869 -7.0625 12.625 C-6.21655273 11.14773437 -6.21655273 11.14773437 -5.35351562 9.640625 C-4.81533203 8.69960937 -4.27714844 7.75859375 -3.72265625 6.7890625 C-2.97640991 5.48509521 -2.97640991 5.48509521 -2.21508789 4.15478516 C-1.44418663 2.78770167 -0.70188404 1.40376807 0 0 Z " fill="#BBD5F8" transform="translate(85,103)"/>
<path d="M0 0 C0.33 0 0.66 0 1 0 C1 5.28 1 10.56 1 16 C0.67 16 0.34 16 0 16 C0 13.69 0 11.38 0 9 C-4.29 9 -8.58 9 -13 9 C-13.268125 11.02125 -13.53625 13.0425 -13.8125 15.125 C-14.55455381 20.02041971 -15.37081857 23.81721135 -18 28 C-18.66 27.67 -19.32 27.34 -20 27 C-19.58427734 25.93072266 -19.58427734 25.93072266 -19.16015625 24.83984375 C-17.15081553 19.52688947 -15.50362719 14.66580592 -15 9 C-17.97 9 -20.94 9 -24 9 C-24 10.98 -24 12.96 -24 15 C-24.33 15 -24.66 15 -25 15 C-25 10.71 -25 6.42 -25 2 C-24.67 2 -24.34 2 -24 2 C-24 3.65 -24 5.3 -24 7 C-21.03 7 -18.06 7 -15 7 C-15 5.02 -15 3.04 -15 1 C-13 4.75 -13 4.75 -13 7 C-8.71 7 -4.42 7 0 7 C0 4.69 0 2.38 0 0 Z " fill="#2E7FEA" transform="translate(126,64)"/>
<path d="M0 0 C2.45810464 3.03309987 4.02289251 6.07413019 5.625 9.625 C12.19492415 22.95999457 22.81744062 30.89496225 36 37 C33.36871564 38.01579815 32.24353593 38.08947806 29.5546875 37.1015625 C16.21591004 29.7516239 4.67346394 18.92025133 0 4 C0 2.68 0 1.36 0 0 Z " fill="#CDE0FA" transform="translate(18,87)"/>
<path d="M0 0 C0 0.33 0 0.66 0 1 C-0.83402344 1.01417969 -1.66804688 1.02835938 -2.52734375 1.04296875 C-11.14100385 1.40803796 -17.39800879 2.66097972 -23.77734375 8.67578125 C-30.58743364 16.18519578 -31.57277363 23.07066982 -32 33 C-32.33 33 -32.66 33 -33 33 C-34.22998513 25.23039096 -34.72439164 19.15462776 -30.6484375 12.21875 C-27.8769763 8.48844204 -24.78342883 5.67815749 -21 3 C-20.39414062 2.55398437 -19.78828125 2.10796875 -19.1640625 1.6484375 C-13.07026646 -2.13125878 -6.84074527 -0.95937281 0 0 Z " fill="#BCD6F8" transform="translate(77,44)"/>
<path d="M0 0 C0.70226141 1.24176695 1.38629109 2.49385599 2.0625 3.75 C2.44535156 4.44609375 2.82820313 5.1421875 3.22265625 5.859375 C4.1312406 8.36140628 3.88336837 9.5332355 3 12 C2.32845067 10.71086513 1.66291141 9.41859796 1 8.125 C0.62875 7.40570313 0.2575 6.68640625 -0.125 5.9453125 C-1 4 -1 4 -1 2 C-13.54 2 -26.08 2 -39 2 C-39 2.66 -39 3.32 -39 4 C-43.62 3.34 -48.24 2.68 -53 2 C-53 1.67 -53 1.34 -53 1 C-45.77344288 0.85731097 -38.54687982 0.7149254 -31.3203125 0.57275391 C-28.86035017 0.52432177 -26.40038923 0.47581937 -23.94042969 0.42724609 C-20.41081088 0.35756385 -16.88118723 0.28813178 -13.3515625 0.21875 C-12.24632233 0.19687622 -11.14108215 0.17500244 -10.00234985 0.15246582 C-8.98144257 0.13244507 -7.96053528 0.11242432 -6.90869141 0.09179688 C-6.00712311 0.07403198 -5.10555481 0.05626709 -4.17666626 0.03796387 C-2.78459838 0.01368441 -1.3922796 0 0 0 Z " fill="#EFF5FD" transform="translate(121,42)"/>
<path d="M0 0 C2 1 2 1 3.125 4.1875 C5.66951285 15.62762979 3.63271307 26.81096947 1 38 C0.01 38 -0.98 38 -2 38 C-1.7834375 37.2471875 -1.566875 36.494375 -1.34375 35.71875 C1.7878486 23.77228126 1.74213852 12.19496964 0 0 Z " fill="#C7DCF9" transform="translate(125,55)"/>
<path d="M0 0 C0 4.95 0 9.9 0 15 C-6.27659574 12.4893617 -6.27659574 12.4893617 -8 10 C-7.57506864 6.66908643 -6.39921993 5.03387282 -4 2.75 C-3.195625 1.96882813 -3.195625 1.96882813 -2.375 1.171875 C-1 0 -1 0 0 0 Z " fill="#1E75E8" transform="translate(43,103)"/>
<path d="M0 0 C3.63 0 7.26 0 11 0 C9.68 0.33 8.36 0.66 7 1 C7.0721875 1.58265625 7.144375 2.1653125 7.21875 2.765625 C9.29032258 21.06451613 9.29032258 21.06451613 6 26 C2.375 26.1875 2.375 26.1875 -1 26 C-1 25.67 -1 25.34 -1 25 C0.98 25 2.96 25 5 25 C5 17.08 5 9.16 5 1 C3.35 1 1.7 1 0 1 C0 0.67 0 0.34 0 0 Z " fill="#2F80EA" transform="translate(66,101)"/>
<path d="M0 0 C4 1 4 1 6.25 4.0625 C6.8275 5.031875 7.405 6.00125 8 7 C3.38 7 -1.24 7 -6 7 C-4.02 4.69 -2.04 2.38 0 0 Z " fill="#1E75E8" transform="translate(110,35)"/>
<path d="M0 0 C0 4.62 0 9.24 0 14 C-2.97295465 11.40819338 -4.78470521 9.67279621 -6 5.875 C-6 3 -6 3 -4.75 1.125 C-3 0 -3 0 0 0 Z " fill="#2177E8" transform="translate(100,46)"/>
<path d="M0 0 C3.76279147 4.33158553 6.39875764 9.0509061 9.125 14.0625 C9.56714844 14.86494141 10.00929688 15.66738281 10.46484375 16.49414062 C12.37315648 19.96773102 14.24434663 23.44632231 16 27 C15.34 27.33 14.68 27.66 14 28 C11.83519801 24.33975811 9.68094366 20.673582 7.53637695 17.00146484 C6.80489459 15.75237055 6.07052435 14.50496287 5.33325195 13.25927734 C4.27577448 11.4714506 3.22873196 9.6778733 2.18359375 7.8828125 C1.54993896 6.80402832 0.91628418 5.72524414 0.26342773 4.61376953 C-0.15350342 3.75122559 -0.57043457 2.88868164 -1 2 C-0.67 1.34 -0.34 0.68 0 0 Z " fill="#C9DEF9" transform="translate(26,48)"/>
<path d="M0 0 C5.47544289 0.37989498 8.58457777 2.58926359 12.5625 6.125 C13.13315186 6.61911377 13.70380371 7.11322754 14.29174805 7.62231445 C18.18365606 11.06850273 21.31235824 14.52059707 24 19 C23.34 19.66 22.68 20.32 22 21 C21.68289062 20.52691406 21.36578125 20.05382812 21.0390625 19.56640625 C15.46957511 11.67373489 8.83354828 5.07010873 0 1 C0 0.67 0 0.34 0 0 Z " fill="#C9DEF9" transform="translate(96,22)"/>
<path d="M0 0 C0.33 0.66 0.66 1.32 1 2 C3.31 2 5.62 2 8 2 C8 2.33 8 2.66 8 3 C3.545 3.495 3.545 3.495 -1 4 C-0.67 2.68 -0.34 1.36 0 0 Z M12 -1 C12.33 -0.01 12.66 0.98 13 2 C18.28 2 23.56 2 29 2 C28.67 2.66 28.34 3.32 28 4 C22.06 4 16.12 4 10 4 C9.34 2.68 8.68 1.36 8 0 C9.32 -0.33 10.64 -0.66 12 -1 Z " fill="#2E7FE9" transform="translate(90,98)"/>
<path d="M0 0 C3.09592835 3.5087188 4.74194623 6.49197399 6 11 C3.69 11 1.38 11 -1 11 C-0.67 7.37 -0.34 3.74 0 0 Z " fill="#2B7DE9" transform="translate(32,62)"/>
<path d="M0 0 C0.66 0.33 1.32 0.66 2 1 C1.5155542 1.39421143 1.0311084 1.78842285 0.53198242 2.19458008 C-1.44186491 4.52073163 -1.42012916 5.8642623 -1.51171875 8.88671875 C-1.56489258 10.2934082 -1.56489258 10.2934082 -1.61914062 11.72851562 C-1.64169922 12.70498047 -1.66425781 13.68144531 -1.6875 14.6875 C-1.72166016 15.67556641 -1.75582031 16.66363281 -1.79101562 17.68164062 C-1.87350538 20.12098053 -1.94265068 22.55996063 -2 25 C-2.33 25 -2.66 25 -3 25 C-3 18.07 -3 11.14 -3 4 C-3.66 3.67 -4.32 3.34 -5 3 C-2.625 1.4375 -2.625 1.4375 0 0 Z " fill="#2D7EE9" transform="translate(103,119)"/>
<path d="M0 0 C0.33 0.66 0.66 1.32 1 2 C7.93 2 14.86 2 22 2 C22 2.33 22 2.66 22 3 C21.38479492 3.01981934 20.76958984 3.03963867 20.13574219 3.06005859 C17.34007458 3.15549727 14.5451349 3.26509955 11.75 3.375 C10.29787109 3.42140625 10.29787109 3.42140625 8.81640625 3.46875 C7.88183594 3.50742188 6.94726562 3.54609375 5.984375 3.5859375 C5.12553711 3.6173584 4.26669922 3.6487793 3.38183594 3.68115234 C0.8717972 4.01716204 -0.81932328 4.74191728 -3 6 C-2.01 4.02 -1.02 2.04 0 0 Z " fill="#2C7EE9" transform="translate(122,98)"/>
<path d="M0 0 C0.680625 0.08765625 1.36125 0.1753125 2.0625 0.265625 C4 0.75 4 0.75 7 2.75 C1.65998179 4.08500455 -1.83955235 3.262545 -7 1.75 C-3.83050223 -0.36299851 -3.49404825 -0.50293119 0 0 Z " fill="#9AC1F5" transform="translate(58,124.25)"/>
<path d="M0 0 C0.33 0.66 0.66 1.32 1 2 C-0.32 3.65 -1.64 5.3 -3 7 C-5.97 6.505 -5.97 6.505 -9 6 C-6.30351311 3.30351311 -3.33388038 1.85215576 0 0 Z " fill="#408AEB" transform="translate(89,95)"/>
<path d="M0 0 C0.33 0 0.66 0 1 0 C1.33 4.62 1.66 9.24 2 14 C-2 9 -2 9 -1.953125 6.54296875 C-1.72109375 5.76566406 -1.4890625 4.98835938 -1.25 4.1875 C-1.02828125 3.39730469 -0.8065625 2.60710937 -0.578125 1.79296875 C-0.29195312 0.90544922 -0.29195312 0.90544922 0 0 Z " fill="#E2EDFC" transform="translate(43,69)"/>
<path d="M0 0 C0 0.66 0 1.32 0 2 C-3.85756507 4.15305957 -6.55129785 5.39253254 -11 5 C-8.12934225 2.12934225 -4.13678472 0 0 0 Z " fill="#C9DEF9" transform="translate(88,95)"/>
<path d="M0 0 C5.06122449 2.53061224 5.06122449 2.53061224 7 6 C6.67 7.32 6.34 8.64 6 10 C4.02 6.7 2.04 3.4 0 0 Z " fill="#CADEF9" transform="translate(86,55)"/>
<path d="M0 0 C0.66 0.66 1.32 1.32 2 2 C1.625 5.625 1.625 5.625 1 9 C0.01 9 -0.98 9 -2 9 C-1.34 6.03 -0.68 3.06 0 0 Z " fill="#ADCCF6" transform="translate(125,84)"/>
<path d="M0 0 C0.6875 1.625 0.6875 1.625 1 4 C-0.4375 7.25 -0.4375 7.25 -2 10 C-2.66 9.67 -3.32 9.34 -4 9 C-2.80100302 5.9168649 -1.52299523 2.93720508 0 0 Z " fill="#BFD7F8" transform="translate(85,103)"/>
</svg>
