<?xml version="1.0" encoding="UTF-8"?>
<svg version="1.1" xmlns="http://www.w3.org/2000/svg" width="1000" height="1000">
<path d="M0 0 C0.97243652 0.2376709 1.94487305 0.4753418 2.94677734 0.72021484 C50.50069959 12.51589064 96.43496422 30.94764709 138.33837891 56.38769531 C140.83369237 57.89925742 143.3416092 59.38674023 145.85546875 60.8671875 C156.70101511 67.30221937 166.88929272 74.47286412 177 82 C178.43349615 83.05872591 179.86708842 84.11732169 181.30078125 85.17578125 C189.041005 90.91313168 196.63123249 96.78873875 204 103 C204.55961426 103.46937988 205.11922852 103.93875977 205.69580078 104.42236328 C212.10365184 109.80578879 218.38884727 115.19966869 224.21875 121.21484375 C226.03384546 123.03391968 227.92233917 124.70516504 229.875 126.375 C236.77440561 132.3255679 243.12609941 138.83550142 249.0390625 145.76171875 C251.04377523 148.04996655 253.11757333 150.26477331 255.20361328 152.47875977 C261.42109446 159.09771707 267.07211982 166.01188596 272.60253906 173.20849609 C274.00901196 175.01155306 275.44653495 176.78415434 276.8984375 178.55078125 C284.8939822 188.29572212 292.02617476 198.5051307 299 209 C299.70938721 210.05525879 299.70938721 210.05525879 300.43310547 211.13183594 C308.64848401 223.36303849 315.94334456 236.07074738 323 249 C323.54446777 249.99563965 324.08893555 250.9912793 324.64990234 252.01708984 C353.51434733 305.17398898 370.52382372 363.29771421 379 423 C379.18079102 424.25828613 379.36158203 425.51657227 379.54785156 426.81298828 C384.92601144 466.53973385 384.65709041 510.35112745 379 550 C378.82307617 551.30308105 378.64615234 552.60616211 378.46386719 553.94873047 C375.92915974 572.50167522 372.46437428 590.80925842 368 609 C367.74524902 610.04752441 367.49049805 611.09504883 367.22802734 612.17431641 C352.75652605 670.84967618 326.83457252 728.99127943 290.30419922 777.25146484 C288.53600202 779.62208041 286.83637243 782.03819383 285.13574219 784.45751953 C280.37585441 791.22496649 275.33771149 797.67316334 270 804 C269.1259204 805.0491613 268.25223747 806.09865317 267.37890625 807.1484375 C261.58035178 814.09073403 255.59357734 820.82675481 249.43554688 827.45117188 C247.92454044 829.0814142 246.42242304 830.71950381 244.921875 832.359375 C237.69256855 840.25145285 230.44294622 847.99191747 222.30859375 854.96875 C219.9984855 857.00133255 217.75666721 859.09781569 215.51733398 861.20776367 C208.92573693 867.39761332 202.0683886 873.07661049 194.88183594 878.55957031 C192.92532637 880.05715807 190.9815846 881.57026032 189.0390625 883.0859375 C172.08768162 896.26029423 154.6036832 908.27905974 136 919 C135.05656738 919.54575684 134.11313477 920.09151367 133.14111328 920.65380859 C56.61367063 964.80182012 -29.12481362 987.58571486 -117.4375 987.3125 C-118.70136536 987.31034485 -119.96523071 987.3081897 -121.26739502 987.30596924 C-192.29026847 987.1124708 -261.14705189 972.10330367 -326 943 C-326.79180664 942.64470215 -327.58361328 942.2894043 -328.39941406 941.92333984 C-341.62147919 935.93645446 -354.35955096 929.12431215 -367 922 C-368.15677246 921.34813721 -368.15677246 921.34813721 -369.33691406 920.68310547 C-401.16343434 902.62455439 -430.67112746 880.33016443 -457.45117188 855.43554688 C-459.0814142 853.92454044 -460.71950381 852.42242304 -462.359375 850.921875 C-470.24831149 843.6954461 -477.9817992 836.44670641 -484.9609375 828.3203125 C-487.0352334 825.95990682 -489.16409123 823.66112559 -491.30908203 821.36523438 C-497.1454291 815.11213536 -502.69674615 808.71689723 -508 802 C-508.52883789 801.33307129 -509.05767578 800.66614258 -509.60253906 799.97900391 C-517.07921676 790.53401044 -524.2989747 781.01485351 -531 771 C-531.81717884 769.79781699 -532.63490815 768.59600802 -533.453125 767.39453125 C-543.15506378 753.08062389 -551.7547549 738.19221397 -560 723 C-560.46809082 722.14438477 -560.93618164 721.28876953 -561.41845703 720.40722656 C-596.81455434 655.43745918 -617.92635241 578.38905716 -618.203125 504.23046875 C-618.21018463 502.9632196 -618.21724426 501.69597046 -618.22451782 500.39031982 C-618.24203282 496.32267167 -618.24921007 492.25517798 -618.25 488.1875 C-618.25029457 487.49336628 -618.25058914 486.79923256 -618.25089264 486.08406448 C-618.25234418 464.90507769 -617.94376821 444.01232174 -615 423 C-614.80953695 421.57428834 -614.61961602 420.14850418 -614.43017578 418.72265625 C-605.50316247 352.54165521 -583.12928533 288.39313203 -549 231 C-548.4652002 230.09813965 -547.93040039 229.1962793 -547.37939453 228.26708984 C-539.87810148 215.69583303 -531.75390745 203.72810521 -523 192 C-522.18961975 190.90270134 -521.37968298 189.80507494 -520.5703125 188.70703125 C-518.40243343 185.78695215 -516.20976037 182.88850003 -514 180 C-513.57509277 179.4436084 -513.15018555 178.8872168 -512.71240234 178.31396484 C-507.23809362 171.16919416 -501.62609079 164.28177323 -495.484375 157.6953125 C-493.50848782 155.55166131 -491.58316285 153.38399073 -489.671875 151.18359375 C-486.03794724 147.01486153 -482.28920296 142.96499304 -478.5 138.9375 C-477.56220703 137.93493164 -477.56220703 137.93493164 -476.60546875 136.91210938 C-470.75362839 130.67862725 -464.82943846 124.64160383 -458.34375 119.06640625 C-456.02258166 117.01990949 -453.7672828 114.91191873 -451.51513672 112.79003906 C-444.92403207 106.60118998 -438.06756913 100.9227643 -430.88183594 95.44042969 C-428.92532637 93.94284193 -426.9815846 92.42973968 -425.0390625 90.9140625 C-408.08803594 77.73998114 -390.607242 65.71376926 -372 55 C-371.0502832 54.44844238 -370.10056641 53.89688477 -369.12207031 53.32861328 C-315.01077638 21.99497444 -257.47137355 2.53720639 -196 -8 C-195.05125 -8.16870605 -194.1025 -8.33741211 -193.125 -8.51123047 C-187.43383605 -9.51867927 -181.74253727 -10.34542725 -176 -11 C-175.10297363 -11.10296387 -174.20594727 -11.20592773 -173.28173828 -11.31201172 C-115.80942298 -17.4314357 -56.11511551 -13.8318225 0 0 Z " fill="#000000" transform="translate(618,13)"/>
<path d="M0 0 C1.14925461 -0.0033284 2.29850922 -0.0066568 3.48258972 -0.01008606 C5.90367233 -0.01511724 8.32476178 -0.01749557 10.74584961 -0.01733398 C14.37040268 -0.01950279 17.9946419 -0.03765128 21.61914062 -0.05664062 C40.39699956 -0.10296059 59.13202573 0.5245162 77.60546875 4.16796875 C79.37566885 4.50464871 81.1465208 4.83791731 82.91796875 5.16796875 C83.82820801 5.33949463 84.73844727 5.51102051 85.67626953 5.68774414 C87.70155973 6.0197783 89.73890781 6.28291617 91.78076172 6.48999023 C103.12645428 7.66060265 113.65880249 10.85252238 124.51855469 14.2331543 C127.69867776 15.2205975 130.88564977 16.18280902 134.07421875 17.14257812 C146.90640708 21.06121394 159.15810654 25.7200656 171.39433289 31.2130127 C173.55045981 32.14421122 175.72053601 32.98421766 177.92456055 33.79467773 C180.74011034 34.84511665 183.30743899 35.919155 185.9453125 37.33203125 C187.06160034 37.92479858 187.06160034 37.92479858 188.20043945 38.52954102 C188.97347412 38.94647217 189.74650879 39.36340332 190.54296875 39.79296875 C192.222573 40.69026002 193.90226224 41.5873922 195.58203125 42.484375 C196.4215332 42.93441895 197.26103516 43.38446289 198.12597656 43.84814453 C200.45148531 45.08600395 202.78682099 46.30167472 205.12890625 47.5078125 C219.46185658 54.91187717 232.60754103 63.63933585 245.60546875 73.16796875 C246.60078613 73.8940332 246.60078613 73.8940332 247.61621094 74.63476562 C255.22869625 80.20173136 262.62444132 85.82622029 269.54296875 92.25390625 C272.14645984 94.67002487 274.85396233 96.92331878 277.60546875 99.16796875 C276.3189285 101.96964939 274.94808655 104.10337528 272.83984375 106.34765625 C272.28611084 106.9401416 271.73237793 107.53262695 271.16186523 108.14306641 C270.56575439 108.77003418 269.96964355 109.39700195 269.35546875 110.04296875 C268.73937744 110.69700684 268.12328613 111.35104492 267.48852539 112.02490234 C261.47753883 118.37190678 255.30767462 124.55707444 249.08935547 130.70019531 C246.91895246 132.84703028 244.76231905 135.00752968 242.60546875 137.16796875 C169.60546875 210.16796875 169.60546875 210.16796875 167.53125 212.234375 C166.37207234 213.39825521 165.22091289 214.57031897 164.0859375 215.7578125 C161.90219007 218.03392387 160.6644458 219.14830973 157.60546875 220.16796875 C156.92389642 221.49374451 156.26005427 222.82866295 155.60546875 224.16796875 C154.1908675 225.74448743 152.71857795 227.27001947 151.2109375 228.7578125 C150.33759766 229.62470703 149.46425781 230.49160156 148.56445312 231.38476562 C147.64986328 232.28259766 146.73527344 233.18042969 145.79296875 234.10546875 C144.88998047 234.99943359 143.98699219 235.89339844 143.05664062 236.81445312 C141.36580187 238.48789898 139.67291297 240.1592778 137.97729492 241.82788086 C135.50871319 244.26342959 133.05525806 246.71353039 130.60546875 249.16796875 C56.89713542 322.87630208 -16.81119792 396.58463542 -108.46484375 488.23046875 C-109.63701987 489.40739052 -110.800921 490.59273794 -111.94921875 491.79296875 C-113.06270364 492.95257432 -114.22384163 494.06614322 -115.39453125 495.16796875 C-116.05453125 495.16796875 -116.71453125 495.16796875 -117.39453125 495.16796875 C-117.63389404 495.73330322 -117.87325684 496.2986377 -118.11987305 496.88110352 C-119.6651555 499.65349592 -121.52966262 501.52815662 -123.7890625 503.7578125 C-124.66240234 504.62470703 -125.53574219 505.49160156 -126.43554688 506.38476562 C-127.35013672 507.28259766 -128.26472656 508.18042969 -129.20703125 509.10546875 C-130.11001953 509.99943359 -131.01300781 510.89339844 -131.94335938 511.81445312 C-133.63419813 513.48789898 -135.32708703 515.1592778 -137.02270508 516.82788086 C-139.491288 519.26343076 -141.94472701 521.71354272 -144.39453125 524.16796875 C-235.39453125 615.16796875 -235.39453125 615.16796875 -237.60083008 617.36987305 C-240.23575555 620.0089433 -242.86099422 622.65721915 -245.48368835 625.3084259 C-248.14524796 627.99674089 -250.81212011 630.67975954 -253.47924805 633.36254883 C-254.88824669 634.78169004 -256.29545753 636.20260839 -257.70092773 637.62524414 C-259.73347375 639.68191674 -261.77229482 641.73217869 -263.8125 643.78125 C-264.44270554 644.42177811 -265.07291107 645.06230621 -265.72221375 645.72224426 C-267.24216011 647.24258357 -268.81380102 648.71093049 -270.39453125 650.16796875 C-271.05453125 650.16796875 -271.71453125 650.16796875 -272.39453125 650.16796875 C-274.1015625 648.32421875 -274.1015625 648.32421875 -276.20703125 645.66796875 C-277.00882812 644.66378906 -277.810625 643.65960937 -278.63671875 642.625 C-279.07725586 642.07021973 -279.51779297 641.51543945 -279.97167969 640.94384766 C-281.47290307 639.0701519 -282.99707988 637.2172289 -284.52734375 635.3671875 C-291.53166052 626.88387989 -298.25231497 618.29805343 -304.39453125 609.16796875 C-304.90564453 608.40871094 -305.41675781 607.64945313 -305.94335938 606.8671875 C-319.0296571 587.245466 -332.4900367 565.53183627 -340.70703125 543.35546875 C-341.11824219 542.25332031 -341.52945313 541.15117188 -341.953125 540.015625 C-342.1785498 539.4086377 -342.40397461 538.80165039 -342.63623047 538.17626953 C-343.48287152 535.93400639 -344.3609383 533.70544646 -345.2421875 531.4765625 C-350.31674689 518.5583754 -354.54293027 505.49821297 -358.39453125 492.16796875 C-358.6383252 491.33571777 -358.88211914 490.5034668 -359.13330078 489.64599609 C-359.81248956 487.32240586 -360.48113676 484.99611272 -361.14453125 482.66796875 C-361.33104248 482.02384033 -361.51755371 481.37971191 -361.7097168 480.71606445 C-365.077951 468.6197366 -366.94927747 456.22937869 -368.51953125 443.79296875 C-368.68839844 442.52453125 -368.85726562 441.25609375 -369.03125 439.94921875 C-371.31973671 422.10983416 -371.66573492 404.32084151 -371.70703125 386.35546875 C-371.70998199 385.22077148 -371.71293274 384.08607422 -371.7159729 382.91699219 C-371.72470237 368.07845501 -371.30328299 353.41263377 -369.58203125 338.66796875 C-369.49925934 337.94878265 -369.41648743 337.22959656 -369.33120728 336.48861694 C-368.43562302 328.94477687 -367.13137383 321.62298696 -365.1628418 314.28076172 C-364.29265096 310.75520304 -363.67567364 307.22292509 -363.05859375 303.64453125 C-361.35089898 294.06977015 -358.59787703 284.83755089 -355.76953125 275.54296875 C-355.37285751 274.22801926 -355.37285751 274.22801926 -354.96817017 272.88650513 C-350.85763898 259.30186878 -346.29015892 246.09437014 -340.39453125 233.16796875 C-339.83119999 231.88968892 -339.2686549 230.61106225 -338.70703125 229.33203125 C-337.01040705 225.57172473 -335.23019673 221.86161262 -333.39453125 218.16796875 C-332.98928223 217.348125 -332.5840332 216.52828125 -332.16650391 215.68359375 C-322.2947971 195.861407 -311.20456821 176.53335565 -297.39453125 159.16796875 C-296.41081776 157.85887311 -295.43133328 156.54658393 -294.45703125 155.23046875 C-293.98394531 154.60398437 -293.51085937 153.9775 -293.0234375 153.33203125 C-291.77085557 151.6679296 -290.53107671 149.99418512 -289.296875 148.31640625 C-283.04541101 139.91420923 -276.1037536 132.34292829 -268.890625 124.76123047 C-267.10568257 122.86035999 -265.39651191 120.90392077 -263.70703125 118.91796875 C-256.91223372 111.04218071 -249.31322807 103.894751 -241.39453125 97.16796875 C-240.40195313 96.29785156 -239.409375 95.42773438 -238.38671875 94.53125 C-209.49566487 69.27055184 -175.63221465 45.43490305 -139.39453125 32.16796875 C-137.76029637 31.43831036 -136.13419779 30.6899642 -134.51953125 29.91796875 C-119.42994095 23.03282782 -104.10477127 18.23383763 -88.10351562 13.91845703 C-84.81232883 13.00667727 -81.57770109 11.97967418 -78.33203125 10.91796875 C-71.15051111 8.65926483 -63.8011598 7.42384244 -56.39453125 6.16796875 C-55.41097656 5.99523437 -54.42742187 5.8225 -53.4140625 5.64453125 C-50.41099476 5.12778335 -47.40449228 4.64304325 -44.39453125 4.16796875 C-43.27208008 3.98983643 -43.27208008 3.98983643 -42.12695312 3.80810547 C-39.55031427 3.40166537 -36.97260705 3.00268623 -34.39453125 2.60546875 C-33.58790039 2.47849609 -32.78126953 2.35152344 -31.95019531 2.22070312 C-21.32040569 0.60637589 -10.7446658 0.01118545 0 0 Z " fill="#FCFCFC" transform="translate(482.39453125,110.83203125)"/>
<path d="M0 0 C15.91717081 6.68305592 28.80818868 32.19425271 37.89111328 46.29248047 C38.95954957 47.9377124 40.05546452 49.56499911 41.15234375 51.19140625 C56.38401464 74.08022815 70.47892697 100.46743405 78.34863281 126.92041016 C80.14545197 132.65703142 82.23649937 138.30339373 84.2355957 143.97192383 C86.60545964 150.73839424 88.86173678 157.31363922 89.875 164.4375 C90.63391183 169.24792536 91.70033797 173.91915939 92.9375 178.625 C94.99398524 186.52663437 96.3956942 194.48055844 97.62255859 202.54858398 C97.90179683 204.36218755 98.19301839 206.17395516 98.49072266 207.98461914 C103.73056613 240.42534307 104.72149038 275.99791629 98.49072266 308.37182617 C97.88027601 311.64120832 97.41832495 314.92125726 96.96069336 318.21484375 C95.83506419 326.29645189 94.38003163 334.18673233 92.41503906 342.10546875 C91.17085984 347.1399425 90.22954148 352.15768073 89.4921875 357.2890625 C88.29999441 363.85558634 85.97364355 370.10249753 83.75 376.375 C83.11702321 378.16400438 82.48421331 379.95306781 81.8515625 381.7421875 C81.53735352 382.6300293 81.22314453 383.51787109 80.89941406 384.43261719 C80.08972464 386.74388047 79.30107033 389.06061047 78.5234375 391.3828125 C75.28632963 400.96885054 71.38008011 410.12542458 67.13671875 419.30859375 C65.39876396 423.07729866 63.83703038 426.88941998 62.3125 430.75 C51.65317824 455.93115057 34.45868751 481.01162132 17 502 C16.42765625 502.74378906 15.8553125 503.48757813 15.265625 504.25390625 C9.84667718 511.28232789 3.79234468 517.65503325 -2.30859375 524.0859375 C-5.41263547 527.36061818 -8.4356364 530.69410283 -11.4375 534.0625 C-14.72063911 537.69066522 -18.08374507 540.99534586 -21.828125 544.140625 C-23.98243127 545.98495914 -26.05321764 547.9040646 -28.12133789 549.84399414 C-34.55600797 555.86076066 -41.3130322 561.33647407 -48.3046875 566.68994141 C-49.87442943 567.90296491 -51.42263355 569.1437225 -52.96875 570.38671875 C-69.14228769 583.26170599 -86.88825972 594.01607859 -105.20214844 603.54394531 C-107.08199525 604.52225302 -108.95761492 605.5087226 -110.82910156 606.50292969 C-126.01144438 614.55707203 -141.51993877 620.93677622 -157.65771484 626.76513672 C-160.92069095 627.97069794 -164.13775435 629.26458181 -167.36328125 630.56640625 C-174.74984946 633.41583748 -182.29951069 635.24947006 -190 637 C-190.7226001 637.16590637 -191.4452002 637.33181274 -192.18969727 637.50274658 C-197.53526915 638.72600266 -202.88990486 639.90468468 -208.25 641.0625 C-209.46323944 641.32487961 -209.46323944 641.32487961 -210.70098877 641.59255981 C-219.8910876 643.57184534 -229.07534312 645.53684616 -238.375 646.9375 C-239.05981445 647.0413501 -239.74462891 647.1452002 -240.45019531 647.25219727 C-275.11916539 651.99623919 -313.47821239 651.51411279 -347.92285156 645.37042236 C-350.15288683 644.97273536 -352.38497927 644.58792814 -354.6171875 644.20263672 C-376.61782212 640.3509574 -397.62639902 634.83479393 -418.6171875 627.22070312 C-421.48397106 626.18621137 -424.35823956 625.1960001 -427.25 624.234375 C-451.70800008 615.94374673 -475.49979721 603.18512733 -497 589 C-497.64662598 588.57879883 -498.29325195 588.15759766 -498.95947266 587.72363281 C-513.77274779 578.07199991 -528.03464028 568.06135299 -541 556 C-543.31536071 553.97772292 -545.65509566 551.98807107 -548 550 C-547.45982088 546.02968347 -545.59261026 544.27803994 -542.75 541.5625 C-541.98171875 540.82128906 -541.2134375 540.08007812 -540.421875 539.31640625 C-539.62265625 538.55199219 -538.8234375 537.78757812 -538 537 C-536.91631134 535.90429436 -536.91631134 535.90429436 -535.81072998 534.78645325 C-533.14436038 532.14311351 -530.4225045 529.57912073 -527.67280197 527.02356434 C-516.47104491 516.59773994 -505.65757274 505.78943437 -494.85383892 494.95523286 C-492.19821289 492.29323167 -489.5396355 489.63418087 -486.88140869 486.97477722 C-481.87100741 481.96130009 -476.86315301 476.94528733 -471.85627389 471.92829293 C-466.16457089 466.2253433 -460.46997012 460.52529087 -454.77514029 454.82546389 C-445.04420774 445.08589642 -435.31539149 435.34421985 -425.58900452 425.60011292 C-424.79052597 424.80018921 -423.99204742 424.0002655 -423.16937256 423.17610168 C-422.07183529 422.07615592 -422.07183529 422.07615592 -420.95212555 420.95398903 C-419.33372797 419.33404654 -417.71159908 417.71799173 -416.0881958 416.10307312 C-413.06295916 413.05628323 -410.21545292 409.84988907 -407.36914062 406.63671875 C-404.87962812 403.87855381 -402.31031217 401.36345654 -399.47547913 398.95982361 C-394.20888916 394.38048713 -389.30775273 389.44802516 -384.38061523 384.51000977 C-383.33682496 383.4675774 -382.29282271 382.42535725 -381.24862671 381.3833313 C-378.43440641 378.57363907 -375.62332147 375.76082999 -372.81295657 372.94728208 C-369.85891043 369.9906883 -366.9024071 367.0365532 -363.94630432 364.08201599 C-358.98429527 359.12182165 -354.02438779 354.15953321 -349.06567383 349.19604492 C-343.34853325 343.47346308 -337.62779937 337.75449235 -331.90518612 332.03738362 C-326.97486899 327.11161756 -322.04651963 322.18388907 -317.11978298 317.25454181 C-314.18473651 314.31794352 -311.24903577 311.38200786 -308.31155205 308.44784737 C-305.54888129 305.68808438 -302.78870467 302.92585005 -300.03036118 300.16176224 C-299.02308793 299.15317689 -298.01498169 298.14542261 -297.00594139 297.13860512 C-291.96345593 292.10619696 -287.02561795 287.04393784 -282.397995 281.62483215 C-280.50482829 279.42448226 -278.49176167 277.36221369 -276.44140625 275.30859375 C-275.64283203 274.50873047 -274.84425781 273.70886719 -274.02148438 272.88476562 C-273.21001953 272.07716797 -272.39855469 271.26957031 -271.5625 270.4375 C-270.75490234 269.62603516 -269.94730469 268.81457031 -269.11523438 267.97851562 C-267.91543945 266.7806543 -267.91543945 266.7806543 -266.69140625 265.55859375 C-265.62708374 264.49596313 -265.62708374 264.49596313 -264.54125977 263.41186523 C-262.57347913 261.54427902 -260.58551439 259.78358653 -258.52407837 258.02507019 C-253.13679925 253.31935045 -248.1197236 248.25199691 -243.07348633 243.18701172 C-241.99690392 242.11014667 -240.92010014 241.0335029 -239.84309387 239.95706177 C-236.94025544 237.05450847 -234.04049617 234.14889698 -231.14130616 231.2427001 C-228.09720669 228.19231198 -225.05023925 225.14479125 -222.00358582 222.09695435 C-216.23853721 216.32880567 -210.47603975 210.55811541 -204.71447152 204.78649056 C-198.17168736 198.23253234 -191.62606868 191.68140819 -185.08020365 185.13052726 C-173.88925988 173.93091123 -162.70040767 162.7292093 -151.51397705 151.52508545 C-150.59310806 150.6027713 -149.67223907 149.68045715 -148.72346497 148.73019409 C-147.92728665 147.93271696 -147.13110834 147.13523983 -146.31080341 146.31359673 C-139.30341773 139.29774048 -139.30341773 139.29774048 -137.12109375 137.15625 C-134.61056044 134.68649102 -132.22283192 132.28752505 -130.0625 129.5 C-128.28001802 127.33941578 -126.6009062 125.74008061 -124.47842407 123.94299316 C-119.52572541 119.64899953 -114.91070387 115.05088082 -110.28271484 110.41210938 C-109.33582274 109.4665756 -108.38871876 108.52125397 -107.44142151 107.5761261 C-104.89172524 105.03095223 -102.34515836 102.48266945 -99.79931593 99.93364143 C-97.12240586 97.25418149 -94.44303616 94.57718281 -91.7640686 91.89978027 C-87.26864822 87.40617364 -82.77532774 82.91047536 -78.28320312 78.41357422 C-73.10340712 73.22833382 -67.92001428 68.04670992 -62.73474538 62.86694288 C-58.26643635 58.4031837 -53.80009379 53.93746392 -49.33536494 49.47012377 C-46.67589468 46.80910146 -44.01576999 44.14874281 -41.35386276 41.49015808 C-38.85138145 38.99058288 -36.35139232 36.48854068 -33.85323906 33.98464012 C-32.50828167 32.63774783 -31.16088698 31.29329069 -29.81340027 29.94892883 C-25.78823024 25.90979542 -21.88378369 21.85484233 -18.2729435 17.43831635 C-16.11881497 15.00433693 -13.49303837 13.07753198 -11 11 C-9.44078943 9.2503515 -7.95102816 7.45384802 -6.45703125 5.6484375 C-4.5249427 3.46253571 -2.34513847 1.72436652 0 0 Z " fill="#FCFCFC" transform="translate(788,240)"/>
<path d="M0 0 C3.60058884 3.54048569 6.77363696 7.13101346 9.6875 11.25 C10.11466309 11.85134766 10.54182617 12.45269531 10.98193359 13.07226562 C15.68081668 19.80509628 19.79036809 26.86661599 23.85351562 33.99511719 C24.88461913 35.79823089 25.93340816 37.59120368 26.984375 39.3828125 C36.04442406 54.91967349 44.22084177 70.89517311 51.5625 87.3125 C52.06297852 88.4264917 52.56345703 89.5404834 53.07910156 90.68823242 C60.86441586 108.37861159 60.86441586 108.37861159 59 115 C57.54503155 116.96112633 57.54503155 116.96112633 55.64176941 118.87289429 C54.92255814 119.60483002 54.20334686 120.33676575 53.46234131 121.09088135 C52.66805725 121.87863953 51.87377319 122.66639771 51.05541992 123.47802734 C50.222892 124.31917084 49.39036407 125.16031433 48.53260803 126.02694702 C46.25076424 128.32759398 43.96012441 130.61898905 41.66443038 132.9058032 C39.74939354 134.81572869 37.84059219 136.7318248 35.9317587 138.64794695 C31.43056269 143.16613592 26.91917685 147.67396582 22.40112305 152.17529297 C17.7368983 156.82257305 13.08932557 161.48603714 8.44973677 166.15790212 C4.4663951 170.16790341 0.47345805 174.16816331 -3.52748221 178.16060603 C-5.91740595 180.54559285 -8.30358756 182.93403977 -10.68079567 185.331707 C-13.33115431 187.999392 -15.99683179 190.65074254 -18.66723633 193.29833984 C-19.45544769 194.09824341 -20.24365906 194.89814697 -21.05575562 195.72229004 C-22.14726173 196.79481522 -22.14726173 196.79481522 -23.26081848 197.88900757 C-23.89002606 198.51762884 -24.51923365 199.14625011 -25.16750813 199.79392052 C-27 201 -27 201 -29.00627708 200.89720821 C-31.37670029 199.83047865 -32.79390182 198.58922459 -34.63874817 196.75566101 C-35.34406677 196.0616922 -36.04938538 195.36772339 -36.77607727 194.65272522 C-37.53937851 193.88649338 -38.30267975 193.12026154 -39.08911133 192.33081055 C-39.90084808 191.52754333 -40.71258484 190.72427612 -41.54891968 189.89666748 C-44.23451989 187.23450124 -46.90873823 184.56123967 -49.58203125 181.88671875 C-51.43929401 180.03655235 -53.29685715 178.18668743 -55.15470886 176.33711243 C-59.04829971 172.45812698 -62.93483865 168.57216987 -66.81811523 164.68286133 C-71.31062565 160.18370164 -75.81771056 155.69952578 -80.33203107 151.22225922 C-84.67223562 146.91639491 -88.9985222 142.59680679 -93.31952477 138.27167702 C-95.16125794 136.43164271 -97.0070019 134.59561414 -98.85672951 132.76361656 C-101.43580101 130.20656088 -103.99864297 127.63427705 -106.55786133 125.05737305 C-107.33128372 124.2972139 -108.10470612 123.53705475 -108.90156555 122.75386047 C-109.59278503 122.05143219 -110.28400452 121.34900391 -110.99617004 120.62528992 C-111.6039671 120.01820537 -112.21176416 119.41112082 -112.83797932 118.78563976 C-114 117 -114 117 -113.96337509 115.07160282 C-112.63733418 112.2201381 -110.81826331 110.45009632 -108.58982849 108.22906494 C-107.89638473 107.53177627 -107.89638473 107.53177627 -107.188932 106.82040095 C-105.63747279 105.2639989 -104.07553167 103.71856416 -102.51342773 102.17285156 C-101.39934962 101.05961961 -100.28593158 99.94572675 -99.17312622 98.83122253 C-96.14897167 95.80620619 -93.11564731 92.7905376 -90.08061862 89.77643681 C-86.91086757 86.62542173 -83.74959311 83.46592611 -80.5874176 80.30731201 C-74.59751793 74.32674184 -68.60001099 68.353861 -62.59974772 62.3836906 C-55.76928249 55.58674115 -48.94731963 48.78128544 -42.12606514 41.97509432 C-28.09349754 27.97389627 -14.0502626 13.98343948 0 0 Z " fill="#010101" transform="translate(668,413)"/>
<path d="M0 0 C3.83413129 1.68851037 6.99689851 4.17344281 10.3125 6.6875 C26.06354838 18.4031722 42.65711842 28.82070385 60 38 C60.78890625 38.42120117 61.5778125 38.84240234 62.390625 39.27636719 C80.92296277 49.19948649 80.92296277 49.19948649 100 58 C101.98201028 58.88952421 103.96143215 59.78485172 105.9375 60.6875 C106.89527344 61.12449219 107.85304688 61.56148437 108.83984375 62.01171875 C109.55269531 62.33785156 110.26554688 62.66398438 111 63 C106.25738074 68.68620888 101.20640051 73.97753339 96.00048828 79.23999023 C95.11513397 80.13834091 94.22977966 81.03669159 93.31759644 81.96226501 C85.21188257 90.18305317 77.07700773 98.3752501 68.93577766 106.5608511 C62.92686325 112.60308432 56.93156268 118.65818586 50.95334446 124.73079532 C46.7360903 129.01236166 42.50363618 133.27852431 38.25971782 137.53366047 C35.72971245 140.0712186 33.20694548 142.61510782 30.70047379 145.17593193 C27.90828414 148.02796836 25.08499098 150.84790459 22.25830078 153.66577148 C21.43622131 154.51504211 20.61414185 155.36431274 19.76715088 156.23931885 C13.41097126 162.49363899 13.41097126 162.49363899 8.59994507 162.56083679 C5.42515065 162.06623438 2.56415 161.50611976 -0.46875 160.4609375 C-1.44424805 160.13077637 -2.41974609 159.80061523 -3.42480469 159.46044922 C-4.43961914 159.10225098 -5.45443359 158.74405273 -6.5 158.375 C-7.55864258 158.01035645 -8.61728516 157.64571289 -9.70800781 157.27001953 C-12.81075735 156.19475796 -15.90618415 155.10066467 -19 154 C-19.81791016 153.71253906 -20.63582031 153.42507813 -21.47851562 153.12890625 C-29.23128569 150.39263446 -36.69441082 147.37791325 -43.9609375 143.4921875 C-46.50957363 142.24080061 -49.01175916 141.19925023 -51.65625 140.1796875 C-66.8224785 134.19383453 -80.92539558 125.3268572 -94.5 116.375 C-95.55074707 115.68825195 -96.60149414 115.00150391 -97.68408203 114.29394531 C-98.64427246 113.64780273 -99.60446289 113.00166016 -100.59375 112.3359375 C-101.44646484 111.76407715 -102.29917969 111.1922168 -103.17773438 110.60302734 C-103.77908203 110.07402832 -104.38042969 109.5450293 -105 109 C-105 106 -105 106 -103.37858677 104.0122366 C-102.61295382 103.25066785 -101.84732088 102.4890991 -101.05848694 101.70445251 C-100.18486008 100.82814682 -99.31123322 99.95184113 -98.41113281 99.04898071 C-97.43055337 98.08061437 -96.4498358 97.11238787 -95.46899414 96.14428711 C-94.44534857 95.12312387 -93.4223691 94.10129254 -92.40000916 93.07884216 C-89.61734155 90.2995929 -86.8255904 87.52962859 -84.03230596 84.76105571 C-81.11498292 81.86617051 -78.20650854 78.96242506 -75.29722595 76.0594635 C-69.78283485 70.55957497 -64.26126831 65.06695279 -58.73675197 59.57723671 C-48.84002017 49.74238296 -38.95540712 39.895356 -29.07351583 30.04559332 C-25.6028268 26.58676085 -22.12898783 23.13113132 -18.65251744 19.67811 C-16.49317295 17.53256492 -14.33579349 15.38505172 -12.1788578 13.23708534 C-11.17554513 12.23885408 -10.17135726 11.24150163 -9.16624832 10.24507904 C-7.79805951 8.8885279 -6.43318225 7.5286392 -5.0684967 6.16856384 C-3.91948175 5.02677626 -3.91948175 5.02677626 -2.74725437 3.86192226 C-0.93529428 2.10887412 -0.93529428 2.10887412 0 0 Z " fill="#010101" transform="translate(398,682)"/>
<path d="M0 0 C1.75547783 3.62237144 3.50334874 7.24836533 5.25 10.875 C5.98669922 12.39480469 5.98669922 12.39480469 6.73828125 13.9453125 C8.97462922 18.59691629 11.12934485 23.2215598 12.96484375 28.046875 C15.20950667 33.79702789 18.22553967 39.04160375 21.3125 44.375 C21.89717041 45.3952124 22.48184082 46.4154248 23.08422852 47.46655273 C24.22613257 49.45672837 25.37077723 51.44533479 26.51855469 53.43212891 C27.66035603 55.41127633 28.78984005 57.39753331 29.9140625 59.38671875 C38.5730584 74.59546796 47.99761841 89.38212102 59 103 C60.00638671 104.32851932 61.0090829 105.65990259 62 107 C60.50145783 110.49801422 58.49540544 112.75157144 55.81124878 115.42926025 C54.49451675 116.75011627 54.49451675 116.75011627 53.15118408 118.09765625 C52.17623987 119.06552278 51.20120004 120.033293 50.22607422 121.00097656 C49.20073209 122.02575442 48.17583042 123.05097312 47.15133667 124.07659912 C44.37088049 126.85762918 41.58430044 129.63244911 38.79658651 132.40620136 C35.88353292 135.30675356 32.97614104 138.21296944 30.06814575 141.11859131 C24.56148656 146.61903401 19.0497489 152.11435852 13.53617203 157.60786605 C7.25902584 163.86265855 0.98755684 170.12313014 -5.28343987 176.38408709 C-18.18264956 189.26239093 -31.0889775 202.13353955 -44 215 C-48.19841385 213.12991167 -49.62797917 210.93163737 -52.0625 207 C-52.44752686 206.38116943 -52.83255371 205.76233887 -53.22924805 205.12475586 C-54.06143875 203.78358915 -54.8891623 202.43964247 -55.71289062 201.09326172 C-56.99384474 199.01001047 -58.29878742 196.94361721 -59.609375 194.87890625 C-69.36763302 179.37725697 -78.48389591 163.14974634 -85 146 C-85.71447014 144.17382268 -86.43081857 142.34837976 -87.1484375 140.5234375 C-88.71116372 136.54686022 -90.26712252 132.56777007 -91.81640625 128.5859375 C-93.56671213 124.09195107 -95.35139652 119.6128581 -97.15893555 115.14160156 C-99.29744446 109.69631849 -101.47430397 103.84415533 -100 98 C-97.45184224 94.26565006 -94.26918819 91.23853169 -91.03564453 88.09570312 C-90.07167883 87.13071912 -89.10946153 86.16398586 -88.14886475 85.19564819 C-85.54267581 82.57864256 -82.91242457 79.98712393 -80.27681208 77.39979744 C-77.52268578 74.68831008 -74.79049838 71.95488773 -72.05563354 69.22399902 C-67.46348067 64.64472971 -62.85680731 60.08051554 -58.23974609 55.52636719 C-52.30758805 49.67493441 -46.39863031 43.80064883 -40.49710274 37.91834259 C-35.42666733 32.86448766 -30.34732304 27.81961562 -25.26569891 22.77701378 C-23.63006663 21.15352452 -21.99536468 19.5291021 -20.36066055 17.90467834 C-17.79671859 15.3582642 -15.22733727 12.81746273 -12.65355682 10.28099442 C-11.25514219 8.90072314 -9.86153579 7.5155858 -8.4680481 6.13034058 C-7.64071167 5.31731476 -6.81337524 4.50428894 -5.96096802 3.66662598 C-5.2401259 2.95433083 -4.51928379 2.24203568 -3.77659798 1.50815582 C-2 0 -2 0 0 0 Z " fill="#010101" transform="translate(256,493)"/>
<path d="M0 0 C1.09989258 0.34933594 2.19978516 0.69867188 3.33300781 1.05859375 C4.78967623 1.51834739 6.24638404 1.97797624 7.703125 2.4375 C8.78811279 2.78264648 8.78811279 2.78264648 9.89501953 3.13476562 C13.49310976 4.26711785 17.03418638 5.31496684 20.75 6 C26.46958991 7.16128296 31.67613112 9.67247943 37 12 C42.70370798 14.42773212 48.38098655 16.81229811 54.25 18.8125 C60.51200284 21.03596478 66.32038935 24.07727107 72.2265625 27.09375 C76.41629826 29.22944739 80.67770805 31.14758916 85 33 C85 33.66 85 34.32 85 35 C85.73049561 35.1124707 86.46099121 35.22494141 87.21362305 35.34082031 C90.1139897 36.02696681 92.04979783 36.99691109 94.58203125 38.546875 C95.43216797 39.0625 96.28230469 39.578125 97.15820312 40.109375 C98.03412109 40.65078125 98.91003906 41.1921875 99.8125 41.75 C100.67681641 42.2759375 101.54113281 42.801875 102.43164062 43.34375 C107.64557755 46.52326776 112.8264609 49.75527164 118 53 C116.46459519 56.63813075 114.28998399 58.95674975 111.50753784 61.73297119 C111.04847113 62.19374676 110.58940441 62.65452232 110.11642659 63.12926078 C108.57956197 64.66941522 107.03566671 66.20232014 105.49169922 67.73535156 C104.38754038 68.83894617 103.28382192 69.94298153 102.18051147 71.04742432 C99.1851875 74.04332237 96.18373482 77.03301172 93.18115377 80.0216341 C90.04388393 83.14640584 86.91227272 86.27683802 83.78005981 89.40667725 C77.84840922 95.33211038 71.91167855 101.25242659 65.97311127 107.17092681 C59.21229965 113.90938776 52.45716265 120.65352509 45.70249915 127.39814806 C31.80797633 141.27176284 17.90633352 155.13822446 4 169 C0.88534154 167.61565262 -1.23098131 166.01680359 -3.63201904 163.60848999 C-4.33589249 162.90736588 -5.03976593 162.20624176 -5.76496887 161.48387146 C-6.90756416 160.33049034 -6.90756416 160.33049034 -8.07324219 159.15380859 C-9.28843788 157.93905098 -9.28843788 157.93905098 -10.52818298 156.69975281 C-13.20584785 154.02069416 -15.87635816 151.33461989 -18.546875 148.6484375 C-20.40160245 146.7899801 -22.25677184 144.93196365 -24.11236572 143.07437134 C-28.49720961 138.68331439 -32.87693083 134.28718468 -37.25483155 129.88920653 C-42.2399928 124.8816809 -47.23084273 119.87984156 -52.22217703 114.87847018 C-62.48778972 104.59195943 -72.74624548 94.29833103 -83 84 C-78.64304101 78.78936078 -74.0641384 73.92583419 -69.25048828 69.13696289 C-68.49858719 68.38491577 -67.7466861 67.63286865 -66.97200012 66.85803223 C-64.507136 64.39386004 -62.03875789 61.93324049 -59.5703125 59.47265625 C-57.85231025 57.75652073 -56.13452988 56.04016306 -54.41696167 54.32359314 C-49.91143139 49.82186792 -45.40290529 45.32315483 -40.89373779 40.82507324 C-36.28671199 36.22830491 -31.68254087 31.62867923 -27.078125 27.02929688 C-18.05486698 18.01674068 -9.02853652 9.00726818 0 0 Z " fill="#010101" transform="translate(469,278)"/>
<path d="M0 0 C1.01879745 0.35040344 2.03759491 0.70080688 3.08726501 1.06182861 C3.97704041 1.26944824 4.8668158 1.47706787 5.78355408 1.690979 C8.63874574 2.48942342 11.49057541 3.29599047 14.33726501 4.12432861 C15.39123474 4.43088379 16.44520447 4.73743896 17.53111267 5.05328369 C26.62829614 7.77886959 35.26539456 11.23155895 43.91807556 15.11993408 C46.19632477 16.10918399 48.49958833 17.00242694 50.81773376 17.89385986 C57.089536 20.38342562 63.04255988 23.4503649 69.02476501 26.56182861 C69.61209412 26.86663147 70.19942322 27.17143433 70.80455017 27.48547363 C85.63949969 35.20790688 99.78835388 43.9008628 113.08726501 54.06182861 C111.64198845 57.36553775 109.8436354 59.56434784 107.3117981 62.11817932 C106.52534409 62.91605362 105.73889008 63.71392792 104.92860413 64.53598022 C104.06468048 65.40213959 103.20075684 66.26829895 102.31065369 67.16070557 C101.40155746 68.0797316 100.49246124 68.99875763 99.55581665 69.94563293 C97.06490207 72.46273497 94.567389 74.97318498 92.06780028 77.48167062 C90.50666033 79.04867794 88.94669918 80.61684951 87.3870945 82.18538475 C82.50777438 87.0920302 77.62448276 91.99467078 72.73534697 96.89153606 C67.08953908 102.54631912 61.45706971 108.21395853 55.83577555 113.89310867 C51.48957432 118.28248522 47.13196777 122.66032044 42.7654646 127.02950066 C40.15739219 129.63967211 37.55443615 132.25450592 34.96320152 134.88140297 C32.0759223 137.80764504 29.16539231 140.70961959 26.25205994 143.60992432 C24.96528351 144.92434509 24.96528351 144.92434509 23.6525116 146.26531982 C22.85759811 147.049095 22.06268463 147.83287018 21.24368286 148.64039612 C20.21471028 149.67376838 20.21471028 149.67376838 19.16495037 150.72801685 C17.08726501 152.06182861 17.08726501 152.06182861 14.52133656 151.89432049 C11.10811033 150.72694186 8.3774378 148.75469015 5.46226501 146.68682861 C-10.58034962 135.70425014 -27.70604378 126.96513303 -45.1441803 118.42437744 C-47.54413211 117.24323713 -49.93097029 116.0400994 -52.31507874 114.82745361 C-55.41158466 113.27659653 -58.53979105 111.95960582 -61.78773499 110.74932861 C-62.8976178 110.33167236 -64.00750061 109.91401611 -65.15101624 109.48370361 C-65.7499469 109.25876221 -66.34887756 109.0338208 -66.96595764 108.80206299 C-69.09394309 107.99292681 -71.21271803 107.16240679 -73.33070374 106.32745361 C-81.79030209 102.99472211 -90.23828773 99.80023255 -98.91273499 97.06182861 C-97.47402152 93.78244848 -95.69831279 91.58484735 -93.18869019 89.04344177 C-92.41354065 88.25398163 -91.63839111 87.46452148 -90.8397522 86.65113831 C-89.98832138 85.79432968 -89.13689056 84.93752106 -88.25965881 84.05474854 C-87.36352875 83.14547607 -86.46739868 82.23620361 -85.54411316 81.29937744 C-82.57654207 78.28984201 -79.59839903 75.29087812 -76.61976624 72.29229736 C-75.59398391 71.25841729 -74.56826993 70.22446939 -73.54262352 69.19045448 C-68.72580843 64.33557152 -63.90421281 59.48549938 -59.07667333 54.64128035 C-53.50515006 49.05018716 -47.95059591 43.44291537 -42.40978414 37.82138938 C-38.12392382 33.47525237 -33.82286586 29.14454009 -29.51007861 24.82512361 C-26.93505053 22.24539159 -24.36707211 19.65945622 -21.81493568 17.05705833 C-18.96936812 14.15635856 -16.09301313 11.28822147 -13.21278381 8.42193604 C-12.37147415 7.55500626 -11.53016449 6.68807648 -10.6633606 5.7948761 C-4.84258399 0.07652199 -4.84258399 0.07652199 0 0 Z " fill="#010101" transform="translate(594.9127349853516,155.93817138671875)"/>
<path d="M0 0 C3.11465846 1.38434738 5.23098131 2.98319641 7.63201904 5.39151001 C8.68782921 6.44319618 8.68782921 6.44319618 9.76496887 7.51612854 C10.52669907 8.28504929 11.28842926 9.05397003 12.07324219 9.84619141 C12.88337265 10.65602982 13.69350311 11.46586823 14.52818298 12.30024719 C17.20584785 14.97930584 19.87635816 17.66538011 22.546875 20.3515625 C24.40160245 22.2100199 26.25677184 24.06803635 28.11236572 25.92562866 C32.49720961 30.31668561 36.87693083 34.71281532 41.25483155 39.11079347 C46.2399928 44.1183191 51.23084273 49.12015844 56.22217703 54.12152982 C66.48778972 64.40804057 76.74624548 74.70166897 87 85 C85.51019485 90.48642826 81.68636797 93.75694911 77.78393555 97.65185547 C77.04065002 98.40521683 76.2973645 99.15857819 75.53155518 99.93476868 C73.0745464 102.42025442 70.60639112 104.89428846 68.13671875 107.3671875 C66.42497165 109.08857259 64.7134523 110.81018418 63.00215149 112.53201294 C59.41538507 116.13673781 55.82247473 119.73521065 52.22583008 123.33007812 C47.61010331 127.94549934 43.0153905 132.58124581 38.42569256 137.22253227 C34.8989535 140.78255652 31.35873506 144.3289332 27.8145237 147.87155533 C26.11398045 149.57564729 24.41831951 151.28462551 22.72760582 152.99847031 C20.36708874 155.38825141 17.98847814 157.75842125 15.60424805 160.12451172 C14.90535965 160.84025864 14.20647125 161.55600555 13.48640442 162.29344177 C12.83453156 162.93273117 12.18265869 163.57202057 11.5110321 164.23068237 C10.95041423 164.79293455 10.38979635 165.35518673 9.81219006 165.93447685 C8 167 8 167 5.40939045 166.72210884 C3.14811865 166.04439205 1.07034771 165.27590588 -1.07421875 164.29296875 C-1.81889404 163.95587891 -2.56356934 163.61878906 -3.33081055 163.27148438 C-4.10851807 162.91376953 -4.88622559 162.55605469 -5.6875 162.1875 C-12.86716088 158.92678317 -12.86716088 158.92678317 -20.1875 156 C-25.20070141 154.05912515 -29.86104017 151.49601179 -34.5612793 148.90429688 C-37.50577964 147.28810998 -40.39182237 145.8328283 -43.48828125 144.51171875 C-47.32140251 142.86164319 -50.8814507 140.94293575 -54.5 138.875 C-55.192146 138.48175537 -55.88429199 138.08851074 -56.59741211 137.68334961 C-73.00767716 128.31750921 -88.83520228 118.28689726 -104 107 C-102.51754386 103.55869493 -100.57797418 101.33298285 -97.93186951 98.6980896 C-96.65516891 97.41943275 -96.65516891 97.41943275 -95.35267639 96.11494446 C-94.4170134 95.18804306 -93.4813504 94.26114166 -92.51733398 93.30615234 C-91.52316349 92.31418368 -90.52944083 91.32176602 -89.53613281 90.32893372 C-87.39842948 88.19416149 -85.25761032 86.06258176 -83.11431694 83.93342209 C-79.72733521 80.56870783 -76.34745711 77.19691838 -72.96852112 73.8241272 C-67.62575128 68.49273475 -62.2783283 63.16603764 -56.92886168 57.84136546 C-47.34213953 48.29899628 -37.76101977 38.75100972 -28.1850763 29.19782412 C-24.82273397 25.84390378 -21.45760375 22.49281279 -18.09022701 19.14394736 C-15.99966525 17.06400547 -13.91111438 14.98205309 -11.82306671 12.89958763 C-10.85199937 11.93199957 -9.88006103 10.96528476 -8.90720558 9.99949455 C-7.58290548 8.68460361 -6.26193013 7.3663666 -4.94114685 6.04794312 C-3.8292129 4.94128831 -3.8292129 4.94128831 -2.69481564 3.81227684 C-0.93038928 2.09769074 -0.93038928 2.09769074 0 0 Z " fill="#010101" transform="translate(527,553)"/>
<path d="M0 0 C4.34841753 4.29729767 7.63426637 8.57066651 10.9375 13.6875 C11.49236084 14.54384033 12.04722168 15.40018066 12.61889648 16.2824707 C21.01621276 29.4852893 28.83545847 43.40187919 35.04077148 57.78051758 C36.0923436 60.2136665 37.19296655 62.62141809 38.296875 65.03125 C42.93005255 75.293513 47.07188701 85.58157461 50.5 96.3125 C50.82581055 97.33085937 51.15162109 98.34921875 51.48730469 99.3984375 C52.37433912 102.26032543 53.240838 105.10119256 54 108 C54.26309086 108.71163583 54.52618172 109.42327166 54.79724503 110.15647221 C55.64461274 112.91062758 56.07465114 115.11146858 56 118 C53.98987403 121.77391366 51.07355379 124.46602007 47.99707031 127.39697266 C47.1227536 128.27625427 46.24843689 129.15553589 45.34762573 130.0614624 C42.95073323 132.45987463 40.53033685 134.82854334 38.09503269 137.1875577 C35.55263076 139.66224266 33.04355207 142.17027441 30.53045654 144.6746521 C26.30924037 148.87197692 22.06684773 153.04681178 17.80859375 157.20654297 C11.79735512 163.07879303 5.82663599 168.99097683 -0.13708639 174.91142201 C-4.76581568 179.50358929 -9.40564627 184.08453389 -14.046875 188.6640625 C-14.79474856 189.40242175 -14.79474856 189.40242175 -15.55773067 190.15569735 C-18.85667835 193.41132642 -22.16554268 196.65660083 -25.47949219 199.89697266 C-26.31701019 200.72282867 -27.1545282 201.54868469 -28.01742554 202.39956665 C-29.16179581 203.51380005 -29.16179581 203.51380005 -30.32928467 204.65054321 C-30.99372967 205.30124598 -31.65817467 205.95194874 -32.34275436 206.62236977 C-34 208 -34 208 -36 208 C-36.40436279 206.77337646 -36.40436279 206.77337646 -36.81689453 205.52197266 C-39.89294754 196.5258734 -43.63380565 188.03092747 -47.82861328 179.50390625 C-48.87541922 177.37414709 -49.90916569 175.23841292 -50.94140625 173.1015625 C-54.51349067 165.7540849 -58.25217486 158.59897211 -62.46142578 151.5925293 C-64.05233652 148.91181189 -65.5357189 146.18911754 -67 143.4375 C-70.06876321 137.77643944 -73.46642858 132.3808246 -77 127 C-77.37141113 126.43265137 -77.74282227 125.86530273 -78.12548828 125.28076172 C-84.19578427 116.02474253 -90.50792952 106.96458242 -97 98 C-92.26944145 92.31198958 -87.2060954 87.06985091 -81.96533203 81.85180664 C-81.07688095 80.96320953 -80.18842987 80.07461243 -79.27305603 79.15908813 C-76.85586711 76.74247322 -74.43649312 74.32808699 -72.01608896 71.91469502 C-69.47985876 69.3847499 -66.9464926 66.85194005 -64.41281128 64.31944275 C-59.62323711 59.53296677 -54.83112136 54.7490439 -50.03806961 49.96605057 C-44.57776393 44.51695315 -39.1203245 39.06498889 -33.66311479 33.61279118 C-22.4452454 22.40535192 -11.22381183 11.20148832 0 0 Z " fill="#010101" transform="translate(789,292)"/>
<path d="M0 0 C5.27879487 4.41063727 10.19628891 9.05832441 15.04663086 13.93310547 C15.81818512 14.7045137 16.58973938 15.47592194 17.38467407 16.27070618 C19.91377718 18.80050144 22.43932775 21.33381162 24.96484375 23.8671875 C26.7258198 25.63003021 28.48701795 27.39265109 30.24842834 29.15505981 C34.86852067 33.77895781 39.48560112 38.40585181 44.10205078 43.03338623 C48.81919268 47.76132989 53.53973751 52.48587559 58.25976562 57.2109375 C67.50930035 66.47117514 76.75575165 75.73448525 86 85 C84.50631485 88.48029121 82.52082582 90.72618348 79.84921265 93.39129639 C78.97980545 94.26345291 78.11039825 95.13560944 77.21464539 96.03419495 C76.24914637 96.9926163 75.28355173 97.95094133 74.31787109 98.90917969 C73.30238106 99.92410545 72.28733148 100.93947208 71.27268982 101.95524597 C68.5190921 104.70941754 65.75937117 107.45737879 62.99851561 110.20427227 C60.11348903 113.076797 57.23412458 115.95498586 54.35415649 118.83258057 C48.90062122 124.27989947 43.44200771 129.72210002 37.98155463 135.16248345 C31.7648666 141.35681738 25.55385612 147.55683076 19.34331775 153.75732946 C6.56852222 166.51121944 -6.21339139 179.257954 -19 192 C-24.52352904 186.52625797 -24.52352904 186.52625797 -26.5078125 183.64453125 C-26.9311084 183.032146 -27.3544043 182.41976074 -27.79052734 181.78881836 C-28.23090332 181.1366333 -28.6712793 180.48444824 -29.125 179.8125 C-29.60018066 179.11326416 -30.07536133 178.41402832 -30.56494141 177.69360352 C-40.91338329 162.32096753 -50.01389891 146.19449513 -59 130 C-59.54519287 129.019104 -60.09038574 128.03820801 -60.65209961 127.02758789 C-61.18456299 126.06199951 -61.71702637 125.09641113 -62.265625 124.1015625 C-62.98347168 122.8014624 -62.98347168 122.8014624 -63.71582031 121.47509766 C-65.3334631 118.35729108 -66.61045811 115.16805263 -67.86328125 111.890625 C-69.36347505 108.07569919 -70.987642 104.3202261 -72.625 100.5625 C-73.07734009 99.51412964 -73.07734009 99.51412964 -73.53881836 98.44458008 C-74.85232586 95.43835161 -76.17505824 92.73741265 -78 90 C-79.35431697 86.65277165 -80.07914842 83.62228766 -80 80 C-78.25959346 76.54137549 -75.68044334 74.15835309 -72.88330078 71.52099609 C-72.10330719 70.73925018 -71.3233136 69.95750427 -70.51968384 69.15206909 C-67.93898483 66.57971899 -65.31843634 64.05245076 -62.6953125 61.5234375 C-60.89623137 59.74674191 -59.09978478 57.96737493 -57.30587769 56.18545532 C-53.06335088 51.98403638 -48.79523452 47.81044687 -44.51343048 43.64920199 C-39.63867055 38.90874708 -34.79809463 34.13401692 -29.96003747 29.3561542 C-20.01083483 19.53225749 -10.01963392 9.75201486 0 0 Z " fill="#010101" transform="translate(361,386)"/>
<path d="M0 0 C0.92452972 -0.0033284 1.84905945 -0.0066568 2.80160522 -0.01008606 C4.74614979 -0.01511387 6.69070285 -0.01749568 8.63525391 -0.01733398 C11.5577677 -0.01951027 14.47989695 -0.03768288 17.40234375 -0.05664062 C27.25045694 -0.08568987 36.81439936 0.24280397 46.56396484 1.67602539 C51.67601539 2.41634319 56.8108607 2.79731928 61.9609375 3.16796875 C60.54845811 6.37270121 58.86255189 8.51218331 56.38633728 10.97634888 C55.64458755 11.71940277 54.90283783 12.46245667 54.13861084 13.22802734 C52.91745575 14.43604004 52.91745575 14.43604004 51.67163086 15.66845703 C50.81463089 16.52414276 49.95763092 17.37982849 49.07466125 18.26144409 C47.21291608 20.11892545 45.34946315 21.97447967 43.48280144 23.82699966 C40.53267661 26.75484223 37.58967109 29.68977147 34.64759827 32.6257019 C29.99543994 37.26648642 25.33863106 41.90257185 20.67977291 46.53662956 C12.33057908 54.84145919 3.98699494 63.15191576 -4.35141462 71.46757305 C-7.2788868 74.38662615 -10.2091437 77.30284684 -13.14165318 80.21683908 C-15.38936142 82.45143254 -17.63396863 84.68913805 -19.87915039 86.92626953 C-21.10334183 88.14035492 -21.10334183 88.14035492 -22.3522644 89.37896729 C-23.09119431 90.11638153 -23.83012421 90.85379578 -24.59144592 91.61355591 C-25.23686875 92.25545931 -25.88229158 92.89736271 -26.54727268 93.55871773 C-28.12886582 95.11416481 -28.12886582 95.11416481 -29.0390625 97.16796875 C-36.1911495 96.55753585 -42.96303516 94.72399811 -49.88320923 92.90280151 C-63.25057064 89.40774172 -76.51901113 86.71968043 -90.20068359 84.75 C-94.82984227 84.04805914 -99.4432888 83.26762037 -104.05859375 82.48046875 C-135.64744853 77.11496016 -167.06046787 74.01550295 -199.0390625 72.16796875 C-199.0390625 71.50796875 -199.0390625 70.84796875 -199.0390625 70.16796875 C-190.04120049 63.0189825 -179.85237825 57.12056346 -170.0390625 51.16796875 C-169.32540527 50.73226562 -168.61174805 50.2965625 -167.87646484 49.84765625 C-150.2485963 39.14655833 -131.71163274 29.68944123 -112.20019531 22.93359375 C-109.64019959 22.0266635 -107.1023381 21.06738342 -104.5625 20.10546875 C-102.6172478 19.37614124 -100.67193558 18.64697378 -98.7265625 17.91796875 C-97.38331909 17.40508301 -97.38331909 17.40508301 -96.01293945 16.88183594 C-90.58379613 14.87485879 -85.34030261 13.56505551 -79.63110352 12.62890625 C-75.88496426 11.96273775 -72.30320435 10.88702269 -68.6640625 9.79296875 C-54.33168835 5.67873429 -39.91302185 2.87271908 -24.99609375 2.34375 C-22.10862759 2.36664706 -22.10862759 2.36664706 -20.0390625 1.16796875 C-13.39698649 0.1519603 -6.70619815 0.00867123 0 0 Z " fill="#020202" transform="translate(485.0390625,142.83203125)"/>
<path d="M0 0 C0.33 0 0.66 0 1 0 C1.05945801 1.39061646 1.05945801 1.39061646 1.12011719 2.80932617 C2.60914053 36.36788128 5.07752744 69.2859938 13.03369141 101.99365234 C13.8719116 105.44450413 14.67025614 108.90337571 15.45840454 112.3659668 C19.16607712 128.63426492 23.38128348 144.46762871 29.39257812 160.07177734 C30 162 30 162 30 165 C28.5551281 166.52196598 28.5551281 166.52196598 26.54244995 168.15016174 C21.87709652 172.06355492 17.60560969 176.27476338 13.32080078 180.59741211 C12.08028709 181.84252563 12.08028709 181.84252563 10.81471252 183.11279297 C9.03325853 184.90135959 7.2529338 186.69105156 5.47363663 188.48176384 C2.66078285 191.31208785 -0.15557072 194.13890024 -2.97317505 196.9644928 C-10.97843081 204.99379512 -18.9775976 213.02914807 -26.97265625 221.06860352 C-31.40123325 225.52169365 -35.83337032 229.97120937 -40.2693845 234.41689116 C-42.6129075 236.76588769 -44.95382137 239.11739773 -47.29140854 241.47230339 C-49.88884479 244.08883104 -52.49226741 246.69925617 -55.09716797 249.30834961 C-55.87222183 250.09216507 -56.6472757 250.87598053 -57.44581604 251.68354797 C-58.15220718 252.38863495 -58.85859833 253.09372192 -59.58639526 253.82017517 C-60.20098036 254.43790267 -60.81556545 255.05563017 -61.44877434 255.69207668 C-63 257 -63 257 -65 257 C-68.86225729 241.73845906 -68.18657083 225.41647606 -68.18530273 209.77832031 C-68.18750719 206.74009541 -68.20579798 203.70222453 -68.22460938 200.6640625 C-68.2539675 190.55073051 -67.85619018 180.96833339 -66 171 C-65.73511943 169.00468573 -65.48641472 167.00715754 -65.25390625 165.0078125 C-63.47004864 149.82599165 -61.10318178 135.20933393 -56.80126953 120.51416016 C-55.71566532 116.77504748 -54.8133328 113.09273546 -54.1328125 109.2578125 C-52.92017319 102.98738894 -50.69657875 97.14613027 -48.4375 91.1875 C-47.99132324 90.00188477 -47.54514648 88.81626953 -47.08544922 87.59472656 C-35.54339108 57.20023126 -21.58544734 24.74457348 0 0 Z " fill="#020202" transform="translate(211,290)"/>
<path d="M0 0 C1.03001633 0.34890793 2.06003265 0.69781586 3.1212616 1.05729675 C4.09966003 1.33186707 5.07805847 1.60643738 6.08610535 1.889328 C7.06708191 2.21288269 8.04805847 2.53643738 9.0587616 2.86979675 C14.52960073 4.6062747 20.02057978 6.05914809 25.59757996 7.4115448 C32.37190495 9.07675549 39.06643744 11.00226201 45.76383972 12.95133972 C54.03045707 15.35106959 62.08064565 17.27387857 70.60075378 18.53044128 C74.14897135 19.06144361 77.68520186 19.64358585 81.2228241 20.2408905 C107.15479519 24.58461575 132.79781331 27.48988647 159.1212616 28.05729675 C150.45486755 36.90793607 138.80004034 42.72875506 128.13639832 48.88298035 C126.38082748 49.90603532 124.64203427 50.95777414 122.90641785 52.014328 C111.48420234 58.85613427 99.25745465 64.15198189 87.15055847 69.65031433 C85.0545033 70.62384479 82.97687458 71.63768313 80.91569519 72.68302917 C78.02226241 74.10598332 75.38713867 74.85747268 72.2462616 75.55729675 C68.16849198 76.52557987 64.33826127 77.626466 60.4493866 79.170578 C57.18412606 80.41422589 53.87300651 81.51545238 50.5587616 82.61979675 C49.31997253 83.03358582 48.08118347 83.44737488 46.80485535 83.873703 C34.22239329 87.9166362 21.51340609 89.79770971 8.47721863 91.70915222 C5.39784244 92.16419786 2.32195008 92.64051769 -0.7537384 93.11979675 C-1.71417053 93.26320496 -2.67460266 93.40661316 -3.66413879 93.55436707 C-5.6303571 93.86198533 -7.59288827 94.19658408 -9.54621887 94.57756042 C-21.37817999 96.6742521 -33.32268782 96.35797584 -45.29914856 96.31803894 C-49.10578998 96.30736112 -52.91195546 96.31795539 -56.71858215 96.33073425 C-69.90660607 96.33718821 -82.81991072 95.97015139 -95.8787384 94.05729675 C-94.45695505 90.83322774 -92.73784063 88.65438854 -90.26858521 86.15280151 C-89.51867813 85.38858383 -88.76877106 84.62436615 -87.99613953 83.83699036 C-86.76107162 82.59385574 -86.76107162 82.59385574 -85.50105286 81.3256073 C-84.6341835 80.44559555 -83.76731415 79.5655838 -82.87417603 78.65890503 C-80.00271525 75.74801016 -77.12326784 72.8452126 -74.24201965 69.9440155 C-73.24966945 68.9435673 -72.25738749 67.9430514 -71.26517296 66.94246864 C-66.60533429 62.24456395 -61.94071677 57.55146941 -57.2701543 52.86422604 C-51.88030664 47.45480851 -46.50744164 42.02922545 -41.14831001 36.58937997 C-37.00257806 32.38336683 -32.84164797 28.19278652 -28.66898316 24.01349288 C-26.1777858 21.51759212 -23.69364899 19.01550571 -21.22535133 16.49693871 C-18.47330728 13.68975474 -15.69012033 10.91479524 -12.90339661 8.14201355 C-12.09013916 7.30313599 -11.27688171 6.46425842 -10.4389801 5.59996033 C-4.80767644 0.07101903 -4.80767644 0.07101903 0 0 Z " fill="#020202" transform="translate(549.8787384033203,759.9427032470703)"/>
<path d="M0 0 C1.98409576 14.26913518 2.35859841 28.35613606 2.3125 42.75 C2.31134186 43.86918823 2.31018372 44.98837646 2.30899048 46.14147949 C2.26498211 67.67829197 1.68282009 89.27758544 -3.22241211 110.35400391 C-3.90004487 113.53132499 -4.40670621 116.69011073 -4.86074829 119.90536499 C-6.41226789 130.51303217 -9.33139568 140.47586213 -12.71337891 150.63085938 C-13.62011664 153.36030021 -14.50079481 156.09717115 -15.37890625 158.8359375 C-19.19564216 170.56043946 -23.81945711 181.70113052 -29.02838135 192.86938477 C-30.32510112 195.71289841 -31.48684163 198.60380241 -32.640625 201.5078125 C-35.1489392 207.61566476 -38.3694513 213.21351574 -41.75 218.875 C-42.36254639 219.91205078 -42.97509277 220.94910156 -43.60620117 222.01757812 C-53.40552529 238.52441282 -53.40552529 238.52441282 -58 245 C-58.33 245 -58.66 245 -59 245 C-59.02870178 244.42546585 -59.05740356 243.8509317 -59.0869751 243.25898743 C-61.799518 188.02368503 -61.799518 188.02368503 -73.1484375 133.9921875 C-73.99822791 131.00622672 -74.39133058 128.26056524 -74.65625 125.1875 C-75.15037477 122.04306961 -76.09553853 119.04523718 -77 116 C-77.46898095 114.37023203 -77.93631904 112.73999075 -78.40234375 111.109375 C-78.65306641 110.23410156 -78.90378906 109.35882812 -79.16210938 108.45703125 C-79.41798828 107.56371094 -79.67386719 106.67039062 -79.9375 105.75 C-80.18951172 104.87214844 -80.44152344 103.99429688 -80.70117188 103.08984375 C-82.02799519 98.45444567 -83.33026501 93.81363203 -84.59594727 89.16113281 C-84.86053238 88.18911926 -85.12511749 87.21710571 -85.39772034 86.21563721 C-85.59647263 85.48447693 -85.79522491 84.75331665 -86 84 C-75.08836971 73.0417032 -64.17105604 62.08909349 -53.24690437 51.14328003 C-48.17506435 46.0611159 -43.10511868 40.97708831 -38.03955078 35.88867188 C-33.62574877 31.45497062 -29.20847333 27.02476515 -24.78694522 22.59876823 C-22.4446795 20.25388923 -20.10474912 17.90675401 -17.76791763 15.55645752 C-15.16253305 12.93665296 -12.55105669 10.32307477 -9.93798828 7.7109375 C-8.77058105 6.53274445 -8.77058105 6.53274445 -7.57958984 5.33074951 C-6.87005157 4.62396057 -6.16051331 3.91717163 -5.42947388 3.18896484 C-4.81187258 2.56951996 -4.19427128 1.95007507 -3.55795479 1.31185913 C-2 0 -2 0 0 0 Z " fill="#020202" transform="translate(854,454)"/>
<path d="M0 0 C2 1 2 1 2.83789062 3.21801758 C3.10794922 4.18376709 3.37800781 5.1495166 3.65625 6.14453125 C4.10677734 7.75038086 4.10677734 7.75038086 4.56640625 9.38867188 C4.87449219 10.51853516 5.18257812 11.64839844 5.5 12.8125 C5.80808594 13.89982422 6.11617187 14.98714844 6.43359375 16.10742188 C8.18945696 22.44887633 9.54774064 28.72777641 10.55224609 35.22924805 C11.19318981 39.19548046 12.09870284 43.08661432 13 47 C14.52789213 53.96642257 15.81062564 60.96832582 17 68 C17.18916992 69.10746582 17.37833984 70.21493164 17.57324219 71.35595703 C20.65902097 90.25569719 21.39778582 108.92952081 21.4375 128.0625 C21.44358276 129.18133575 21.44966553 130.30017151 21.45593262 131.45291138 C21.50172664 144.31099947 21.0615374 156.4681069 18 169 C12.48257061 164.40229877 7.37584918 159.51275116 2.31079102 154.42431641 C1.05104713 153.16479156 1.05104713 153.16479156 -0.23414612 151.87982178 C-2.51646567 149.59692854 -4.79656386 147.31184536 -7.07565951 145.02573442 C-9.46546682 142.62963865 -11.85814213 140.23641015 -14.25050354 137.84286499 C-18.77136042 133.3189109 -23.28966403 128.79241577 -27.80703646 124.26498258 C-32.95384057 119.10696712 -38.10351424 113.9518206 -43.25342071 108.79690289 C-53.83879052 98.20110519 -64.42058456 87.60174313 -75 77 C-73.67958555 74.07742561 -72.25571935 72.00741791 -69.98812866 69.74761963 C-69.37114609 69.12788773 -68.75416351 68.50815582 -68.1184845 67.86964417 C-67.44307114 67.20142136 -66.76765778 66.53319855 -66.07177734 65.84472656 C-65.35947464 65.13213181 -64.64717194 64.41953705 -63.9132843 63.68534851 C-61.5588785 61.33233549 -59.19746875 58.9864849 -56.8359375 56.640625 C-55.20168245 55.01010025 -53.56786854 53.37913324 -51.93447876 51.7477417 C-47.63493527 47.45583324 -43.32941935 43.16996486 -39.02264404 38.88531494 C-34.62866977 34.51180178 -30.24035397 30.13261921 -25.8515625 25.75390625 C-17.23991236 17.16370375 -8.62194389 8.5798698 0 0 Z " fill="#030303" transform="translate(741,565)"/>
<path d="M0 0 C3.16477549 1.40104289 5.30293141 3.05188579 7.74591064 5.49194336 C8.8395845 6.57715775 8.8395845 6.57715775 9.95535278 7.68429565 C10.74513519 8.47812653 11.5349176 9.2719574 12.34863281 10.08984375 C13.18802399 10.92573029 14.02741516 11.76161682 14.89224243 12.62283325 C17.1891118 14.91241256 19.48142716 17.2064303 21.7714777 19.50282669 C24.16812411 21.90453879 26.56964874 24.301365 28.97039795 26.69897461 C32.99884478 30.72378487 37.02306027 34.75278977 41.04492188 38.78417969 C45.69913954 43.44929608 50.36053851 48.10714377 55.02570462 52.76130962 C59.02943421 56.75597516 63.02926803 60.7545101 67.0258472 64.75632954 C69.41363583 67.14724083 71.80276623 69.5367692 74.19541168 71.92282104 C76.85811266 74.58047081 79.51436472 77.24439888 82.16894531 79.91015625 C82.96682465 80.70398712 83.76470398 81.49781799 84.58676147 82.31570435 C85.30459808 83.0391806 86.02243469 83.76265686 86.76202393 84.50805664 C87.39102222 85.13780899 88.02002052 85.76756134 88.66807938 86.41639709 C90 88 90 88 90 90 C88.71980286 91.25648499 88.71980286 91.25648499 86.83520508 92.78930664 C81.06857232 97.6979914 75.82249892 103.09838081 70.50449181 108.48147392 C68.60331605 110.40488715 66.69801499 112.32412412 64.79145813 114.24220276 C59.37707058 119.69000678 53.96712078 125.14216222 48.56713867 130.60424805 C45.25104363 133.95789215 41.92775762 137.304262 38.59967995 140.64601326 C37.33499574 141.91876239 36.07309668 143.19428521 34.8140316 144.47259331 C33.06207417 146.25089662 31.30115353 148.01983049 29.5378418 149.78686523 C28.75935883 150.58388351 28.75935883 150.58388351 27.96514893 151.39700317 C24.34195597 155 24.34195597 155 21 155 C20.23921908 152.8579652 19.49225791 150.71102365 18.75 148.5625 C18.33234375 147.36753906 17.9146875 146.17257812 17.484375 144.94140625 C13.14705457 131.2697133 10.67372129 116.93283611 7.9375 102.875 C7.67512039 101.53169617 7.67512039 101.53169617 7.40744019 100.16125488 C4.75086465 86.50443243 2.31383885 72.86161512 1 59 C0.9064624 58.12448486 0.8129248 57.24896973 0.71655273 56.34692383 C-0.35168526 44.98509595 -0.10890808 33.58725166 -0.0625 22.1875 C-0.05747453 20.0306 -0.05291348 17.87369886 -0.04882812 15.71679688 C-0.03790651 10.47783947 -0.02125158 5.23892516 0 0 Z " fill="#020202" transform="translate(245,271)"/>
<path d="M0 0 C3.14604118 1.3951019 5.27862055 3.02759299 7.70794678 5.45397949 C8.42864853 6.1690416 9.14935028 6.8841037 9.89189148 7.62083435 C10.67232315 8.40531448 11.45275482 9.18979462 12.25683594 9.99804688 C13.50129234 11.23724632 13.50129234 11.23724632 14.77088928 12.5014801 C17.51377392 15.23555654 20.249272 17.97689059 22.984375 20.71875 C24.88363574 22.61756568 26.78409223 24.51518331 28.68438721 26.41296387 C32.66575563 30.39069581 36.6428927 34.37262196 40.61767578 38.35693359 C45.21736197 42.96751867 49.82422918 47.57083429 54.43486381 52.17046881 C58.39188473 56.11842561 62.34500965 60.07025175 66.29488015 64.02536249 C68.65472217 66.38832711 71.01590991 68.74991304 73.3806076 71.10801697 C76.01217597 73.73453403 78.63729427 76.36732855 81.26074219 79.00195312 C82.04927078 79.78643326 82.83779938 80.57091339 83.65022278 81.37916565 C84.35964523 82.09422775 85.06906769 82.80928986 85.79998779 83.54602051 C86.42161175 84.16839851 87.0432357 84.79077652 87.68369675 85.43201447 C89 87 89 87 89 89 C53.53901343 89.19246527 18.4363807 89.18150135 -16.25292969 80.65527344 C-19.80855966 79.80712992 -23.37645303 79.01666135 -26.9453125 78.2265625 C-28.37639768 77.90867403 -29.80746855 77.59072109 -31.23852539 77.27270508 C-33.3947879 76.7936133 -35.55114874 76.31500799 -37.70797729 75.83847046 C-39.72410928 75.39200165 -41.73910867 74.94072825 -43.75390625 74.48828125 C-44.93283447 74.22571533 -46.1117627 73.96314941 -47.32641602 73.69262695 C-50 73 -50 73 -51 72 C-53.7034148 71.46022423 -56.41895551 71.03533013 -59.140625 70.59765625 C-61.94419023 70.01166516 -64.37998058 69.1426727 -67 68 C-63.09516632 63.32700305 -59.03853642 58.89671582 -54.71923828 54.60571289 C-54.12339432 54.0097229 -53.52755035 53.41373291 -52.91365051 52.79968262 C-50.96823528 50.85495705 -49.01931586 48.9137852 -47.0703125 46.97265625 C-45.71103383 45.61524512 -44.3519776 44.25761121 -42.99313354 42.89976501 C-39.43454553 39.34497567 -35.87296355 35.79320107 -32.31072998 32.24206543 C-28.6688668 28.61047362 -25.02987037 24.97601168 -21.390625 21.34179688 C-14.26320489 14.22506729 -7.13261559 7.11152223 0 0 Z " fill="#030303" transform="translate(640,666)"/>
<path d="M0 0 C6.67232071 -0.09361244 13.23322799 0.1494983 19.87890625 0.734375 C20.79681442 0.81231293 21.7147226 0.89025085 22.66044617 0.97055054 C25.62829504 1.22496211 28.59541777 1.48680747 31.5625 1.75 C33.08792419 1.88338776 33.08792419 1.88338776 34.64416504 2.01947021 C51.74261291 3.5201051 68.76017111 5.40897657 85.78173828 7.60351562 C89.22839284 8.02813761 92.67566296 8.36667539 96.13354492 8.68237305 C116.34230812 10.57762018 136.51212447 15.45307321 156 21 C152.18803678 25.55644163 148.24735933 29.89242554 144.02636719 34.07128906 C143.46299652 34.63319946 142.89962585 35.19510986 142.31918335 35.77404785 C141.1090395 36.98041755 139.897743 38.18563193 138.68538666 39.38977814 C136.76646115 41.29583488 134.85076939 43.20509034 132.93585205 45.11517334 C128.87671407 49.16294415 124.8136397 53.20674926 120.75 57.25 C116.02507527 61.95130705 111.3017871 66.6542345 106.58267975 71.36138153 C104.69572372 73.24185817 102.80578167 75.11929829 100.91571045 76.99664307 C99.76234463 78.14637739 98.6091184 79.29625176 97.45605469 80.44628906 C96.66746567 81.2271286 96.66746567 81.2271286 95.86294556 82.02374268 C93.62395235 84.26240849 91.76442389 86.35336417 90 89 C86.83212134 87.59833782 84.69668111 85.9460297 82.25408936 83.50132751 C81.1604155 82.41394539 81.1604155 82.41394539 80.04464722 81.30459595 C79.25486481 80.50919403 78.4650824 79.71379211 77.65136719 78.89428711 C76.81197601 78.05679428 75.97258484 77.21930145 75.10775757 76.35643005 C72.81096425 74.06270475 70.51869592 71.76457334 68.2285223 69.46424174 C65.83217066 67.05910128 63.43054315 64.65923966 61.02960205 62.25868225 C57.00134211 58.22948644 52.9769711 54.19643941 48.95507812 50.16088867 C44.29931066 45.48936986 39.63831104 40.82312443 34.97429538 36.15984148 C30.49105689 31.67721227 26.01067704 27.1917379 21.5318985 22.70465279 C19.62358147 20.79279739 17.71441047 18.88180073 15.80458832 16.9714489 C13.14421102 14.30891672 10.4871452 11.64312604 7.83105469 8.97631836 C7.03317535 8.17889221 6.23529602 7.38146606 5.41323853 6.55987549 C4.69540192 5.8377739 3.97756531 5.1156723 3.23797607 4.37168884 C2.60897778 3.7410147 1.97997948 3.11034056 1.33192062 2.46055508 C0 1 0 1 0 0 Z " fill="#020202" transform="translate(271,246)"/>
<path d="M0 0 C0.66 0.33 1.32 0.66 2 1 C-9.22 12.22 -20.44 23.44 -32 35 C-32.66 34.67 -33.32 34.34 -34 34 C-31.5021744 31.33128968 -29.00133065 28.66542504 -26.5 26 C-25.80390625 25.25621094 -25.1078125 24.51242188 -24.390625 23.74609375 C-12.05144008 10.60714684 -12.05144008 10.60714684 -5.625 5.125 C-3.67895038 3.45806507 -1.81296709 1.81296709 0 0 Z " fill="#D3D3D3" transform="translate(243,206)"/>
<path d="M0 0 C0.33 0 0.66 0 1 0 C1 5.94 1 11.88 1 18 C0.67 18 0.34 18 0 18 C-0.33 13.71 -0.66 9.42 -1 5 C-2.32 5.99 -3.64 6.98 -5 8 C-3.6299034 5.0490227 -2.06764583 2.51713405 0 0 Z " fill="#323232" transform="translate(211,290)"/>
</svg>
