<?xml version="1.0" encoding="UTF-8"?>
<svg version="1.1" xmlns="http://www.w3.org/2000/svg" width="48" height="48">
<path d="M0 0 C0.83208984 -0.00287018 1.66417969 -0.00574036 2.52148438 -0.00869751 C4.27995484 -0.01073812 6.03844801 -0.00520843 7.796875 0.00732422 C10.49009913 0.02337848 13.1818226 0.00747605 15.875 -0.01171875 C17.58333665 -0.00973632 19.29167236 -0.00589264 21 0 C22.20946289 -0.00910904 22.20946289 -0.00910904 23.44335938 -0.0184021 C29.03957715 0.05207602 29.03957715 0.05207602 31.21206665 1.68637085 C33.45312636 4.66544084 32.92543838 8.31336544 32.8984375 11.8984375 C32.90130768 12.73052734 32.90417786 13.56261719 32.90713501 14.41992188 C32.90917562 16.17839234 32.90364593 17.93688551 32.89111328 19.6953125 C32.87505902 22.38853663 32.89096145 25.0802601 32.91015625 27.7734375 C32.90817382 29.48177415 32.90433014 31.19010986 32.8984375 32.8984375 C32.90754654 34.10790039 32.90754654 34.10790039 32.9168396 35.34179688 C32.84636148 40.93801465 32.84636148 40.93801465 31.21206665 43.11050415 C28.23299666 45.35156386 24.58507206 44.82387588 21 44.796875 C20.16791016 44.79974518 19.33582031 44.80261536 18.47851562 44.80557251 C16.72004516 44.80761312 14.96155199 44.80208343 13.203125 44.78955078 C10.50990087 44.77349652 7.8181774 44.78939895 5.125 44.80859375 C3.41666335 44.80661132 1.70832764 44.80276764 0 44.796875 C-0.80630859 44.80294769 -1.61261719 44.80902039 -2.44335938 44.8152771 C-8.03957715 44.74479898 -8.03957715 44.74479898 -10.21206665 43.11050415 C-12.45312636 40.13143416 -11.92543838 36.48350956 -11.8984375 32.8984375 C-11.90130768 32.06634766 -11.90417786 31.23425781 -11.90713501 30.37695312 C-11.90917562 28.61848266 -11.90364593 26.85998949 -11.89111328 25.1015625 C-11.87505902 22.40833837 -11.89096145 19.7166149 -11.91015625 17.0234375 C-11.90817382 15.31510085 -11.90433014 13.60676514 -11.8984375 11.8984375 C-11.90451019 11.09212891 -11.91058289 10.28582031 -11.9168396 9.45507812 C-11.84636148 3.85886035 -11.84636148 3.85886035 -10.21206665 1.68637085 C-7.23299666 -0.55468886 -3.58507206 -0.02700088 0 0 Z " fill="#010101" transform="translate(13.5,1.6015625)"/>
<path d="M0 0 C1.07507813 -0.00128906 2.15015625 -0.00257812 3.2578125 -0.00390625 C4.38960937 -0.00003906 5.52140625 0.00382813 6.6875 0.0078125 C7.81929687 0.00394531 8.95109375 0.00007812 10.1171875 -0.00390625 C11.19226563 -0.00261719 12.26734375 -0.00132813 13.375 0 C14.86580078 0.00169189 14.86580078 0.00169189 16.38671875 0.00341797 C18.6875 0.1328125 18.6875 0.1328125 19.6875 1.1328125 C19.78696453 2.90140443 19.81830217 4.67392701 19.8203125 6.4453125 C19.82224609 8.05792969 19.82224609 8.05792969 19.82421875 9.703125 C19.82035156 10.83492187 19.81648438 11.96671875 19.8125 13.1328125 C19.81830078 14.83050781 19.81830078 14.83050781 19.82421875 16.5625 C19.82292969 17.63757813 19.82164063 18.71265625 19.8203125 19.8203125 C19.81918457 20.81417969 19.81805664 21.80804688 19.81689453 22.83203125 C19.6875 25.1328125 19.6875 25.1328125 18.6875 26.1328125 C16.91890807 26.23227703 15.14638549 26.26361467 13.375 26.265625 C12.29992187 26.26691406 11.22484375 26.26820312 10.1171875 26.26953125 C8.98539063 26.26566406 7.85359375 26.26179688 6.6875 26.2578125 C5.55570313 26.26167969 4.42390625 26.26554687 3.2578125 26.26953125 C2.18273437 26.26824219 1.10765625 26.26695313 0 26.265625 C-0.99386719 26.26449707 -1.98773438 26.26336914 -3.01171875 26.26220703 C-5.3125 26.1328125 -5.3125 26.1328125 -6.3125 25.1328125 C-6.41196453 23.36422057 -6.44330217 21.59169799 -6.4453125 19.8203125 C-6.44660156 18.74523437 -6.44789062 17.67015625 -6.44921875 16.5625 C-6.44341797 14.86480469 -6.44341797 14.86480469 -6.4375 13.1328125 C-6.44136719 12.00101563 -6.44523438 10.86921875 -6.44921875 9.703125 C-6.44792969 8.62804687 -6.44664063 7.55296875 -6.4453125 6.4453125 C-6.44418457 5.45144531 -6.44305664 4.45757812 -6.44189453 3.43359375 C-6.19695254 -0.92175212 -3.80529632 0.00431859 0 0 Z " fill="#FDFDFD" transform="translate(17.3125,10.8671875)"/>
<path d="M0 0 C0.83208984 -0.00287018 1.66417969 -0.00574036 2.52148438 -0.00869751 C4.27995484 -0.01073812 6.03844801 -0.00520843 7.796875 0.00732422 C10.49009913 0.02337848 13.1818226 0.00747605 15.875 -0.01171875 C17.58333665 -0.00973632 19.29167236 -0.00589264 21 0 C22.20946289 -0.00910904 22.20946289 -0.00910904 23.44335938 -0.0184021 C29.03957715 0.05207602 29.03957715 0.05207602 31.21206665 1.68637085 C33.45312636 4.66544084 32.92543838 8.31336544 32.8984375 11.8984375 C32.90130768 12.73052734 32.90417786 13.56261719 32.90713501 14.41992188 C32.90917562 16.17839234 32.90364593 17.93688551 32.89111328 19.6953125 C32.87505902 22.38853663 32.89096145 25.0802601 32.91015625 27.7734375 C32.90817382 29.48177415 32.90433014 31.19010986 32.8984375 32.8984375 C32.90754654 34.10790039 32.90754654 34.10790039 32.9168396 35.34179688 C32.84636148 40.93801465 32.84636148 40.93801465 31.21206665 43.11050415 C28.23299666 45.35156386 24.58507206 44.82387588 21 44.796875 C20.16791016 44.79974518 19.33582031 44.80261536 18.47851562 44.80557251 C16.72004516 44.80761312 14.96155199 44.80208343 13.203125 44.78955078 C10.50990087 44.77349652 7.8181774 44.78939895 5.125 44.80859375 C3.41666335 44.80661132 1.70832764 44.80276764 0 44.796875 C-0.80630859 44.80294769 -1.61261719 44.80902039 -2.44335938 44.8152771 C-8.03957715 44.74479898 -8.03957715 44.74479898 -10.21206665 43.11050415 C-12.45312636 40.13143416 -11.92543838 36.48350956 -11.8984375 32.8984375 C-11.90130768 32.06634766 -11.90417786 31.23425781 -11.90713501 30.37695312 C-11.90917562 28.61848266 -11.90364593 26.85998949 -11.89111328 25.1015625 C-11.87505902 22.40833837 -11.89096145 19.7166149 -11.91015625 17.0234375 C-11.90817382 15.31510085 -11.90433014 13.60676514 -11.8984375 11.8984375 C-11.90451019 11.09212891 -11.91058289 10.28582031 -11.9168396 9.45507812 C-11.84636148 3.85886035 -11.84636148 3.85886035 -10.21206665 1.68637085 C-7.23299666 -0.55468886 -3.58507206 -0.02700088 0 0 Z M-8.45166016 3.44677734 C-10.10059952 6.51655408 -9.92714967 9.62483043 -9.8984375 13.0234375 C-9.90130768 13.76674316 -9.90417786 14.51004883 -9.90713501 15.27587891 C-9.90917476 16.8460364 -9.903651 18.41621936 -9.89111328 19.98632812 C-9.87505703 22.38990082 -9.89096352 24.79179211 -9.91015625 27.1953125 C-9.9081738 28.72135788 -9.90433009 30.24740221 -9.8984375 31.7734375 C-9.90451019 32.49225098 -9.91058289 33.21106445 -9.9168396 33.95166016 C-9.87795369 36.71003329 -9.77205848 38.9000693 -8.43579102 41.34790039 C-5.44394693 42.9715484 -2.44924708 42.84608038 0.87109375 42.83203125 C1.5898317 42.8372731 2.30856964 42.84251495 3.04908752 42.84791565 C4.56794952 42.85433356 6.08686123 42.85300175 7.60571289 42.84448242 C9.92619686 42.83597892 12.24421286 42.8647205 14.56445312 42.89648438 C16.04166593 42.89809674 17.51888308 42.89751819 18.99609375 42.89453125 C20.03376137 42.91138222 20.03376137 42.91138222 21.09239197 42.92857361 C24.26425773 42.88284572 26.24886601 42.55933829 28.93798828 40.83642578 C31.04198354 37.55250946 31.05745268 34.67295982 30.99609375 30.89453125 C30.9982766 29.81498924 30.9982766 29.81498924 31.00050354 28.71363831 C30.9988476 27.19650207 30.98732026 25.67934851 30.96655273 24.16235352 C30.9375499 21.83993309 30.9459572 19.51978997 30.95898438 17.19726562 C30.9527479 15.72134308 30.94435766 14.24542772 30.93359375 12.76953125 C30.93652939 12.07572861 30.93946503 11.38192596 30.94248962 10.667099 C30.88977582 7.9759745 30.74566178 5.85111057 29.44946289 3.46264648 C26.38552007 1.79004451 23.2775654 1.97125439 19.875 2 C19.13169434 1.99712982 18.38838867 1.99425964 17.62255859 1.99130249 C16.0524011 1.98926274 14.48221814 1.9947865 12.91210938 2.00732422 C10.50853668 2.02338047 8.10664539 2.00747398 5.703125 1.98828125 C4.17707962 1.9902637 2.65103529 1.99410741 1.125 2 C0.40618652 1.99392731 -0.31262695 1.98785461 -1.05322266 1.9815979 C-3.80404974 2.02037743 -6.00248134 2.13119393 -8.45166016 3.44677734 Z " fill="#E4E4E4" transform="translate(13.5,1.6015625)"/>
<path d="M0 0 C0.9075 0.00257812 1.815 0.00515625 2.75 0.0078125 C4.11125 0.00394531 4.11125 0.00394531 5.5 0 C7.75 0.1328125 7.75 0.1328125 8.75 1.1328125 C8.84823937 2.79710301 8.87973631 4.46563181 8.875 6.1328125 C8.87757812 7.0403125 8.88015625 7.9478125 8.8828125 8.8828125 C8.75 11.1328125 8.75 11.1328125 7.75 12.1328125 C6.08570949 12.23105187 4.41718069 12.26254881 2.75 12.2578125 C1.38875 12.26167969 1.38875 12.26167969 0 12.265625 C-2.25 12.1328125 -2.25 12.1328125 -3.25 11.1328125 C-3.34823937 9.46852199 -3.37973631 7.79999319 -3.375 6.1328125 C-3.37757812 5.2253125 -3.38015625 4.3178125 -3.3828125 3.3828125 C-3.20347538 0.34463064 -3.03818186 0.17933712 0 0 Z " fill="#1D1D1D" transform="translate(21.25,17.8671875)"/>
<path d="M0 0 C0.83208984 -0.00287018 1.66417969 -0.00574036 2.52148438 -0.00869751 C4.27995484 -0.01073812 6.03844801 -0.00520843 7.796875 0.00732422 C10.49009913 0.02337848 13.1818226 0.00747605 15.875 -0.01171875 C17.58333665 -0.00973632 19.29167236 -0.00589264 21 0 C22.20946289 -0.00910904 22.20946289 -0.00910904 23.44335938 -0.0184021 C29.10640889 0.05291769 29.10640889 0.05291769 31.23632812 1.92269897 C31.65333984 2.40969269 32.07035156 2.8966864 32.5 3.3984375 C32.17 4.0584375 31.84 4.7184375 31.5 5.3984375 C31.00000488 5.07391602 30.50000977 4.74939453 29.98486328 4.41503906 C26.58702183 3.02492197 23.3545254 3.11240983 19.7421875 3.1328125 C18.99792511 3.13089905 18.25366272 3.1289856 17.48684692 3.12701416 C15.91847392 3.12565646 14.35008953 3.1293239 12.78173828 3.13769531 C10.37637281 3.14843137 7.97174903 3.13777086 5.56640625 3.125 C4.04166502 3.12632108 2.51692424 3.12888239 0.9921875 3.1328125 C-0.08906906 3.12673981 -0.08906906 3.12673981 -1.19216919 3.12054443 C-5.2987246 3.03598202 -5.2987246 3.03598202 -8.5 5.3984375 C-8.74501495 7.83020147 -8.87324921 10.15708634 -8.9140625 12.59375 C-8.93342865 13.30119354 -8.9527948 14.00863708 -8.9727478 14.73751831 C-9.03257652 16.99936835 -9.07894101 19.2612692 -9.125 21.5234375 C-9.16317686 23.0560119 -9.20222842 24.58856478 -9.2421875 26.12109375 C-9.33828039 29.88003374 -9.42229849 33.63907418 -9.5 37.3984375 C-9.83 37.3984375 -10.16 37.3984375 -10.5 37.3984375 C-10.71710487 32.61186441 -10.91395012 27.82504894 -11.09204102 23.03686523 C-11.15547997 21.40805796 -11.22445596 19.77945656 -11.29907227 18.15112305 C-11.40535765 15.8107047 -11.49172142 13.4702688 -11.57421875 11.12890625 C-11.61157639 10.40068161 -11.64893402 9.67245697 -11.68742371 8.92216492 C-11.83845869 3.84613476 -11.83845869 3.84613476 -10.22077942 1.7063446 C-7.24150079 -0.55810582 -3.59677778 -0.02708904 0 0 Z " fill="#BDBDBD" transform="translate(13.5,1.6015625)"/>
<path d="M0 0 C0.66 0.33 1.32 0.66 2 1 C2.07413521 6.07198888 2.12859451 11.14366268 2.16479492 16.21606445 C2.17988516 17.94170627 2.20035975 19.66730972 2.22631836 21.39282227 C2.26269209 23.87265488 2.27972359 26.35198064 2.29296875 28.83203125 C2.30845261 29.60400345 2.32393646 30.37597565 2.33988953 31.17134094 C2.34158031 36.54769033 2.34158031 36.54769033 0.48168945 39.01049805 C-0.00726807 39.33703369 -0.49622559 39.66356934 -1 40 C-3 39 -3 39 -4 37 C-3.5155542 36.66444092 -3.0311084 36.32888184 -2.53198242 35.9831543 C-0.22714216 32.99953398 -0.52008399 29.89391642 -0.48828125 26.26953125 C-0.47033005 25.51911057 -0.45237885 24.76868988 -0.43388367 23.99552917 C-0.37974813 21.6012431 -0.34587584 19.20715669 -0.3125 16.8125 C-0.27932964 15.18812323 -0.24484024 13.56377283 -0.20898438 11.93945312 C-0.1240203 7.95977944 -0.05722535 3.9801653 0 0 Z " fill="#D6D6D6" transform="translate(44,6)"/>
</svg>
