<?xml version="1.0" encoding="UTF-8"?>
<svg version="1.1" xmlns="http://www.w3.org/2000/svg" width="1000" height="1000">
<path d="M0 0 C0.97243652 0.2376709 1.94487305 0.4753418 2.94677734 0.72021484 C50.50069959 12.51589064 96.43496422 30.94764709 138.33837891 56.38769531 C140.83369237 57.89925742 143.3416092 59.38674023 145.85546875 60.8671875 C156.70101511 67.30221937 166.88929272 74.47286412 177 82 C178.43349615 83.05872591 179.86708842 84.11732169 181.30078125 85.17578125 C189.041005 90.91313168 196.63123249 96.78873875 204 103 C204.55961426 103.46937988 205.11922852 103.93875977 205.69580078 104.42236328 C212.10365184 109.80578879 218.38884727 115.19966869 224.21875 121.21484375 C226.03384546 123.03391968 227.92233917 124.70516504 229.875 126.375 C236.77440561 132.3255679 243.12609941 138.83550142 249.0390625 145.76171875 C251.04377523 148.04996655 253.11757333 150.26477331 255.20361328 152.47875977 C261.42109446 159.09771707 267.07211982 166.01188596 272.60253906 173.20849609 C274.00901196 175.01155306 275.44653495 176.78415434 276.8984375 178.55078125 C284.8939822 188.29572212 292.02617476 198.5051307 299 209 C299.70938721 210.05525879 299.70938721 210.05525879 300.43310547 211.13183594 C308.64848401 223.36303849 315.94334456 236.07074738 323 249 C323.54446777 249.99563965 324.08893555 250.9912793 324.64990234 252.01708984 C353.51434733 305.17398898 370.52382372 363.29771421 379 423 C379.18079102 424.25828613 379.36158203 425.51657227 379.54785156 426.81298828 C384.92601144 466.53973385 384.65709041 510.35112745 379 550 C378.82307617 551.30308105 378.64615234 552.60616211 378.46386719 553.94873047 C375.92915974 572.50167522 372.46437428 590.80925842 368 609 C367.74524902 610.04752441 367.49049805 611.09504883 367.22802734 612.17431641 C352.75652605 670.84967618 326.83457252 728.99127943 290.30419922 777.25146484 C288.53600202 779.62208041 286.83637243 782.03819383 285.13574219 784.45751953 C280.37585441 791.22496649 275.33771149 797.67316334 270 804 C269.1259204 805.0491613 268.25223747 806.09865317 267.37890625 807.1484375 C261.58035178 814.09073403 255.59357734 820.82675481 249.43554688 827.45117188 C247.92454044 829.0814142 246.42242304 830.71950381 244.921875 832.359375 C237.69256855 840.25145285 230.44294622 847.99191747 222.30859375 854.96875 C219.9984855 857.00133255 217.75666721 859.09781569 215.51733398 861.20776367 C208.92573693 867.39761332 202.0683886 873.07661049 194.88183594 878.55957031 C192.92532637 880.05715807 190.9815846 881.57026032 189.0390625 883.0859375 C172.08768162 896.26029423 154.6036832 908.27905974 136 919 C135.05656738 919.54575684 134.11313477 920.09151367 133.14111328 920.65380859 C56.61367063 964.80182012 -29.12481362 987.58571486 -117.4375 987.3125 C-118.70136536 987.31034485 -119.96523071 987.3081897 -121.26739502 987.30596924 C-192.29026847 987.1124708 -261.14705189 972.10330367 -326 943 C-326.79180664 942.64470215 -327.58361328 942.2894043 -328.39941406 941.92333984 C-341.62147919 935.93645446 -354.35955096 929.12431215 -367 922 C-368.15677246 921.34813721 -368.15677246 921.34813721 -369.33691406 920.68310547 C-401.16343434 902.62455439 -430.67112746 880.33016443 -457.45117188 855.43554688 C-459.0814142 853.92454044 -460.71950381 852.42242304 -462.359375 850.921875 C-470.24831149 843.6954461 -477.9817992 836.44670641 -484.9609375 828.3203125 C-487.0352334 825.95990682 -489.16409123 823.66112559 -491.30908203 821.36523438 C-497.1454291 815.11213536 -502.69674615 808.71689723 -508 802 C-508.52883789 801.33307129 -509.05767578 800.66614258 -509.60253906 799.97900391 C-517.07921676 790.53401044 -524.2989747 781.01485351 -531 771 C-531.81717884 769.79781699 -532.63490815 768.59600802 -533.453125 767.39453125 C-543.15506378 753.08062389 -551.7547549 738.19221397 -560 723 C-560.46809082 722.14438477 -560.93618164 721.28876953 -561.41845703 720.40722656 C-596.81455434 655.43745918 -617.92635241 578.38905716 -618.203125 504.23046875 C-618.21018463 502.9632196 -618.21724426 501.69597046 -618.22451782 500.39031982 C-618.24203282 496.32267167 -618.24921007 492.25517798 -618.25 488.1875 C-618.25029457 487.49336628 -618.25058914 486.79923256 -618.25089264 486.08406448 C-618.25234418 464.90507769 -617.94376821 444.01232174 -615 423 C-614.80953695 421.57428834 -614.61961602 420.14850418 -614.43017578 418.72265625 C-605.50316247 352.54165521 -583.12928533 288.39313203 -549 231 C-548.4652002 230.09813965 -547.93040039 229.1962793 -547.37939453 228.26708984 C-539.87810148 215.69583303 -531.75390745 203.72810521 -523 192 C-522.18961975 190.90270134 -521.37968298 189.80507494 -520.5703125 188.70703125 C-518.40243343 185.78695215 -516.20976037 182.88850003 -514 180 C-513.57509277 179.4436084 -513.15018555 178.8872168 -512.71240234 178.31396484 C-507.23809362 171.16919416 -501.62609079 164.28177323 -495.484375 157.6953125 C-493.50848782 155.55166131 -491.58316285 153.38399073 -489.671875 151.18359375 C-486.03794724 147.01486153 -482.28920296 142.96499304 -478.5 138.9375 C-477.56220703 137.93493164 -477.56220703 137.93493164 -476.60546875 136.91210938 C-470.75362839 130.67862725 -464.82943846 124.64160383 -458.34375 119.06640625 C-456.02258166 117.01990949 -453.7672828 114.91191873 -451.51513672 112.79003906 C-444.92403207 106.60118998 -438.06756913 100.9227643 -430.88183594 95.44042969 C-428.92532637 93.94284193 -426.9815846 92.42973968 -425.0390625 90.9140625 C-408.08803594 77.73998114 -390.607242 65.71376926 -372 55 C-371.0502832 54.44844238 -370.10056641 53.89688477 -369.12207031 53.32861328 C-315.01077638 21.99497444 -257.47137355 2.53720639 -196 -8 C-195.05125 -8.16870605 -194.1025 -8.33741211 -193.125 -8.51123047 C-187.43383605 -9.51867927 -181.74253727 -10.34542725 -176 -11 C-175.10297363 -11.10296387 -174.20594727 -11.20592773 -173.28173828 -11.31201172 C-115.80942298 -17.4314357 -56.11511551 -13.8318225 0 0 Z " fill="#000000" transform="translate(618,13)"/>
<path d="M0 0 C0.63034663 16.87480328 1.25480347 33.74982064 1.875 50.625 C1.92109154 51.87835144 1.96718307 53.13170288 2.01467133 54.42303467 C3.26640617 88.49255714 4.46899898 122.56080869 5.31591797 156.64306641 C5.6709255 170.55786327 6.17648067 184.45651058 6.80558801 198.36130023 C7.83312579 221.17263611 8.66559538 243.98746901 9.41436243 266.80942869 C9.57545132 271.70330166 9.73930072 276.59708237 9.90280151 281.49087524 C10.20917131 290.67264256 10.51321865 299.8544851 10.81633365 309.03636038 C11.16273507 319.52580311 11.51187472 330.01515421 11.86119294 340.50450015 C12.57707814 362.00290268 13.28969184 383.50141253 14 405 C7.23242188 408.07617188 0.46484375 411.15234375 -6.30273438 414.22851562 C-7.03323848 414.56057196 -7.76374258 414.89262829 -8.51638317 415.23474693 C-9.97297562 415.89681625 -11.42959537 416.55882549 -12.88624287 417.2207737 C-16.05689369 418.66169365 -19.22712579 420.10350199 -22.39628601 421.54769897 C-23.85274284 422.21123886 -23.85274284 422.21123886 -25.33862305 422.88818359 C-26.16073776 423.26316986 -26.98285248 423.63815613 -27.82987976 424.02450562 C-29.79976222 424.90999078 -31.7792269 425.76324582 -33.76953125 426.6015625 C-37.15286751 428.06617481 -40.40717217 429.69259222 -43.6875 431.375 C-54.77191019 436.98537983 -66.08481291 442.1171898 -77.36376953 447.32080078 C-81.86907917 449.40011706 -86.36893277 451.49113833 -90.86865234 453.58251953 C-94.88836773 455.450738 -98.90920581 457.31653251 -102.93005371 459.18231201 C-106.59954148 460.88527418 -110.26850824 462.58935203 -113.93701172 464.29443359 C-118.43345566 466.38432086 -122.93061223 468.47266882 -127.4281311 470.5602417 C-129.19267533 471.37958637 -130.95698738 472.1994313 -132.72103882 473.01983643 C-141.74947475 477.2182971 -150.79063887 481.38338004 -159.88671875 485.43359375 C-160.62097076 485.76091995 -161.35522278 486.08824615 -162.11172485 486.42549133 C-166.61403475 488.42023003 -171.14052201 490.30987253 -175.76171875 492.015625 C-178.26244776 493.11542205 -180.56637391 494.47318696 -182.92602539 495.84423828 C-187.14356592 498.1945428 -191.52020604 500.23142336 -195.875 502.3125 C-196.96014893 502.83247559 -198.04529785 503.35245117 -199.16333008 503.88818359 C-208.6404135 508.40323746 -218.1933205 512.74292591 -227.76141357 517.0609436 C-239.23765324 522.24355164 -250.63221517 527.58400347 -262 533 C-274.44476157 538.9283761 -286.93353753 544.73645861 -299.50015259 550.40170288 C-310.96016855 555.57219808 -322.33448538 560.91143444 -333.6875 566.3125 C-354.72113503 576.31448255 -354.72113503 576.31448255 -365.25 581.125 C-366.57970825 581.73661987 -366.57970825 581.73661987 -367.9362793 582.3605957 C-373.75627567 585 -373.75627567 585 -376 585 C-377.43652524 555.60155159 -378.63151867 526.19984116 -379.66936207 496.78478551 C-379.87483897 490.97615745 -380.08308186 485.16762835 -380.29093933 479.35908508 C-380.69499086 468.05621058 -381.09659588 456.7532505 -381.49730088 445.45025691 C-381.94109518 432.93425598 -382.38710628 420.41833437 -382.83331627 407.90241938 C-383.72078069 383.00940328 -384.60572094 358.11629806 -385.48935509 333.22314573 C-386.27339044 311.13616914 -387.0592215 289.04925717 -387.84667969 266.96240234 C-387.8974408 265.53862259 -387.94820189 264.11484283 -387.99896295 262.69106308 C-388.02405949 261.98714128 -388.04915602 261.28321949 -388.07501306 260.55796674 C-388.20136169 257.01405379 -388.32770747 253.47014074 -388.45405006 249.92622757 C-388.47897978 249.22695511 -388.5039095 248.52768265 -388.52959466 247.80722011 C-389.1899323 229.28435184 -389.84905994 210.76144051 -390.50778043 192.23851466 C-390.55456756 190.92288712 -390.60135469 189.60725957 -390.64955961 188.25176452 C-390.74350472 185.61005254 -390.83744775 182.96834048 -390.93138868 180.32662834 C-391.25814048 171.13915826 -391.58538938 161.95170597 -391.91279984 152.76425934 C-392.31085178 141.59369271 -392.70797049 130.42309335 -393.10391285 119.25245175 C-393.30583353 113.55621388 -393.50814788 107.85999074 -393.7115345 102.16380501 C-393.89757068 96.95316762 -394.0824592 91.74249084 -394.26642196 86.53177986 C-394.33322354 84.64531993 -394.40044537 82.75887482 -394.46812554 80.87244621 C-394.55992725 78.31190593 -394.65020149 75.75131617 -394.74009132 73.19070816 C-394.78014459 72.0888198 -394.78014459 72.0888198 -394.82100701 70.96467108 C-394.97088844 66.63922149 -395.02352362 62.32708735 -395 58 C-347.18210301 50.80524886 -299.35652953 43.66224577 -251.52734375 36.54296875 C-250.82810415 36.43888728 -250.12886456 36.33480581 -249.40843588 36.22757035 C-231.34079779 33.53822994 -213.2730324 30.84974526 -195.20522082 28.16157067 C-184.83331822 26.61840578 -174.46144759 25.07502613 -164.08959961 23.53149414 C-163.3545986 23.42211182 -162.61959758 23.31272949 -161.86232381 23.20003255 C-157.42863875 22.5402131 -152.99495473 21.88038665 -148.561271 21.22055827 C-142.01941029 20.24698871 -135.47754776 19.27343139 -128.9356842 18.29988098 C-127.87399758 18.14188211 -127.87399758 18.14188211 -126.79086275 17.98069135 C-117.89640044 16.65703258 -109.00192674 15.33345041 -100.10742885 14.01003081 C-97.5288364 13.62634474 -94.9502494 13.242622 -92.37166804 12.85886139 C-86.20670601 11.9413908 -80.04166269 11.02447501 -73.87641811 10.10890484 C-63.42223209 8.55578349 -52.96878028 6.99845614 -42.51893348 5.41636413 C-38.1097226 4.74896545 -33.7000694 4.08451579 -29.29039299 3.42020094 C-27.24374601 3.1109092 -25.19733732 2.80003581 -23.15118968 2.48745763 C-20.36463616 2.0617855 -17.57733267 1.64139454 -14.78981018 1.22212219 C-13.57595546 1.03438049 -13.57595546 1.03438049 -12.33757842 0.84284604 C-8.18178113 0.22339024 -4.21696966 -0.13143655 0 0 Z " fill="#FEFEFE" transform="translate(834,276)"/>
<path d="M0 0 C12.23276024 2.82186914 24.38645425 5.8779642 36.5234375 9.0859375 C38.40156895 9.58060425 40.27974926 10.07508549 42.15797424 10.56939697 C47.18633551 11.89340937 52.21394162 13.22026731 57.24137497 14.54779816 C61.46630834 15.66307923 65.69166056 16.77676894 69.91700649 17.89048576 C83.9460624 21.58839241 97.97336227 25.29293271 112 29 C112.99091896 29.26187103 113.98183792 29.52374207 115.00278473 29.79354858 C160.35730027 41.77991804 205.69665261 53.82152529 251 66 C251.93687044 70.86063745 252.2403731 75.65629165 252.4041605 80.59153938 C252.43570507 81.447496 252.46724964 82.30345262 252.49975011 83.18534732 C252.6047617 86.06095369 252.70416363 88.9367265 252.80360413 91.81253052 C252.87837968 93.89219275 252.95349882 95.97184266 253.02893251 98.05148113 C253.23543958 103.77243013 253.43703551 109.49354334 253.63783944 115.21469498 C253.8551766 121.38266688 254.07703154 127.55047648 254.29832458 133.7183075 C254.70622709 145.10627288 255.11058503 156.49436012 255.51317635 167.88251413 C255.88523559 178.40637158 256.25890365 188.93017046 256.63415337 199.45391464 C256.67148162 200.50084143 256.67148162 200.50084143 256.70956398 201.56891825 C256.81058721 204.40216425 256.91161976 207.23540992 257.01266518 210.06865513 C257.96086189 236.65577666 258.90476904 263.24304889 259.84654878 289.83039842 C260.6829436 313.44204986 261.52233336 337.05359286 262.36450195 360.66503906 C262.41854562 362.18026289 262.47258926 363.69548671 262.52663285 365.21071054 C262.55335128 365.95981318 262.5800697 366.70891582 262.60759777 367.48071855 C262.74209921 371.2517539 262.87659564 375.02278942 263.01108646 378.79382515 C263.03762084 379.53782073 263.06415521 380.28181632 263.09149366 381.04835722 C263.79529928 400.78328674 264.49703195 420.51828995 265.19807714 440.25331771 C265.22302783 440.9556928 265.24797851 441.65806788 265.27368528 442.38172706 C265.48117552 448.22272182 265.48117552 448.22272182 265.57466303 450.85471475 C265.92333634 460.6707419 266.27273594 470.48674296 266.62261677 480.30272714 C267.07371709 492.95869097 267.52333163 505.61470616 267.97056944 518.27080722 C268.18621986 524.37247672 268.40253774 530.47412054 268.62070084 536.57570076 C268.82049904 542.16430241 269.01831546 547.75297062 269.21456688 553.34169792 C269.28580228 555.36058748 269.35774968 557.37945208 269.43049193 559.39828791 C269.78572717 569.26825025 270.12356663 579.12150088 270 589 C265.99604957 585.67757305 262.21690255 582.26765814 258.5625 578.5625 C255.85386654 575.81738663 253.12465391 573.18590893 250.1875 570.6875 C246.6110116 567.62499795 243.30610507 564.34719384 240 561 C236.75548719 557.71531368 233.5207759 554.49265951 230 551.5 C225.9104638 548.02389423 222.1903946 544.21750344 218.421875 540.40234375 C215.69691999 537.65674514 212.94976527 535.00730048 210 532.5 C205.91125235 529.0245645 202.19183316 525.21899763 198.42407227 521.40454102 C195.0941767 518.04939106 191.66068601 514.90274548 188.05859375 511.83984375 C184.92769719 509.04164208 182.01170305 506.03226344 179.06396484 503.04443359 C176.47977682 500.43879261 173.85790842 497.93946891 171.0625 495.5625 C167.523209 492.54647173 164.26505555 489.30552099 161 486 C157.75548124 482.71532009 154.52077642 479.49265996 151 476.5 C146.9104638 473.02389423 143.1903946 469.21750344 139.421875 465.40234375 C136.69691999 462.65674514 133.94976527 460.00730048 131 457.5 C126.9104638 454.02389423 123.1903946 450.21750344 119.421875 446.40234375 C116.69691999 443.65674514 113.94976527 441.00730048 111 438.5 C106.91125235 435.0245645 103.19183316 431.21899763 99.42407227 427.40454102 C96.0941767 424.04939106 92.66068601 420.90274548 89.05859375 417.83984375 C85.92769719 415.04164208 83.01170305 412.03226344 80.06396484 409.04443359 C77.47977682 406.43879261 74.85790842 403.93946891 72.0625 401.5625 C68.523209 398.54647173 65.26505555 395.30552099 62 392 C58.75548124 388.71532009 55.52077642 385.49265996 52 382.5 C48.47922306 379.5073396 45.2445247 376.2846735 42 373 C38.77601913 369.73617385 35.56482153 366.53169859 32.0625 363.5625 C27.5771811 359.75993577 23.50139215 355.55224554 19.39086914 351.35375977 C16.4870778 348.29780597 16.4870778 348.29780597 13 346 C13 345.34 13 344.68 13 344 C12.34 344 11.68 344 11 344 C10.00146741 341.00440224 9.81920783 338.84714231 9.72077847 335.71036816 C9.66554096 334.05495472 9.66554096 334.05495472 9.60918754 332.36609858 C9.5731909 331.14863123 9.53719426 329.93116389 9.50010681 328.67680359 C9.45841686 327.38710956 9.41672691 326.09741553 9.37377363 324.76863986 C9.25793261 321.18090976 9.14776436 317.59302418 9.03850448 314.00508845 C8.91975204 310.1375056 8.79579984 306.270089 8.67250061 302.40264893 C8.43152952 294.8178071 8.19544197 287.23282067 7.96103423 279.64777347 C7.68749153 270.80124898 7.4094181 261.95486866 7.13122601 253.10848937 C6.63436292 237.30266893 6.14205184 221.49670986 5.65209961 205.69067383 C5.17778463 190.38911846 4.69967226 175.08768768 4.2175293 159.78637695 C3.69219346 143.11415166 3.16907004 126.4418596 2.64965922 109.76944858 C2.59406799 107.985147 2.53847544 106.20084546 2.48288155 104.41654396 C2.44186237 103.09988814 2.44186237 103.09988814 2.40001453 101.75663322 C2.20833341 95.60833931 2.01514849 89.46009373 1.82139397 83.31186485 C1.58445466 75.79143602 1.35007491 68.27093221 1.11878889 60.75032731 C1.00099158 56.9217964 0.88217198 53.09330554 0.76029587 49.26490211 C0.23820385 32.83986181 -0.14098984 16.43487011 0 0 Z " fill="#FEFEFE" transform="translate(177,267)"/>
<path d="M0 0 C1.2210606 0.13405166 2.4421212 0.26810332 3.70018363 0.40621716 C7.06827994 0.77698126 10.43583454 1.15212651 13.80322886 1.52918112 C17.44288844 1.93562951 21.08317696 2.3363711 24.72338867 2.73783875 C31.84507071 3.52417463 38.96616171 4.3157435 46.08706501 5.10909706 C54.38105109 6.03294645 62.67561169 6.95158616 70.97019932 7.87001622 C85.76783337 9.50868465 100.56494025 11.15206558 115.36175537 12.79811096 C129.71944796 14.39530267 144.07750307 15.9891824 158.43597412 17.57936096 C159.32090728 17.67736641 160.20584043 17.77537186 161.11758974 17.87634718 C162.00099613 17.97418306 162.88440251 18.07201895 163.79457879 18.17281955 C180.14660254 19.98379927 196.49830402 21.79767342 212.84984322 23.61302267 C218.63188407 24.25488592 224.41401586 24.8959259 230.19617462 25.536726 C237.2392641 26.31733233 244.28216367 27.09962821 251.32483223 27.88402324 C254.91821704 28.2842162 258.51167489 28.68371902 262.10534668 29.08132744 C265.99855926 29.51210816 269.89138664 29.94630296 273.78417969 30.38085938 C274.92297899 30.50634783 276.0617783 30.63183628 277.23508668 30.76112741 C278.27754351 30.87807051 279.32000035 30.99501362 280.39404678 31.11550045 C281.2925228 31.2153669 282.19099881 31.31523334 283.11670136 31.41812605 C285.65326771 31.7559385 288.13530235 32.22380444 290.63812256 32.75392151 C290.63812256 33.08392151 290.63812256 33.41392151 290.63812256 33.75392151 C289.81565169 33.87607952 289.81565169 33.87607952 288.97656524 34.00070536 C255.96966377 38.90308126 222.96279252 43.80566058 189.95595693 48.70847998 C185.93122979 49.30631083 181.90650242 49.9041401 177.8817749 50.50196838 C177.08102241 50.62091124 176.28026991 50.7398541 175.45525219 50.86240129 C166.64874378 52.17050734 157.84223061 53.47858132 149.03570557 54.78657532 C148.25918281 54.90190955 147.48266005 55.01724377 146.68260629 55.13607298 C142.77923436 55.71582446 138.8758595 56.29555622 134.97247958 56.87525392 C127.22742444 58.02550824 119.48241813 59.17608973 111.73750687 60.32731247 C108.66054083 60.78463732 105.58356859 61.24192048 102.5065918 61.69917297 C101.74806503 61.8118967 100.98953827 61.92462042 100.20802584 62.04076001 C89.55647683 63.62347406 78.90407323 65.20032423 68.25110415 66.77344951 C61.56708459 67.76070447 54.88332232 68.74969746 48.199646 69.73927307 C47.47798372 69.84608786 46.75632145 69.95290265 46.01279062 70.06295425 C26.9124092 72.89076245 7.82654019 75.79538397 -11.24537969 78.81038117 C-17.85824323 79.85290641 -24.47355509 80.87980899 -31.08883417 81.90688121 C-37.03274635 82.83219145 -42.97110317 83.78585568 -48.90656376 84.76383972 C-52.47664575 85.34528887 -56.0505724 85.89948452 -59.62610483 86.44631052 C-61.22846767 86.69713719 -62.82913748 86.95913763 -64.42748404 87.23439932 C-75.50193069 89.1354946 -84.49227432 88.32851079 -95.31991118 85.32091826 C-97.39636439 84.74434545 -99.47969419 84.20631134 -101.56895447 83.67818737 C-105.45643198 82.69118931 -109.32901119 81.65624167 -113.20172119 80.61329651 C-114.69769292 80.21360723 -116.19376473 79.81429235 -117.68992615 79.41531372 C-120.88884504 78.56160472 -124.08717436 77.70573577 -127.28503418 76.84806824 C-135.10683295 74.75046903 -142.9317239 72.66444683 -150.75634003 70.57738686 C-152.59797643 70.08610304 -154.43957461 69.59467593 -156.28113556 69.10310936 C-171.01353553 65.17062209 -185.75346605 61.26729917 -200.49859619 57.38282776 C-201.50194189 57.11847553 -202.50528759 56.85412331 -203.5390377 56.58176041 C-212.42033461 54.2420337 -221.30203697 51.90384933 -230.18435669 49.56800842 C-254.9363968 43.05854648 -279.66466219 36.46857489 -304.36187744 29.75392151 C-304.03187744 29.09392151 -303.70187744 28.43392151 -303.36187744 27.75392151 C-301.4398427 27.31957567 -301.4398427 27.31957567 -298.85987091 27.0549221 C-297.8811126 26.94992154 -296.90235429 26.84492097 -295.89393663 26.73673856 C-294.26164338 26.57622084 -294.26164338 26.57622084 -292.59637451 26.41246033 C-291.45030841 26.29232846 -290.30424232 26.17219659 -289.12344694 26.04842436 C-285.92849059 25.71547 -282.73279872 25.39101335 -279.53662014 25.07004356 C-276.09470025 24.72235276 -272.653901 24.36388945 -269.21295166 24.00674438 C-262.46439603 23.30803971 -255.71484901 22.61939926 -248.96492058 21.93409799 C-241.1045363 21.13568666 -233.24516955 20.32747244 -225.38583082 19.5188448 C-211.35714625 18.07581578 -197.32754935 16.6418555 -183.29742432 15.21290588 C-169.68735375 13.82673108 -156.07796604 12.43408583 -142.46929932 11.03419495 C-141.63231792 10.94809752 -140.79533651 10.8620001 -139.93299204 10.77329366 C-139.09745403 10.68734416 -138.26191602 10.60139466 -137.40105867 10.51284063 C-121.91282481 8.91965848 -106.42397791 7.33250915 -90.93483368 5.74820381 C-85.45912672 5.18798665 -79.98360257 4.62600411 -74.50813293 4.06347275 C-67.82713446 3.37721353 -61.14578902 2.69444739 -54.46399552 2.01597117 C-51.05613877 1.6698703 -47.64844209 1.322363 -44.24113464 0.97089195 C-40.54225667 0.59015927 -36.84284815 0.21507084 -33.14324951 -0.15858459 C-32.07289979 -0.27005786 -31.00255006 -0.38153112 -29.89976549 -0.49638236 C-19.68921315 -1.5156301 -10.19249111 -1.15214064 0 0 Z " fill="#FEFEFE" transform="translate(515.3618774414063,235.24607849121094)"/>
<path d="M0 0 C9.40104284 7.27705883 17.38786104 15.742443 24.7890625 25.02734375 C28.93739286 30.19541419 33.2678586 35.2059826 37.61962891 40.203125 C38.60356583 41.33674289 39.5826354 42.47460876 40.55615234 43.6171875 C51.49413751 56.43759493 63.93434448 64.87373746 81 66.25 C85.67958976 66.1605241 89.37024685 64.71879863 93.125 61.9375 C94.43545826 60.29841289 95.51653955 58.59855961 96.62890625 56.8203125 C99.66921847 52.99412323 104.0434549 50.54493366 108.125 47.9375 C111.125 49.9375 111.125 49.9375 111.55859375 52.0390625 C111.57129636 60.24494935 109.52996727 65.55903117 104 71.625 C97.49879991 77.65689902 90.3120169 80.69905828 81.453125 81.0625 C64.39049654 80.4216501 49.33206459 74.16717027 37.125 61.9375 C35.828125 59.66796875 35.828125 59.66796875 35.125 57.9375 C34.465 57.9375 33.805 57.9375 33.125 57.9375 C31.78515625 56.64453125 31.78515625 56.64453125 30.1875 54.75 C29.56746094 54.02039063 28.94742188 53.29078125 28.30859375 52.5390625 C27.58800781 51.68054688 26.86742187 50.82203125 26.125 49.9375 C25.27035156 48.93460937 24.41570312 47.93171875 23.53515625 46.8984375 C19.19559355 41.80209082 14.91325301 36.67983146 10.75 31.4375 C-1.33959269 16.6661372 -14.14008531 4.83640612 -33.8125 2.0625 C-48.57607981 1.11763089 -63.43506519 6.7178157 -74.875 15.9375 C-76.45223586 18.12500168 -76.45223586 18.12500168 -77.75 20.375 C-79.0625 22.40234375 -79.0625 22.40234375 -80.875 23.9375 C-85.28344707 24.62102124 -89.45150726 24.41003928 -93.875 23.9375 C-94.25003259 17.12769769 -91.97234467 13.23607423 -87.875 7.9375 C-64.32874085 -15.69500918 -27.06417064 -19.43699528 0 0 Z " fill="#000000" transform="translate(285.875,340.0625)"/>
<path d="M0 0 C8.15571857 6.68369819 15.18633357 14.44257297 21.74609375 22.671875 C25.89442411 27.83994544 30.22488985 32.85051385 34.57666016 37.84765625 C35.56059708 38.98127414 36.53966665 40.11914001 37.51318359 41.26171875 C48.45116876 54.08212618 60.89137573 62.51826871 77.95703125 63.89453125 C82.63662101 63.80505535 86.3272781 62.36332988 90.08203125 59.58203125 C91.39248951 57.94294414 92.4735708 56.24309086 93.5859375 54.46484375 C96.62624972 50.63865448 101.00048615 48.18946491 105.08203125 45.58203125 C108.08203125 47.58203125 108.08203125 47.58203125 108.515625 49.46484375 C108.52921298 57.26434377 106.20570977 62.52452379 100.95703125 68.26953125 C94.45583116 74.30143027 87.26904815 77.34358953 78.41015625 77.70703125 C61.34752779 77.06618135 46.28909584 70.81170152 34.08203125 58.58203125 C32.78515625 56.3125 32.78515625 56.3125 32.08203125 54.58203125 C31.42203125 54.58203125 30.76203125 54.58203125 30.08203125 54.58203125 C28.7421875 53.2890625 28.7421875 53.2890625 27.14453125 51.39453125 C26.52449219 50.66492188 25.90445313 49.9353125 25.265625 49.18359375 C24.54503906 48.32507813 23.82445312 47.4665625 23.08203125 46.58203125 C22.22738281 45.57914062 21.37273437 44.57625 20.4921875 43.54296875 C16.1526248 38.44662207 11.87028426 33.32436271 7.70703125 28.08203125 C-4.38256144 13.31066845 -17.18305406 1.48093737 -36.85546875 -1.29296875 C-51.61904856 -2.23783786 -66.47803394 3.36234695 -77.91796875 12.58203125 C-79.49520461 14.76953293 -79.49520461 14.76953293 -80.79296875 17.01953125 C-82.10546875 19.046875 -82.10546875 19.046875 -83.91796875 20.58203125 C-88.32641582 21.26555249 -92.49447601 21.05457053 -96.91796875 20.58203125 C-96.63608561 13.95777758 -94.27738692 9.54993418 -89.91796875 4.58203125 C-63.87531059 -18.9709646 -27.78946409 -21.51097156 0 0 Z " fill="#000000" transform="translate(288.91796875,436.41796875)"/>
<path d="M0 0 C8.15571857 6.68369819 15.18633357 14.44257297 21.74609375 22.671875 C25.89442411 27.83994544 30.22488985 32.85051385 34.57666016 37.84765625 C35.56059708 38.98127414 36.53966665 40.11914001 37.51318359 41.26171875 C48.45116876 54.08212618 60.89137573 62.51826871 77.95703125 63.89453125 C82.63662101 63.80505535 86.3272781 62.36332988 90.08203125 59.58203125 C91.39248951 57.94294414 92.4735708 56.24309086 93.5859375 54.46484375 C96.62624972 50.63865448 101.00048615 48.18946491 105.08203125 45.58203125 C108.08203125 47.58203125 108.08203125 47.58203125 108.515625 49.46484375 C108.52921298 57.26434377 106.20570977 62.52452379 100.95703125 68.26953125 C94.45583116 74.30143027 87.26904815 77.34358953 78.41015625 77.70703125 C61.34752779 77.06618135 46.28909584 70.81170152 34.08203125 58.58203125 C32.78515625 56.3125 32.78515625 56.3125 32.08203125 54.58203125 C31.42203125 54.58203125 30.76203125 54.58203125 30.08203125 54.58203125 C28.7421875 53.2890625 28.7421875 53.2890625 27.14453125 51.39453125 C26.52449219 50.66492188 25.90445313 49.9353125 25.265625 49.18359375 C24.54503906 48.32507813 23.82445312 47.4665625 23.08203125 46.58203125 C22.22738281 45.57914062 21.37273437 44.57625 20.4921875 43.54296875 C16.1526248 38.44662207 11.87028426 33.32436271 7.70703125 28.08203125 C-4.38256144 13.31066845 -17.18305406 1.48093737 -36.85546875 -1.29296875 C-51.61904856 -2.23783786 -66.47803394 3.36234695 -77.91796875 12.58203125 C-79.49520461 14.76953293 -79.49520461 14.76953293 -80.79296875 17.01953125 C-82.10546875 19.046875 -82.10546875 19.046875 -83.91796875 20.58203125 C-88.32641582 21.26555249 -92.49447601 21.05457053 -96.91796875 20.58203125 C-96.63608561 13.95777758 -94.27738692 9.54993418 -89.91796875 4.58203125 C-63.87531059 -18.9709646 -27.78946409 -21.51097156 0 0 Z " fill="#000000" transform="translate(288.91796875,391.41796875)"/>
</svg>
