<?xml version="1.0" encoding="UTF-8"?>
<svg version="1.1" xmlns="http://www.w3.org/2000/svg" width="200" height="200">
<path d="M0 0 C8.58 0 17.16 0 26 0 C26.55429687 1.80726562 27.10859375 3.61453125 27.6796875 5.4765625 C28.41142086 7.85938651 29.14319376 10.24219837 29.875 12.625 C30.23980469 13.81480469 30.60460937 15.00460938 30.98046875 16.23046875 C31.33496094 17.38417969 31.68945312 18.53789063 32.0546875 19.7265625 C32.54171143 21.31331787 32.54171143 21.31331787 33.03857422 22.93212891 C33.98983123 25.96755185 34.98462594 28.98548479 36 32 C36.2673999 31.10168457 36.5347998 30.20336914 36.81030273 29.27783203 C37.80215844 25.94893922 38.79565825 22.62054643 39.7902832 19.29248047 C40.22063286 17.85127178 40.65032393 16.40986626 41.0793457 14.96826172 C41.69570129 12.89759197 42.31441264 10.82763885 42.93359375 8.7578125 C43.30540771 7.5114502 43.67722168 6.26508789 44.06030273 4.98095703 C45 2 45 2 46 0 C54.58 0 63.16 0 72 0 C74.35284955 6.27426546 76.3674437 12.39062235 78.1875 18.8125 C78.46013672 19.75287109 78.73277344 20.69324219 79.01367188 21.66210938 C79.39942383 23.0146582 79.39942383 23.0146582 79.79296875 24.39453125 C80.0252417 25.20768799 80.25751465 26.02084473 80.49682617 26.85864258 C81 29 81 29 81 32 C81.66 32 82.32 32 83 32 C83.0928125 31.10023437 83.185625 30.20046875 83.28125 29.2734375 C84.0956389 23.58131787 85.86766407 18.12511986 87.5 12.625 C87.82097656 11.52027344 88.14195313 10.41554688 88.47265625 9.27734375 C90.86682001 1.13317999 90.86682001 1.13317999 92 0 C94.8116338 -0.08861992 97.59858255 -0.11522355 100.41015625 -0.09765625 C101.25219101 -0.0962413 102.09422577 -0.09482635 102.96177673 -0.09336853 C105.66205335 -0.08775263 108.36224828 -0.07519748 111.0625 -0.0625 C112.88867068 -0.05748705 114.71484266 -0.05292379 116.54101562 -0.04882812 C121.02737542 -0.03777804 125.51367384 -0.02050279 130 0 C132.96723643 7.1022617 135.46401523 14.27783153 137.75 21.625 C138.8225 25.04875 139.895 28.4725 141 32 C144.63 21.44 148.26 10.88 152 0 C160.25 0 168.5 0 177 0 C180.00663677 9.16836472 183.00702431 18.33870992 185.99648285 27.51269054 C187.38487843 31.7725222 188.77598543 36.03142795 190.17333984 40.28833008 C191.52193679 44.39703605 192.86334424 48.50802528 194.19981384 52.6206913 C194.71077999 54.18878818 195.2243245 55.75604732 195.74049377 57.32243919 C196.46341161 59.51772423 197.17707743 61.71581779 197.88867188 63.91479492 C198.50156067 65.79010139 198.50156067 65.79010139 199.12683105 67.70329285 C200 71 200 71 200 76 C191.42 76 182.84 76 174 76 C173.04287109 72.78636719 173.04287109 72.78636719 172.06640625 69.5078125 C171.44795178 67.43590277 170.82886527 65.3641829 170.2097168 63.29248047 C169.77936714 61.85127178 169.34967607 60.40986626 168.9206543 58.96826172 C168.30429871 56.89759197 167.68558736 54.82763885 167.06640625 52.7578125 C166.69459229 51.5114502 166.32277832 50.26508789 165.93969727 48.98095703 C165.12092031 46.11049524 165.12092031 46.11049524 164 44 C163.59890015 45.40076782 163.59890015 45.40076782 163.18969727 46.82983398 C162.19966846 50.28407472 161.20535312 53.73706904 160.2097168 57.18969727 C159.77885191 58.68610355 159.34916078 60.18284831 158.9206543 61.67993164 C158.30563416 63.82788056 157.68644599 65.97458924 157.06640625 68.12109375 C156.87470352 68.79401962 156.68300079 69.4669455 156.48548889 70.16026306 C155.11387171 74.88612829 155.11387171 74.88612829 154 76 C152.07332493 76.08748207 150.14348139 76.10697334 148.21484375 76.09765625 C146.46010742 76.09282227 146.46010742 76.09282227 144.66992188 76.08789062 C143.43822266 76.07951172 142.20652344 76.07113281 140.9375 76.0625 C139.08415039 76.05573242 139.08415039 76.05573242 137.19335938 76.04882812 C134.12885883 76.03699608 131.06445279 76.02051173 128 76 C124.66666667 65.33333333 121.33333333 54.66666667 118 44 C115.03 54.56 112.06 65.12 109 76 C96.13 76 83.26 76 70 76 C66.37 65.44 62.74 54.88 59 44 C53.555 59.84 53.555 59.84 48 76 C40.08 76 32.16 76 24 76 C19.49804707 64.74511768 19.49804707 64.74511768 17.70996094 59.23681641 C17.30984802 58.00919586 16.90973511 56.78157532 16.49749756 55.51675415 C16.07620825 54.21177045 15.65517329 52.90670462 15.234375 51.6015625 C14.79182095 50.23533869 14.34913044 48.86915907 13.90631104 47.50302124 C12.9862395 44.6614772 12.06889368 41.81907063 11.15332031 38.97607422 C9.98059226 35.33586738 8.79928949 31.6985059 7.61577988 28.06179237 C6.70239945 25.25097684 5.79437735 22.43845217 4.88788605 19.62540817 C4.45435151 18.28280349 4.0189597 16.94079703 3.58165741 15.59941483 C2.97302323 13.73035289 2.3725554 11.85863764 1.77246094 9.98681641 C1.42922791 8.92443756 1.08599487 7.86205872 0.73236084 6.76748657 C0 4 0 4 0 0 Z " fill="#F49429" transform="translate(0,61)"/>
<path d="M0 0 C8.58 0 17.16 0 26 0 C26.55429687 1.80726562 27.10859375 3.61453125 27.6796875 5.4765625 C28.41142086 7.85938651 29.14319376 10.24219837 29.875 12.625 C30.23980469 13.81480469 30.60460937 15.00460938 30.98046875 16.23046875 C31.33496094 17.38417969 31.68945312 18.53789063 32.0546875 19.7265625 C32.54171143 21.31331787 32.54171143 21.31331787 33.03857422 22.93212891 C33.98983123 25.96755185 34.98462594 28.98548479 36 32 C36.2673999 31.10168457 36.5347998 30.20336914 36.81030273 29.27783203 C37.80215844 25.94893922 38.79565825 22.62054643 39.7902832 19.29248047 C40.22063286 17.85127178 40.65032393 16.40986626 41.0793457 14.96826172 C41.69570129 12.89759197 42.31441264 10.82763885 42.93359375 8.7578125 C43.30540771 7.5114502 43.67722168 6.26508789 44.06030273 4.98095703 C45 2 45 2 46 0 C54.58 0 63.16 0 72 0 C74.35284955 6.27426546 76.3674437 12.39062235 78.1875 18.8125 C78.46013672 19.75287109 78.73277344 20.69324219 79.01367188 21.66210938 C79.39942383 23.0146582 79.39942383 23.0146582 79.79296875 24.39453125 C80.0252417 25.20768799 80.25751465 26.02084473 80.49682617 26.85864258 C81 29 81 29 81 32 C81.66 32 82.32 32 83 32 C83.0928125 31.10023437 83.185625 30.20046875 83.28125 29.2734375 C84.0956389 23.58131787 85.86766407 18.12511986 87.5 12.625 C87.82097656 11.52027344 88.14195313 10.41554688 88.47265625 9.27734375 C90.86682001 1.13317999 90.86682001 1.13317999 92 0 C94.8116338 -0.08861992 97.59858255 -0.11522355 100.41015625 -0.09765625 C101.25219101 -0.0962413 102.09422577 -0.09482635 102.96177673 -0.09336853 C105.66205335 -0.08775263 108.36224828 -0.07519748 111.0625 -0.0625 C112.88867068 -0.05748705 114.71484266 -0.05292379 116.54101562 -0.04882812 C121.02737542 -0.03777804 125.51367384 -0.02050279 130 0 C130 0.33 130 0.66 130 1 C118.615 1.495 118.615 1.495 107 2 C105.65808594 6.13402344 105.65808594 6.13402344 104.2890625 10.3515625 C97.27958009 31.93057264 90.21977866 53.49038293 83 75 C91.25 75 99.5 75 108 75 C108.33 74.34 108.66 73.68 109 73 C109 73.99 109 74.98 109 76 C96.13 76 83.26 76 70 76 C66.37 65.44 62.74 54.88 59 44 C53.555 59.84 53.555 59.84 48 76 C40.08 76 32.16 76 24 76 C19.49804707 64.74511768 19.49804707 64.74511768 17.70996094 59.23681641 C17.30984802 58.00919586 16.90973511 56.78157532 16.49749756 55.51675415 C16.07620825 54.21177045 15.65517329 52.90670462 15.234375 51.6015625 C14.79182095 50.23533869 14.34913044 48.86915907 13.90631104 47.50302124 C12.9862395 44.6614772 12.06889368 41.81907063 11.15332031 38.97607422 C9.98059226 35.33586738 8.79928949 31.6985059 7.61577988 28.06179237 C6.70239945 25.25097684 5.79437735 22.43845217 4.88788605 19.62540817 C4.45435151 18.28280349 4.0189597 16.94079703 3.58165741 15.59941483 C2.97302323 13.73035289 2.3725554 11.85863764 1.77246094 9.98681641 C1.42922791 8.92443756 1.08599487 7.86205872 0.73236084 6.76748657 C0 4 0 4 0 0 Z " fill="#1AB5EE" transform="translate(0,61)"/>
</svg>
